<svg width="135" height="140" viewBox="0 0 135 140" fill="none" xmlns="http://www.w3.org/2000/svg">
<path d="M109.286 0H28.7143C25.0061 0 22 4.47715 22 10V130C22 135.523 25.0061 140 28.7143 140H109.286C112.994 140 116 135.523 116 130V10C116 4.47715 112.994 0 109.286 0Z" fill="#E9FBFF"/>
<path d="M115.651 50.7174C119.195 50.7174 122.068 47.8442 122.068 44.2999C122.068 40.7556 119.195 37.8824 115.651 37.8824C112.107 37.8824 109.233 40.7556 109.233 44.2999C109.233 47.8442 112.107 50.7174 115.651 50.7174Z" fill="url(#paint0_linear_152_22494)"/>
<path d="M35.3096 38.8182H38.7499L41.1164 44.5852H41.2357L43.6022 38.8182H47.0425V49H44.338V43.1136H44.2584L41.9914 48.9205H40.3607L38.0937 43.0739H38.0141V49H35.3096V38.8182ZM47.9349 38.8182H51.0173L53.0059 42.9545H53.0855L55.0741 38.8182H58.1565L54.4179 45.7983V49H51.6736V45.7983L47.9349 38.8182ZM71.7103 43.9091C71.7103 45.0426 71.4899 45.9988 71.0491 46.7777C70.6083 47.5533 70.0133 48.1416 69.2643 48.5426C68.5152 48.9403 67.68 49.1392 66.7586 49.1392C65.8306 49.1392 64.992 48.9387 64.243 48.5376C63.4972 48.1333 62.904 47.5433 62.4632 46.7678C62.0257 45.9889 61.8069 45.036 61.8069 43.9091C61.8069 42.7756 62.0257 41.821 62.4632 41.0455C62.904 40.2666 63.4972 39.6783 64.243 39.2805C64.992 38.8795 65.8306 38.679 66.7586 38.679C67.68 38.679 68.5152 38.8795 69.2643 39.2805C70.0133 39.6783 70.6083 40.2666 71.0491 41.0455C71.4899 41.821 71.7103 42.7756 71.7103 43.9091ZM68.8666 43.9091C68.8666 43.2992 68.7854 42.7855 68.623 42.3679C68.4639 41.947 68.2269 41.6288 67.912 41.4134C67.6005 41.1946 67.216 41.0852 66.7586 41.0852C66.3012 41.0852 65.9151 41.1946 65.6002 41.4134C65.2887 41.6288 65.0517 41.947 64.8893 42.3679C64.7302 42.7855 64.6507 43.2992 64.6507 43.9091C64.6507 44.5189 64.7302 45.0343 64.8893 45.4553C65.0517 45.8729 65.2887 46.1911 65.6002 46.4098C65.9151 46.6252 66.3012 46.733 66.7586 46.733C67.216 46.733 67.6005 46.6252 67.912 46.4098C68.2269 46.1911 68.4639 45.8729 68.623 45.4553C68.7854 45.0343 68.8666 44.5189 68.8666 43.9091ZM72.9893 49V38.8182H77.3841C78.1398 38.8182 78.801 38.9673 79.3678 39.2656C79.9346 39.5639 80.3754 39.9832 80.6903 40.5234C81.0051 41.0637 81.1626 41.6951 81.1626 42.4176C81.1626 43.1468 81.0001 43.7782 80.6753 44.3118C80.3538 44.8454 79.9014 45.2564 79.3181 45.5447C78.7381 45.8331 78.0603 45.9773 77.2847 45.9773H74.6597V43.8295H76.7279C77.0527 43.8295 77.3295 43.7732 77.5581 43.6605C77.7902 43.5445 77.9675 43.3804 78.0901 43.1683C78.2161 42.9562 78.279 42.706 78.279 42.4176C78.279 42.1259 78.2161 41.8774 78.0901 41.6719C77.9675 41.4631 77.7902 41.304 77.5581 41.1946C77.3295 41.0819 77.0527 41.0256 76.7279 41.0256H75.7535V49H72.9893ZM82.1768 49V38.8182H89.5148V41.0455H84.941V42.7955H89.137V45.0227H84.941V46.7727H89.4949V49H82.1768ZM99.6954 38.8182V49H97.3886L93.7096 43.6506H93.6499V49H90.8857V38.8182H93.2323L96.8517 44.1477H96.9312V38.8182H99.6954ZM34.9918 66V52.1818H38.7432V57.5795H43.7091V52.1818H47.4606V66H43.7091V60.6023H38.7432V66H34.9918ZM62.4382 59.0909C62.4382 60.6293 62.1391 61.927 61.5408 62.984C60.9426 64.0366 60.1352 64.835 59.1186 65.3793C58.102 65.919 56.9685 66.1889 55.718 66.1889C54.4585 66.1889 53.3205 65.9168 52.3039 65.3725C51.2919 64.8237 50.4867 64.0231 49.8885 62.9705C49.2947 61.9135 48.9978 60.6203 48.9978 59.0909C48.9978 57.5526 49.2947 56.2571 49.8885 55.2045C50.4867 54.1475 51.2919 53.3491 52.3039 52.8093C53.3205 52.265 54.4585 51.9929 55.718 51.9929C56.9685 51.9929 58.102 52.265 59.1186 52.8093C60.1352 53.3491 60.9426 54.1475 61.5408 55.2045C62.1391 56.2571 62.4382 57.5526 62.4382 59.0909ZM58.5788 59.0909C58.5788 58.2633 58.4686 57.5661 58.2482 56.9993C58.0323 56.428 57.7107 55.9962 57.2834 55.7038C56.8605 55.407 56.3388 55.2585 55.718 55.2585C55.0973 55.2585 54.5732 55.407 54.1459 55.7038C53.7231 55.9962 53.4015 56.428 53.1811 56.9993C52.9652 57.5661 52.8572 58.2633 52.8572 59.0909C52.8572 59.9186 52.9652 60.618 53.1811 61.1893C53.4015 61.756 53.7231 62.1879 54.1459 62.4847C54.5732 62.7771 55.0973 62.9233 55.718 62.9233C56.3388 62.9233 56.8605 62.7771 57.2834 62.4847C57.7107 62.1879 58.0323 61.756 58.2482 61.1893C58.4686 60.618 58.5788 59.9186 58.5788 59.0909ZM72.1614 52.1818H75.9129V61.0341C75.9129 62.0866 75.661 62.9975 75.1572 63.7667C74.6579 64.5314 73.9607 65.1229 73.0656 65.5412C72.1704 65.955 71.1314 66.1619 69.9484 66.1619C68.7564 66.1619 67.7128 65.955 66.8177 65.5412C65.9226 65.1229 65.2254 64.5314 64.7261 63.7667C64.2313 62.9975 63.9839 62.0866 63.9839 61.0341V52.1818H67.7353V60.7102C67.7353 61.1375 67.8298 61.5199 68.0187 61.8572C68.2076 62.1901 68.4685 62.451 68.8014 62.6399C69.1387 62.8288 69.5211 62.9233 69.9484 62.9233C70.3802 62.9233 70.7625 62.8288 71.0954 62.6399C71.4283 62.451 71.6891 62.1901 71.8781 61.8572C72.067 61.5199 72.1614 61.1375 72.1614 60.7102V52.1818ZM84.9547 56.5C84.9187 56.0502 84.75 55.6993 84.4486 55.4474C84.1518 55.1955 83.6997 55.0696 83.0924 55.0696C82.7056 55.0696 82.3885 55.1168 82.1411 55.2113C81.8982 55.3013 81.7183 55.425 81.6013 55.5824C81.4844 55.7398 81.4237 55.9197 81.4192 56.1222C81.4102 56.2886 81.4394 56.4393 81.5069 56.5742C81.5788 56.7047 81.6913 56.8239 81.8442 56.9318C81.9972 57.0353 82.1928 57.1297 82.4312 57.2152C82.6696 57.3007 82.953 57.3771 83.2814 57.4446L84.4149 57.6875C85.1796 57.8494 85.834 58.0631 86.3783 58.3285C86.9226 58.5939 87.3679 58.9065 87.7143 59.2663C88.0606 59.6217 88.3148 60.022 88.4767 60.4673C88.6431 60.9126 88.7286 61.3984 88.7331 61.9247C88.7286 62.8333 88.5014 63.6025 88.0516 64.2322C87.6018 64.862 86.9586 65.341 86.1219 65.6694C85.2898 65.9978 84.2889 66.1619 83.1194 66.1619C81.9184 66.1619 80.8704 65.9843 79.9753 65.6289C79.0846 65.2736 78.3919 64.727 77.8971 63.9893C77.4068 63.2472 77.1594 62.2981 77.1549 61.142H80.7174C80.7399 61.5649 80.8456 61.9202 81.0346 62.2081C81.2235 62.496 81.4889 62.7141 81.8307 62.8626C82.1771 63.011 82.5887 63.0852 83.0655 63.0852C83.4658 63.0852 83.8009 63.0357 84.0708 62.9368C84.3407 62.8378 84.5453 62.7006 84.6848 62.5252C84.8242 62.3498 84.8962 62.1496 84.9007 61.9247C84.8962 61.7133 84.8265 61.5289 84.6915 61.3714C84.5611 61.2095 84.3452 61.0656 84.0438 60.9396C83.7424 60.8092 83.3353 60.6877 82.8226 60.5753L81.4461 60.2784C80.2227 60.013 79.2578 59.57 78.5516 58.9492C77.8499 58.324 77.5013 57.4716 77.5058 56.392C77.5013 55.5149 77.7352 54.748 78.2075 54.0913C78.6843 53.43 79.3433 52.915 80.1844 52.5462C81.0301 52.1773 81.9994 51.9929 83.0924 51.9929C84.208 51.9929 85.1728 52.1796 85.987 52.5529C86.8011 52.9263 87.4286 53.4525 87.8694 54.1317C88.3148 54.8065 88.5397 55.5959 88.5442 56.5H84.9547ZM89.9701 66V52.1818H99.9289V55.2045H93.7215V57.5795H99.4161V60.6023H93.7215V62.9773H99.9019V66H89.9701Z" fill="url(#paint1_linear_152_22494)"/>
<g filter="url(#filter0_d_152_22494)">
<path d="M36.4265 81.4782H127.623C128.518 81.4782 129.377 81.834 130.011 82.4675C130.644 83.1009 131 83.96 131 84.8558V101.744C131 102.64 130.644 103.499 130.011 104.132C129.377 104.766 128.518 105.122 127.623 105.122H36.4265C35.5307 105.122 34.6715 104.766 34.0381 104.132C33.4047 103.499 33.0488 102.64 33.0488 101.744V84.8558C33.0488 83.96 33.4047 83.1009 34.0381 82.4675C34.6715 81.834 35.5307 81.4782 36.4265 81.4782V81.4782Z" fill="white"/>
</g>
<path d="M86.4145 86.8825H68.8508C67.7315 86.8825 66.8242 87.7898 66.8242 88.909C66.8242 90.0283 67.7315 90.9356 68.8508 90.9356H86.4145C87.5337 90.9356 88.4411 90.0283 88.4411 88.909C88.4411 87.7898 87.5337 86.8825 86.4145 86.8825Z" fill="#E9FBFF"/>
<path d="M98.574 95.6643H68.8508C67.7315 95.6643 66.8242 96.5716 66.8242 97.6909C66.8242 98.8101 67.7315 99.7175 68.8508 99.7175H98.574C99.6932 99.7175 100.601 98.8101 100.601 97.6909C100.601 96.5716 99.6932 95.6643 98.574 95.6643Z" fill="#CFF7FF"/>
<path d="M53.6509 99.7174C57.1952 99.7174 60.0684 96.8442 60.0684 93.2999C60.0684 89.7556 57.1952 86.8824 53.6509 86.8824C50.1066 86.8824 47.2334 89.7556 47.2334 93.2999C47.2334 96.8442 50.1066 99.7174 53.6509 99.7174Z" fill="url(#paint2_linear_152_22494)"/>
<g filter="url(#filter1_d_152_22494)">
<path d="M7.37666 110.526H98.5728C99.4686 110.526 100.328 110.882 100.961 111.515C101.595 112.149 101.95 113.008 101.95 113.904V130.792C101.95 131.688 101.595 132.547 100.961 133.18C100.328 133.814 99.4686 134.169 98.5728 134.169H7.37666C6.48085 134.169 5.62174 133.814 4.98831 133.18C4.35488 132.547 3.99902 131.688 3.99902 130.792V113.904C3.99902 113.008 4.35488 112.149 4.98831 111.515C5.62174 110.882 6.48085 110.526 7.37666 110.526V110.526Z" fill="white"/>
</g>
<path d="M57.3657 115.93H39.802C38.6827 115.93 37.7754 116.838 37.7754 117.957C37.7754 119.076 38.6827 119.984 39.802 119.984H57.3657C58.4849 119.984 59.3922 119.076 59.3922 117.957C59.3922 116.838 58.4849 115.93 57.3657 115.93Z" fill="#E9FBFF"/>
<path d="M69.5251 124.712H39.802C38.6827 124.712 37.7754 125.62 37.7754 126.739C37.7754 127.858 38.6827 128.765 39.802 128.765H69.5251C70.6444 128.765 71.5517 127.858 71.5517 126.739C71.5517 125.62 70.6444 124.712 69.5251 124.712Z" fill="#CFF7FF"/>
<path d="M15.8198 128.766C19.3641 128.766 22.2374 125.892 22.2374 122.348C22.2374 118.804 19.3641 115.931 15.8198 115.931C12.2756 115.931 9.40234 118.804 9.40234 122.348C9.40234 125.892 12.2756 128.766 15.8198 128.766Z" fill="url(#paint3_linear_152_22494)"/>
<g filter="url(#filter2_d_152_22494)">
<path d="M98.5728 4H7.37666C5.51124 4 3.99902 5.51222 3.99902 7.37763V24.2658C3.99902 26.1312 5.51124 27.6434 7.37666 27.6434H98.5728C100.438 27.6434 101.95 26.1312 101.95 24.2658V7.37763C101.95 5.51222 100.438 4 98.5728 4Z" fill="white"/>
</g>
<path d="M56.0141 9.40452H38.4504C37.3312 9.40452 36.4238 10.3118 36.4238 11.4311C36.4238 12.5503 37.3312 13.4577 38.4504 13.4577H56.0141C57.1334 13.4577 58.0407 12.5503 58.0407 11.4311C58.0407 10.3118 57.1334 9.40452 56.0141 9.40452Z" fill="#E9FBFF"/>
<path d="M68.1736 18.1864H38.4504C37.3312 18.1864 36.4238 19.0937 36.4238 20.213C36.4238 21.3322 37.3312 22.2395 38.4504 22.2395H68.1736C69.2928 22.2395 70.2002 21.3322 70.2002 20.213C70.2002 19.0937 69.2928 18.1864 68.1736 18.1864Z" fill="#CFF7FF"/>
<path d="M24.6031 22.2397C28.1473 22.2397 31.0206 19.3665 31.0206 15.8222C31.0206 12.2779 28.1473 9.40472 24.6031 9.40472C21.0588 9.40472 18.1855 12.2779 18.1855 15.8222C18.1855 19.3665 21.0588 22.2397 24.6031 22.2397Z" fill="url(#paint4_linear_152_22494)"/>
<defs>
<filter id="filter0_d_152_22494" x="29.9429" y="79.9252" width="104.163" height="29.8553" filterUnits="userSpaceOnUse" color-interpolation-filters="sRGB">
<feFlood flood-opacity="0" result="BackgroundImageFix"/>
<feColorMatrix in="SourceAlpha" type="matrix" values="0 0 0 0 0 0 0 0 0 0 0 0 0 0 0 0 0 0 127 0" result="hardAlpha"/>
<feOffset dy="1.55296"/>
<feGaussianBlur stdDeviation="1.55296"/>
<feColorMatrix type="matrix" values="0 0 0 0 0 0 0 0 0 0 0 0 0 0 0 0 0 0 0.161 0"/>
<feBlend mode="normal" in2="BackgroundImageFix" result="effect1_dropShadow_152_22494"/>
<feBlend mode="normal" in="SourceGraphic" in2="effect1_dropShadow_152_22494" result="shape"/>
</filter>
<filter id="filter1_d_152_22494" x="0.893099" y="108.973" width="104.163" height="29.8553" filterUnits="userSpaceOnUse" color-interpolation-filters="sRGB">
<feFlood flood-opacity="0" result="BackgroundImageFix"/>
<feColorMatrix in="SourceAlpha" type="matrix" values="0 0 0 0 0 0 0 0 0 0 0 0 0 0 0 0 0 0 127 0" result="hardAlpha"/>
<feOffset dy="1.55296"/>
<feGaussianBlur stdDeviation="1.55296"/>
<feColorMatrix type="matrix" values="0 0 0 0 0 0 0 0 0 0 0 0 0 0 0 0 0 0 0.161 0"/>
<feBlend mode="normal" in2="BackgroundImageFix" result="effect1_dropShadow_152_22494"/>
<feBlend mode="normal" in="SourceGraphic" in2="effect1_dropShadow_152_22494" result="shape"/>
</filter>
<filter id="filter2_d_152_22494" x="0.893099" y="2.44704" width="104.163" height="29.8553" filterUnits="userSpaceOnUse" color-interpolation-filters="sRGB">
<feFlood flood-opacity="0" result="BackgroundImageFix"/>
<feColorMatrix in="SourceAlpha" type="matrix" values="0 0 0 0 0 0 0 0 0 0 0 0 0 0 0 0 0 0 127 0" result="hardAlpha"/>
<feOffset dy="1.55296"/>
<feGaussianBlur stdDeviation="1.55296"/>
<feColorMatrix type="matrix" values="0 0 0 0 0 0 0 0 0 0 0 0 0 0 0 0 0 0 0.161 0"/>
<feBlend mode="normal" in2="BackgroundImageFix" result="effect1_dropShadow_152_22494"/>
<feBlend mode="normal" in="SourceGraphic" in2="effect1_dropShadow_152_22494" result="shape"/>
</filter>
<linearGradient id="paint0_linear_152_22494" x1="115.651" y1="37.8824" x2="115.651" y2="50.7174" gradientUnits="userSpaceOnUse">
<stop stop-color="#00DBFF"/>
<stop offset="1" stop-color="#10A5F5"/>
</linearGradient>
<linearGradient id="paint1_linear_152_22494" x1="67.5" y1="28" x2="67.5" y2="70" gradientUnits="userSpaceOnUse">
<stop stop-color="#00DBFF"/>
<stop offset="1" stop-color="#10A5F5"/>
</linearGradient>
<linearGradient id="paint2_linear_152_22494" x1="53.6509" y1="86.8824" x2="53.6509" y2="99.7174" gradientUnits="userSpaceOnUse">
<stop stop-color="#00DBFF"/>
<stop offset="1" stop-color="#10A5F5"/>
</linearGradient>
<linearGradient id="paint3_linear_152_22494" x1="15.8198" y1="115.931" x2="15.8198" y2="128.766" gradientUnits="userSpaceOnUse">
<stop stop-color="#00DBFF"/>
<stop offset="1" stop-color="#10A5F5"/>
</linearGradient>
<linearGradient id="paint4_linear_152_22494" x1="24.6031" y1="9.40472" x2="24.6031" y2="22.2397" gradientUnits="userSpaceOnUse">
<stop stop-color="#00DBFF"/>
<stop offset="1" stop-color="#10A5F5"/>
</linearGradient>
</defs>
</svg>
