<svg width="40" height="41" viewBox="0 0 40 41" fill="none" xmlns="http://www.w3.org/2000/svg">
<path d="M0 8.5C0 4.08172 3.58172 0.5 8 0.5H32C36.4183 0.5 40 4.08172 40 8.5V32.5C40 36.9183 36.4183 40.5 32 40.5H8C3.58172 40.5 0 36.9183 0 32.5V8.5Z" fill="url(#paint0_linear_152_22412)"/>
<path d="M19.9997 27.1667C16.3177 27.1667 13.333 24.182 13.333 20.5C13.333 16.818 16.3177 13.8333 19.9997 13.8333C23.6817 13.8333 26.6663 16.818 26.6663 20.5C26.6663 24.182 23.6817 27.1667 19.9997 27.1667ZM23.2603 18.182C23.0007 17.8176 22.6821 17.499 22.3177 17.2393L16.739 22.818C16.9987 23.1824 17.3173 23.501 17.6817 23.7607L23.2603 18.182Z" fill="white"/>
<defs>
<linearGradient id="paint0_linear_152_22412" x1="20" y1="0.5" x2="20" y2="40.5" gradientUnits="userSpaceOnUse">
<stop stop-color="#FFCB4A"/>
<stop offset="1" stop-color="#E7A500"/>
</linearGradient>
</defs>
</svg>
