<svg width="16" height="16" viewBox="0 0 16 16" fill="none" xmlns="http://www.w3.org/2000/svg">
<path d="M2.6665 4C2.6665 3.4477 3.11422 3 3.6665 3H12.3332C12.8855 3 13.3332 3.4477 13.3332 4V7.66667H2.6665V4Z" stroke="#C5D0E6" stroke-width="1.5" stroke-linecap="round" stroke-linejoin="round"/>
<path d="M2 11.6667V13" stroke="#C5D0E6" stroke-width="1.5" stroke-linecap="round" stroke-linejoin="round"/>
<path d="M14 11.6667V13" stroke="#C5D0E6" stroke-width="1.5" stroke-linecap="round" stroke-linejoin="round"/>
<path d="M7.6665 7.66667V7C7.6665 6.4477 7.2188 6 6.6665 6H4.6665C4.1142 6 3.6665 6.4477 3.6665 7V7.66667" stroke="#C5D0E6" stroke-width="1.5" stroke-linecap="round" stroke-linejoin="round"/>
<path d="M12.3335 7.66667V7C12.3335 6.4477 11.8858 6 11.3335 6H9.3335C8.7812 6 8.3335 6.4477 8.3335 7V7.66667" stroke="#C5D0E6" stroke-width="1.5" stroke-linecap="round" stroke-linejoin="round"/>
<path d="M1.3335 8.66667C1.3335 8.11437 1.78121 7.66667 2.3335 7.66667H13.6668C14.2191 7.66667 14.6668 8.11437 14.6668 8.66667V11.6667H1.3335V8.66667Z" stroke="#C5D0E6" stroke-width="1.5" stroke-linecap="round" stroke-linejoin="round"/>
</svg>
