<svg width="34" height="34" viewBox="0 0 34 34" fill="none" xmlns="http://www.w3.org/2000/svg">
<path d="M1.83417 0.33505C0.981522 0.420719 0.332538 1.13734 0.333375 1.99309V28.6323C0.335249 29.5478 1.07698 30.29 1.99369 30.2936H7.00395V31.9647C6.95356 34.2339 10.388 34.2339 10.3376 31.9647V30.2936H23.6625V31.9647C23.7107 34.1354 26.9479 34.1354 26.9961 31.9647V30.2936H32.0064C32.9231 30.29 33.6648 29.5478 33.6667 28.6323V1.99309C33.663 1.07889 32.9218 0.338704 32.0064 0.33505H1.99369C1.94055 0.33253 1.88732 0.33253 1.83417 0.33505H1.83417ZM3.67029 26.9614V3.66421H30.333V26.9614H3.67029ZM7.48251 15.8068C5.78073 17.3794 8.28313 19.8613 9.84602 18.151L10.3376 17.6602V21.9744C10.3413 22.8885 11.0825 23.6288 11.9979 23.6324H22.0022C22.9176 23.6287 23.6588 22.8885 23.6625 21.9744V17.6602L24.1541 18.151C25.7169 19.8613 28.2194 17.3794 26.5176 15.8068L18.1769 7.47453C17.8586 7.15516 17.4239 6.97745 16.9724 6.98375C16.9179 6.98532 16.8636 6.98976 16.8096 6.99644C16.4374 7.04053 16.091 7.20933 15.8264 7.47453L7.48251 15.8068ZM17.0082 11.0019L20.3418 14.3376V20.3031H13.6713V14.3343L17.0082 11.0019Z" fill="#0C90E1"/>
</svg>
