<svg width="16" height="16" viewBox="0 0 16 16" fill="none" xmlns="http://www.w3.org/2000/svg">
<path d="M14.6131 7.74667C14.5814 7.66484 14.5338 7.59007 14.4731 7.52667L12.8064 5.86001C12.6809 5.73447 12.5106 5.66394 12.3331 5.66394C12.1556 5.66394 11.9853 5.73447 11.8598 5.86001C11.7342 5.98554 11.6637 6.1558 11.6637 6.33334C11.6637 6.51087 11.7342 6.68114 11.8598 6.80667L12.3931 7.33334H8.66643V5.33334C8.66643 5.15653 8.5962 4.98696 8.47117 4.86193C8.34615 4.73691 8.17658 4.66667 7.99977 4.66667C7.82296 4.66667 7.65339 4.73691 7.52836 4.86193C7.40334 4.98696 7.3331 5.15653 7.3331 5.33334V7.33334H3.60643L4.13977 6.80667C4.2653 6.68114 4.33583 6.51087 4.33583 6.33334C4.33583 6.1558 4.2653 5.98554 4.13977 5.86001C4.01423 5.73447 3.84397 5.66394 3.66643 5.66394C3.4889 5.66394 3.31864 5.73447 3.1931 5.86001L1.52643 7.52667C1.46574 7.59007 1.41816 7.66484 1.38643 7.74667C1.31976 7.90898 1.31976 8.09103 1.38643 8.25334C1.41816 8.33517 1.46574 8.40994 1.52643 8.47334L3.1931 10.14C3.25508 10.2025 3.32881 10.2521 3.41005 10.2859C3.49129 10.3198 3.57843 10.3372 3.66643 10.3372C3.75444 10.3372 3.84158 10.3198 3.92282 10.2859C4.00406 10.2521 4.07779 10.2025 4.13977 10.14C4.20225 10.078 4.25185 10.0043 4.2857 9.92306C4.31954 9.84182 4.33697 9.75468 4.33697 9.66667C4.33697 9.57866 4.31954 9.49153 4.2857 9.41029C4.25185 9.32905 4.20225 9.25531 4.13977 9.19334L3.60643 8.66667H7.3331V10.6667C7.3331 10.8435 7.40334 11.0131 7.52836 11.1381C7.65339 11.2631 7.82296 11.3333 7.99977 11.3333C8.17658 11.3333 8.34615 11.2631 8.47117 11.1381C8.5962 11.0131 8.66643 10.8435 8.66643 10.6667V8.66667H12.3931L11.8598 9.19334C11.7973 9.25531 11.7477 9.32905 11.7138 9.41029C11.68 9.49153 11.6626 9.57866 11.6626 9.66667C11.6626 9.75468 11.68 9.84182 11.7138 9.92306C11.7477 10.0043 11.7973 10.078 11.8598 10.14C11.9217 10.2025 11.9955 10.2521 12.0767 10.2859C12.158 10.3198 12.2451 10.3372 12.3331 10.3372C12.4211 10.3372 12.5082 10.3198 12.5895 10.2859C12.6707 10.2521 12.7445 10.2025 12.8064 10.14L14.4731 8.47334C14.5338 8.40994 14.5814 8.33517 14.6131 8.25334C14.6798 8.09103 14.6798 7.90898 14.6131 7.74667Z" fill="#C5D0E6"/>
<path d="M10.6665 7.33333H8.6665V3.60666L9.19317 4.14C9.25515 4.20248 9.32888 4.25208 9.41012 4.28592C9.49136 4.31977 9.5785 4.3372 9.6665 4.3372C9.75451 4.3372 9.84165 4.31977 9.92289 4.28592C10.0041 4.25208 10.0779 4.20248 10.1398 4.14C10.2023 4.07802 10.2519 4.00429 10.2858 3.92305C10.3196 3.84181 10.337 3.75467 10.337 3.66666C10.337 3.57866 10.3196 3.49152 10.2858 3.41028C10.2519 3.32904 10.2023 3.25531 10.1398 3.19333L8.47317 1.52666C8.40977 1.46597 8.335 1.41839 8.25317 1.38666C8.09086 1.31998 7.90881 1.31998 7.7465 1.38666C7.66467 1.41839 7.58991 1.46597 7.5265 1.52666L5.85984 3.19333C5.7343 3.31887 5.66378 3.48913 5.66378 3.66666C5.66378 3.8442 5.7343 4.01446 5.85984 4.14C5.98537 4.26553 6.15564 4.33606 6.33317 4.33606C6.5107 4.33606 6.68097 4.26553 6.8065 4.14L7.33317 3.60666V7.33333H5.33317C5.15636 7.33333 4.98679 7.40357 4.86177 7.52859C4.73674 7.65362 4.6665 7.82319 4.6665 8C4.6665 8.17681 4.73674 8.34638 4.86177 8.4714C4.98679 8.59643 5.15636 8.66666 5.33317 8.66666H7.33317V12.3933L6.8065 11.86C6.74434 11.7978 6.67055 11.7485 6.58934 11.7149C6.50812 11.6813 6.42108 11.6639 6.33317 11.6639C6.24526 11.6639 6.15822 11.6813 6.077 11.7149C5.99579 11.7485 5.922 11.7978 5.85984 11.86C5.79768 11.9222 5.74837 11.996 5.71473 12.0772C5.68109 12.1584 5.66378 12.2454 5.66378 12.3333C5.66378 12.4212 5.68109 12.5083 5.71473 12.5895C5.74837 12.6707 5.79768 12.7445 5.85984 12.8067L7.5265 14.4733C7.58991 14.534 7.66467 14.5816 7.7465 14.6133C7.8263 14.6486 7.91259 14.6668 7.99984 14.6668C8.08708 14.6668 8.17337 14.6486 8.25317 14.6133C8.335 14.5816 8.40977 14.534 8.47317 14.4733L10.1398 12.8067C10.2654 12.6811 10.3359 12.5109 10.3359 12.3333C10.3359 12.1558 10.2654 11.9855 10.1398 11.86C10.0143 11.7345 9.84404 11.6639 9.6665 11.6639C9.48897 11.6639 9.31871 11.7345 9.19317 11.86L8.6665 12.3933V8.66666H10.6665C10.8433 8.66666 11.0129 8.59643 11.1379 8.4714C11.2629 8.34638 11.3332 8.17681 11.3332 8C11.3332 7.82319 11.2629 7.65362 11.1379 7.52859C11.0129 7.40357 10.8433 7.33333 10.6665 7.33333Z" fill="#C5D0E6"/>
</svg>
