<svg width="40" height="40" viewBox="0 0 40 40" fill="none" xmlns="http://www.w3.org/2000/svg">
<path d="M5.56762 15.4931C3.87579 17.0651 6.35684 19.5534 7.91067 17.8431L8.38898 17.3611V29.9963C8.38547 30.9217 9.13125 31.6726 10.0501 31.6691H18.317V36.6653C18.317 38.8895 21.6296 38.8895 21.6296 36.6653V31.6691H29.8965C30.8167 31.6745 31.5644 30.9229 31.5609 29.9963V17.3515L32.0489 17.8429C33.5995 19.6658 36.1924 17.0544 34.3823 15.4928L21.1416 2.15807C20.8279 1.83996 20.4004 1.66294 19.9556 1.66672C19.5241 1.67302 19.1125 1.85004 18.8083 2.15807L5.56762 15.4931ZM11.6983 28.3361V14.0283L19.9814 5.68946L28.2483 14.0152V28.3361H11.6983ZM23.252 16.6483C22.8232 16.6609 22.4165 16.8428 22.1176 17.1527L18.317 20.9805L17.829 20.4892C16.2682 18.7853 13.7974 21.284 15.4957 22.8489L17.1471 24.5121C17.7937 25.1648 18.8436 25.1648 19.4902 24.5121L24.451 19.5159C25.5379 18.4578 24.763 16.6068 23.252 16.6518V16.6483Z" fill="url(#paint0_linear_307_8562)"/>
<defs>
<linearGradient id="paint0_linear_307_8562" x1="20" y1="1.66666" x2="20" y2="38.3334" gradientUnits="userSpaceOnUse">
<stop stop-color="#00DBFF"/>
<stop offset="1" stop-color="#10A5F5"/>
</linearGradient>
</defs>
</svg>
