<svg width="32" height="32" viewBox="0 0 32 32" fill="none" xmlns="http://www.w3.org/2000/svg">
<path d="M13.7129 10.5097C13.9501 10.5097 14.1687 10.6383 14.2838 10.8457L15.0827 12.2847C15.1872 12.4731 15.1922 12.701 15.0958 12.8937L14.3262 14.4329C14.3262 14.4329 14.5492 15.5795 15.4826 16.5128C16.416 17.4462 17.5587 17.6654 17.5587 17.6654L19.0976 16.8959C19.2905 16.7995 19.5185 16.8045 19.707 16.9093L21.15 17.7115C21.3573 17.8268 21.4858 18.0452 21.4858 18.2823V19.939C21.4858 20.7826 20.7021 21.392 19.9028 21.1222C18.261 20.5683 15.7125 19.5135 14.0972 17.8982C12.482 16.2829 11.4272 13.7344 10.8732 12.0927C10.6035 11.2933 11.2128 10.5097 12.0565 10.5097H13.7129Z" fill="#192252" stroke="#192252" stroke-linejoin="round"/>
<path d="M4 1H28V-1H4V1ZM31 4V28H33V4H31ZM28 31H4V33H28V31ZM1 28V4H-1V28H1ZM4 31C2.34315 31 1 29.6569 1 28H-1C-1 30.7614 1.23858 33 4 33V31ZM31 28C31 29.6569 29.6569 31 28 31V33C30.7614 33 33 30.7614 33 28H31ZM28 1C29.6569 1 31 2.34315 31 4H33C33 1.23858 30.7614 -1 28 -1V1ZM4 -1C1.23858 -1 -1 1.23858 -1 4H1C1 2.34315 2.34315 1 4 1V-1Z" fill="#DBE8FD"/>
</svg>
