<svg width="16" height="14" viewBox="0 0 16 14" fill="none" xmlns="http://www.w3.org/2000/svg">
<path d="M15.3337 11.6667C15.3337 12.0203 15.1932 12.3594 14.9431 12.6095C14.6931 12.8595 14.3539 13 14.0003 13H2.00033C1.6467 13 1.30757 12.8595 1.05752 12.6095C0.807468 12.3594 0.666992 12.0203 0.666992 11.6667V4.33333C0.666992 3.97971 0.807468 3.64057 1.05752 3.39052C1.30757 3.14048 1.6467 3 2.00033 3H4.66699L6.00033 1H10.0003L11.3337 3H14.0003C14.3539 3 14.6931 3.14048 14.9431 3.39052C15.1932 3.64057 15.3337 3.97971 15.3337 4.33333V11.6667Z" stroke="#090A0A" stroke-width="2" stroke-linecap="round" stroke-linejoin="round"/>
<path d="M8.00033 10.3333C9.47309 10.3333 10.667 9.13943 10.667 7.66667C10.667 6.19391 9.47309 5 8.00033 5C6.52757 5 5.33366 6.19391 5.33366 7.66667C5.33366 9.13943 6.52757 10.3333 8.00033 10.3333Z" stroke="#090A0A" stroke-width="2" stroke-linecap="round" stroke-linejoin="round"/>
</svg>
