<svg width="18" height="19" viewBox="0 0 21 20" fill="none" xmlns="http://www.w3.org/2000/svg">
<path d="M0.25 10C0.25 4.47715 4.72715 0 10.25 0V0C15.7728 0 20.25 4.47715 20.25 10V10C20.25 15.5228 15.7728 20 10.25 20V20C4.72715 20 0.25 15.5228 0.25 10V10Z" fill="white"/>
<path d="M10.25 19C5.27944 19 1.25 14.9706 1.25 10H-0.75C-0.75 16.0751 4.17487 21 10.25 21V19ZM19.25 10C19.25 14.9706 15.2206 19 10.25 19V21C16.3251 21 21.25 16.0751 21.25 10H19.25ZM10.25 1C15.2206 1 19.25 5.02944 19.25 10H21.25C21.25 3.92487 16.3251 -1 10.25 -1V1ZM10.25 -1C4.17487 -1 -0.75 3.92487 -0.75 10H1.25C1.25 5.02944 5.27944 1 10.25 1V-1Z" fill="#CDCFD0"/>
</svg>
