<svg width="327" height="272" viewBox="0 0 327 272" fill="none" xmlns="http://www.w3.org/2000/svg">
<path d="M205.286 40H124.714C121.006 40 118 44.4772 118 50V170C118 175.523 121.006 180 124.714 180H205.286C208.994 180 212 175.523 212 170V50C212 44.4772 208.994 40 205.286 40Z" fill="#E9FBFF"/>
<path d="M211.651 90.7174C215.195 90.7174 218.068 87.8442 218.068 84.2999C218.068 80.7556 215.195 77.8824 211.651 77.8824C208.107 77.8824 205.233 80.7556 205.233 84.2999C205.233 87.8442 208.107 90.7174 211.651 90.7174Z" fill="url(#paint0_linear_152_24798)"/>
<path d="M131.31 78.8182H134.75L137.116 84.5852H137.236L139.602 78.8182H143.043V89H140.338V83.1136H140.258L137.991 88.9205H136.361L134.094 83.0739H134.014V89H131.31V78.8182ZM143.935 78.8182H147.017L149.006 82.9545H149.085L151.074 78.8182H154.157L150.418 85.7983V89H147.674V85.7983L143.935 78.8182ZM167.71 83.9091C167.71 85.0426 167.49 85.9988 167.049 86.7777C166.608 87.5533 166.013 88.1416 165.264 88.5426C164.515 88.9403 163.68 89.1392 162.759 89.1392C161.831 89.1392 160.992 88.9387 160.243 88.5376C159.497 88.1333 158.904 87.5433 158.463 86.7678C158.026 85.9889 157.807 85.036 157.807 83.9091C157.807 82.7756 158.026 81.821 158.463 81.0455C158.904 80.2666 159.497 79.6783 160.243 79.2805C160.992 78.8795 161.831 78.679 162.759 78.679C163.68 78.679 164.515 78.8795 165.264 79.2805C166.013 79.6783 166.608 80.2666 167.049 81.0455C167.49 81.821 167.71 82.7756 167.71 83.9091ZM164.867 83.9091C164.867 83.2992 164.785 82.7855 164.623 82.3679C164.464 81.947 164.227 81.6288 163.912 81.4134C163.6 81.1946 163.216 81.0852 162.759 81.0852C162.301 81.0852 161.915 81.1946 161.6 81.4134C161.289 81.6288 161.052 81.947 160.889 82.3679C160.73 82.7855 160.651 83.2992 160.651 83.9091C160.651 84.5189 160.73 85.0343 160.889 85.4553C161.052 85.8729 161.289 86.1911 161.6 86.4098C161.915 86.6252 162.301 86.733 162.759 86.733C163.216 86.733 163.6 86.6252 163.912 86.4098C164.227 86.1911 164.464 85.8729 164.623 85.4553C164.785 85.0343 164.867 84.5189 164.867 83.9091ZM168.989 89V78.8182H173.384C174.14 78.8182 174.801 78.9673 175.368 79.2656C175.935 79.5639 176.375 79.9832 176.69 80.5234C177.005 81.0637 177.163 81.6951 177.163 82.4176C177.163 83.1468 177 83.7782 176.675 84.3118C176.354 84.8454 175.901 85.2564 175.318 85.5447C174.738 85.8331 174.06 85.9773 173.285 85.9773H170.66V83.8295H172.728C173.053 83.8295 173.329 83.7732 173.558 83.6605C173.79 83.5445 173.967 83.3804 174.09 83.1683C174.216 82.9562 174.279 82.706 174.279 82.4176C174.279 82.1259 174.216 81.8774 174.09 81.6719C173.967 81.4631 173.79 81.304 173.558 81.1946C173.329 81.0819 173.053 81.0256 172.728 81.0256H171.753V89H168.989ZM178.177 89V78.8182H185.515V81.0455H180.941V82.7955H185.137V85.0227H180.941V86.7727H185.495V89H178.177ZM195.695 78.8182V89H193.389L189.71 83.6506H189.65V89H186.886V78.8182H189.232L192.852 84.1477H192.931V78.8182H195.695ZM130.992 106V92.1818H134.743V97.5795H139.709V92.1818H143.461V106H139.709V100.602H134.743V106H130.992ZM158.438 99.0909C158.438 100.629 158.139 101.927 157.541 102.984C156.943 104.037 156.135 104.835 155.119 105.379C154.102 105.919 152.968 106.189 151.718 106.189C150.459 106.189 149.321 105.917 148.304 105.373C147.292 104.824 146.487 104.023 145.888 102.971C145.295 101.913 144.998 100.62 144.998 99.0909C144.998 97.5526 145.295 96.2571 145.888 95.2045C146.487 94.1475 147.292 93.3491 148.304 92.8093C149.321 92.265 150.459 91.9929 151.718 91.9929C152.968 91.9929 154.102 92.265 155.119 92.8093C156.135 93.3491 156.943 94.1475 157.541 95.2045C158.139 96.2571 158.438 97.5526 158.438 99.0909ZM154.579 99.0909C154.579 98.2633 154.469 97.5661 154.248 96.9993C154.032 96.428 153.711 95.9962 153.283 95.7038C152.861 95.407 152.339 95.2585 151.718 95.2585C151.097 95.2585 150.573 95.407 150.146 95.7038C149.723 95.9962 149.401 96.428 149.181 96.9993C148.965 97.5661 148.857 98.2633 148.857 99.0909C148.857 99.9186 148.965 100.618 149.181 101.189C149.401 101.756 149.723 102.188 150.146 102.485C150.573 102.777 151.097 102.923 151.718 102.923C152.339 102.923 152.861 102.777 153.283 102.485C153.711 102.188 154.032 101.756 154.248 101.189C154.469 100.618 154.579 99.9186 154.579 99.0909ZM168.161 92.1818H171.913V101.034C171.913 102.087 171.661 102.998 171.157 103.767C170.658 104.531 169.961 105.123 169.066 105.541C168.17 105.955 167.131 106.162 165.948 106.162C164.756 106.162 163.713 105.955 162.818 105.541C161.923 105.123 161.225 104.531 160.726 103.767C160.231 102.998 159.984 102.087 159.984 101.034V92.1818H163.735V100.71C163.735 101.138 163.83 101.52 164.019 101.857C164.208 102.19 164.468 102.451 164.801 102.64C165.139 102.829 165.521 102.923 165.948 102.923C166.38 102.923 166.763 102.829 167.095 102.64C167.428 102.451 167.689 102.19 167.878 101.857C168.067 101.52 168.161 101.138 168.161 100.71V92.1818ZM180.955 96.5C180.919 96.0502 180.75 95.6993 180.449 95.4474C180.152 95.1955 179.7 95.0696 179.092 95.0696C178.706 95.0696 178.388 95.1168 178.141 95.2113C177.898 95.3013 177.718 95.425 177.601 95.5824C177.484 95.7398 177.424 95.9197 177.419 96.1222C177.41 96.2886 177.439 96.4393 177.507 96.5742C177.579 96.7047 177.691 96.8239 177.844 96.9318C177.997 97.0353 178.193 97.1297 178.431 97.2152C178.67 97.3007 178.953 97.3771 179.281 97.4446L180.415 97.6875C181.18 97.8494 181.834 98.0631 182.378 98.3285C182.923 98.5939 183.368 98.9065 183.714 99.2663C184.061 99.6217 184.315 100.022 184.477 100.467C184.643 100.913 184.729 101.398 184.733 101.925C184.729 102.833 184.501 103.603 184.052 104.232C183.602 104.862 182.959 105.341 182.122 105.669C181.29 105.998 180.289 106.162 179.119 106.162C177.918 106.162 176.87 105.984 175.975 105.629C175.085 105.274 174.392 104.727 173.897 103.989C173.407 103.247 173.159 102.298 173.155 101.142H176.717C176.74 101.565 176.846 101.92 177.035 102.208C177.223 102.496 177.489 102.714 177.831 102.863C178.177 103.011 178.589 103.085 179.065 103.085C179.466 103.085 179.801 103.036 180.071 102.937C180.341 102.838 180.545 102.701 180.685 102.525C180.824 102.35 180.896 102.15 180.901 101.925C180.896 101.713 180.826 101.529 180.692 101.371C180.561 101.21 180.345 101.066 180.044 100.94C179.742 100.809 179.335 100.688 178.823 100.575L177.446 100.278C176.223 100.013 175.258 99.57 174.552 98.9492C173.85 98.324 173.501 97.4716 173.506 96.392C173.501 95.5149 173.735 94.748 174.208 94.0913C174.684 93.43 175.343 92.915 176.184 92.5462C177.03 92.1773 177.999 91.9929 179.092 91.9929C180.208 91.9929 181.173 92.1796 181.987 92.5529C182.801 92.9263 183.429 93.4525 183.869 94.1317C184.315 94.8065 184.54 95.5959 184.544 96.5H180.955ZM185.97 106V92.1818H195.929V95.2045H189.722V97.5795H195.416V100.602H189.722V102.977H195.902V106H185.97Z" fill="url(#paint1_linear_152_24798)"/>
<g filter="url(#filter0_d_152_24798)">
<path d="M132.426 121.478H223.623C224.518 121.478 225.377 121.834 226.011 122.467C226.644 123.101 227 123.96 227 124.856V141.744C227 142.64 226.644 143.499 226.011 144.132C225.377 144.766 224.518 145.122 223.623 145.122H132.426C131.531 145.122 130.672 144.766 130.038 144.132C129.405 143.499 129.049 142.64 129.049 141.744V124.856C129.049 123.96 129.405 123.101 130.038 122.467C130.672 121.834 131.531 121.478 132.426 121.478V121.478Z" fill="white"/>
</g>
<path d="M182.414 126.882H164.851C163.732 126.882 162.824 127.79 162.824 128.909C162.824 130.028 163.732 130.936 164.851 130.936H182.414C183.534 130.936 184.441 130.028 184.441 128.909C184.441 127.79 183.534 126.882 182.414 126.882Z" fill="#E9FBFF"/>
<path d="M194.574 135.664H164.851C163.732 135.664 162.824 136.572 162.824 137.691C162.824 138.81 163.732 139.717 164.851 139.717H194.574C195.693 139.717 196.601 138.81 196.601 137.691C196.601 136.572 195.693 135.664 194.574 135.664Z" fill="#CFF7FF"/>
<path d="M149.651 139.717C153.195 139.717 156.068 136.844 156.068 133.3C156.068 129.756 153.195 126.882 149.651 126.882C146.107 126.882 143.233 129.756 143.233 133.3C143.233 136.844 146.107 139.717 149.651 139.717Z" fill="url(#paint2_linear_152_24798)"/>
<g filter="url(#filter1_d_152_24798)">
<path d="M103.377 150.526H194.573C195.469 150.526 196.328 150.882 196.961 151.515C197.595 152.149 197.95 153.008 197.95 153.904V170.792C197.95 171.688 197.595 172.547 196.961 173.18C196.328 173.814 195.469 174.169 194.573 174.169H103.377C102.481 174.169 101.622 173.814 100.988 173.18C100.355 172.547 99.999 171.688 99.999 170.792V153.904C99.999 153.008 100.355 152.149 100.988 151.515C101.622 150.882 102.481 150.526 103.377 150.526V150.526Z" fill="white"/>
</g>
<path d="M153.366 155.93H135.802C134.683 155.93 133.775 156.838 133.775 157.957C133.775 159.076 134.683 159.984 135.802 159.984H153.366C154.485 159.984 155.392 159.076 155.392 157.957C155.392 156.838 154.485 155.93 153.366 155.93Z" fill="#E9FBFF"/>
<path d="M165.525 164.712H135.802C134.683 164.712 133.775 165.62 133.775 166.739C133.775 167.858 134.683 168.765 135.802 168.765H165.525C166.644 168.765 167.552 167.858 167.552 166.739C167.552 165.62 166.644 164.712 165.525 164.712Z" fill="#CFF7FF"/>
<path d="M111.82 168.766C115.364 168.766 118.237 165.892 118.237 162.348C118.237 158.804 115.364 155.931 111.82 155.931C108.276 155.931 105.402 158.804 105.402 162.348C105.402 165.892 108.276 168.766 111.82 168.766Z" fill="url(#paint3_linear_152_24798)"/>
<g filter="url(#filter2_d_152_24798)">
<path d="M194.573 44H103.377C101.511 44 99.999 45.5122 99.999 47.3776V64.2658C99.999 66.1312 101.511 67.6434 103.377 67.6434H194.573C196.438 67.6434 197.95 66.1312 197.95 64.2658V47.3776C197.95 45.5122 196.438 44 194.573 44Z" fill="white"/>
</g>
<path d="M152.014 49.4045H134.45C133.331 49.4045 132.424 50.3118 132.424 51.4311C132.424 52.5503 133.331 53.4577 134.45 53.4577H152.014C153.133 53.4577 154.041 52.5503 154.041 51.4311C154.041 50.3118 153.133 49.4045 152.014 49.4045Z" fill="#E9FBFF"/>
<path d="M164.174 58.1864H134.45C133.331 58.1864 132.424 59.0937 132.424 60.213C132.424 61.3322 133.331 62.2395 134.45 62.2395H164.174C165.293 62.2395 166.2 61.3322 166.2 60.213C166.2 59.0937 165.293 58.1864 164.174 58.1864Z" fill="#CFF7FF"/>
<path d="M120.603 62.2397C124.147 62.2397 127.021 59.3665 127.021 55.8222C127.021 52.2779 124.147 49.4047 120.603 49.4047C117.059 49.4047 114.186 52.2779 114.186 55.8222C114.186 59.3665 117.059 62.2397 120.603 62.2397Z" fill="url(#paint4_linear_152_24798)"/>
<path d="M96.084 224V207.2H98.784L106.488 219.488V207.2H108.984V224H106.296L98.568 211.712V224H96.084ZM116.923 224.312C115.819 224.312 114.811 224.028 113.899 223.46C112.995 222.892 112.271 222.132 111.727 221.18C111.191 220.22 110.923 219.16 110.923 218C110.923 217.12 111.079 216.3 111.391 215.54C111.703 214.772 112.131 214.1 112.675 213.524C113.227 212.94 113.867 212.484 114.595 212.156C115.323 211.828 116.099 211.664 116.923 211.664C118.027 211.664 119.031 211.948 119.935 212.516C120.847 213.084 121.571 213.848 122.107 214.808C122.651 215.768 122.923 216.832 122.923 218C122.923 218.872 122.767 219.688 122.455 220.448C122.143 221.208 121.711 221.88 121.159 222.464C120.615 223.04 119.979 223.492 119.251 223.82C118.531 224.148 117.755 224.312 116.923 224.312ZM116.923 221.816C117.587 221.816 118.183 221.64 118.711 221.288C119.239 220.936 119.655 220.472 119.959 219.896C120.271 219.312 120.427 218.68 120.427 218C120.427 217.304 120.267 216.664 119.947 216.08C119.635 215.496 119.215 215.032 118.687 214.688C118.159 214.336 117.571 214.16 116.923 214.16C116.267 214.16 115.671 214.336 115.135 214.688C114.607 215.04 114.187 215.508 113.875 216.092C113.571 216.676 113.419 217.312 113.419 218C113.419 218.712 113.579 219.356 113.899 219.932C114.219 220.508 114.643 220.968 115.171 221.312C115.707 221.648 116.291 221.816 116.923 221.816ZM136.118 224.312C135.014 224.312 134.006 224.028 133.094 223.46C132.19 222.892 131.466 222.132 130.922 221.18C130.386 220.22 130.118 219.16 130.118 218C130.118 217.12 130.274 216.3 130.586 215.54C130.898 214.772 131.326 214.1 131.87 213.524C132.422 212.94 133.062 212.484 133.79 212.156C134.518 211.828 135.294 211.664 136.118 211.664C137.222 211.664 138.226 211.948 139.13 212.516C140.042 213.084 140.766 213.848 141.302 214.808C141.846 215.768 142.118 216.832 142.118 218C142.118 218.872 141.962 219.688 141.65 220.448C141.338 221.208 140.906 221.88 140.354 222.464C139.81 223.04 139.174 223.492 138.446 223.82C137.726 224.148 136.95 224.312 136.118 224.312ZM136.118 221.816C136.782 221.816 137.378 221.64 137.906 221.288C138.434 220.936 138.85 220.472 139.154 219.896C139.466 219.312 139.622 218.68 139.622 218C139.622 217.304 139.462 216.664 139.142 216.08C138.83 215.496 138.41 215.032 137.882 214.688C137.354 214.336 136.766 214.16 136.118 214.16C135.462 214.16 134.866 214.336 134.33 214.688C133.802 215.04 133.382 215.508 133.07 216.092C132.766 216.676 132.614 217.312 132.614 218C132.614 218.712 132.774 219.356 133.094 219.932C133.414 220.508 133.838 220.968 134.366 221.312C134.902 221.648 135.486 221.816 136.118 221.816ZM147.352 209.276V212H150.736V214.496H147.352V224H144.856V214.496H143.428V212H144.856V209.276C144.856 208.62 145.016 208.024 145.336 207.488C145.656 206.944 146.084 206.512 146.62 206.192C147.164 205.872 147.768 205.712 148.432 205.712C148.912 205.712 149.38 205.808 149.836 206C150.292 206.192 150.7 206.488 151.06 206.888L149.272 208.652C149.184 208.508 149.06 208.4 148.9 208.328C148.748 208.248 148.592 208.208 148.432 208.208C148.136 208.208 147.88 208.312 147.664 208.52C147.456 208.728 147.352 208.98 147.352 209.276ZM156.024 209.276V212H159.408V214.496H156.024V224H153.528V214.496H152.1V212H153.528V209.276C153.528 208.62 153.688 208.024 154.008 207.488C154.328 206.944 154.756 206.512 155.292 206.192C155.836 205.872 156.44 205.712 157.104 205.712C157.584 205.712 158.052 205.808 158.508 206C158.964 206.192 159.372 206.488 159.732 206.888L157.944 208.652C157.856 208.508 157.732 208.4 157.572 208.328C157.42 208.248 157.264 208.208 157.104 208.208C156.808 208.208 156.552 208.312 156.336 208.52C156.128 208.728 156.024 208.98 156.024 209.276ZM166.4 224.312C165.296 224.312 164.288 224.028 163.376 223.46C162.472 222.892 161.748 222.132 161.204 221.18C160.668 220.22 160.4 219.16 160.4 218C160.4 217.12 160.556 216.3 160.868 215.54C161.18 214.772 161.608 214.1 162.152 213.524C162.704 212.94 163.344 212.484 164.072 212.156C164.8 211.828 165.576 211.664 166.4 211.664C167.32 211.664 168.164 211.856 168.932 212.24C169.7 212.616 170.356 213.14 170.9 213.812C171.444 214.476 171.844 215.244 172.1 216.116C172.356 216.98 172.432 217.9 172.328 218.876H163.076C163.18 219.428 163.38 219.928 163.676 220.376C163.98 220.816 164.364 221.164 164.828 221.42C165.3 221.676 165.824 221.808 166.4 221.816C167.008 221.816 167.56 221.664 168.056 221.36C168.56 221.056 168.972 220.636 169.292 220.1L171.824 220.688C171.344 221.752 170.62 222.624 169.652 223.304C168.684 223.976 167.6 224.312 166.4 224.312ZM162.992 216.968H169.808C169.728 216.392 169.524 215.872 169.196 215.408C168.876 214.936 168.472 214.564 167.984 214.292C167.504 214.012 166.976 213.872 166.4 213.872C165.832 213.872 165.304 214.008 164.816 214.28C164.336 214.552 163.936 214.924 163.616 215.396C163.304 215.86 163.096 216.384 162.992 216.968ZM181.43 214.508C181.222 214.38 180.994 214.28 180.746 214.208C180.506 214.128 180.242 214.088 179.954 214.088C179.33 214.088 178.786 214.252 178.322 214.58C177.858 214.908 177.494 215.352 177.23 215.912C176.974 216.472 176.846 217.092 176.846 217.772V224H174.338V212H176.834V213.62C177.25 213.02 177.754 212.548 178.346 212.204C178.946 211.852 179.614 211.676 180.35 211.676C180.622 211.676 180.878 211.688 181.118 211.712C181.366 211.736 181.602 211.784 181.826 211.856L181.43 214.508ZM187.34 224.228C186.708 224.188 186.092 224.06 185.492 223.844C184.892 223.628 184.364 223.336 183.908 222.968C183.46 222.592 183.124 222.152 182.9 221.648L185.024 220.736C185.128 220.952 185.308 221.164 185.564 221.372C185.828 221.58 186.136 221.752 186.488 221.888C186.84 222.016 187.208 222.08 187.592 222.08C187.968 222.08 188.316 222.028 188.636 221.924C188.964 221.812 189.232 221.644 189.44 221.42C189.648 221.196 189.752 220.928 189.752 220.616C189.752 220.264 189.632 219.992 189.392 219.8C189.16 219.6 188.868 219.448 188.516 219.344C188.164 219.24 187.812 219.14 187.46 219.044C186.676 218.868 185.956 218.628 185.3 218.324C184.652 218.012 184.136 217.616 183.752 217.136C183.368 216.648 183.176 216.052 183.176 215.348C183.176 214.58 183.38 213.916 183.788 213.356C184.204 212.788 184.752 212.352 185.432 212.048C186.112 211.744 186.836 211.592 187.604 211.592C188.564 211.592 189.444 211.796 190.244 212.204C191.044 212.612 191.656 213.172 192.08 213.884L190.1 215.06C189.98 214.82 189.8 214.604 189.56 214.412C189.32 214.22 189.048 214.068 188.744 213.956C188.44 213.836 188.124 213.768 187.796 213.752C187.388 213.736 187.008 213.784 186.656 213.896C186.312 214 186.036 214.168 185.828 214.4C185.62 214.632 185.516 214.928 185.516 215.288C185.516 215.64 185.64 215.904 185.888 216.08C186.136 216.248 186.448 216.384 186.824 216.488C187.208 216.592 187.6 216.708 188 216.836C188.712 217.06 189.38 217.336 190.004 217.664C190.628 217.984 191.132 218.38 191.516 218.852C191.9 219.324 192.084 219.9 192.068 220.58C192.068 221.332 191.84 221.992 191.384 222.56C190.936 223.128 190.352 223.56 189.632 223.856C188.912 224.152 188.148 224.276 187.34 224.228ZM208.223 212H210.887L204.311 230H201.659L203.831 224L199.523 212H202.247L205.079 220.58L208.223 212ZM217.54 224.312C216.436 224.312 215.428 224.028 214.516 223.46C213.612 222.892 212.888 222.132 212.344 221.18C211.808 220.22 211.54 219.16 211.54 218C211.54 217.12 211.696 216.3 212.008 215.54C212.32 214.772 212.748 214.1 213.292 213.524C213.844 212.94 214.484 212.484 215.212 212.156C215.94 211.828 216.716 211.664 217.54 211.664C218.46 211.664 219.304 211.856 220.072 212.24C220.84 212.616 221.496 213.14 222.04 213.812C222.584 214.476 222.984 215.244 223.24 216.116C223.496 216.98 223.572 217.9 223.468 218.876H214.216C214.32 219.428 214.52 219.928 214.816 220.376C215.12 220.816 215.504 221.164 215.968 221.42C216.44 221.676 216.964 221.808 217.54 221.816C218.148 221.816 218.7 221.664 219.196 221.36C219.7 221.056 220.112 220.636 220.432 220.1L222.964 220.688C222.484 221.752 221.76 222.624 220.792 223.304C219.824 223.976 218.74 224.312 217.54 224.312ZM214.132 216.968H220.948C220.868 216.392 220.664 215.872 220.336 215.408C220.016 214.936 219.612 214.564 219.124 214.292C218.644 214.012 218.116 213.872 217.54 213.872C216.972 213.872 216.444 214.008 215.956 214.28C215.476 214.552 215.076 214.924 214.756 215.396C214.444 215.86 214.236 216.384 214.132 216.968ZM231.792 214.496H229.272L229.26 224H226.764L226.776 214.496H224.868V212H226.776L226.764 208.232H229.26L229.272 212H231.792V214.496Z" fill="black"/>
<defs>
<filter id="filter0_d_152_24798" x="125.943" y="119.925" width="104.163" height="29.8553" filterUnits="userSpaceOnUse" color-interpolation-filters="sRGB">
<feFlood flood-opacity="0" result="BackgroundImageFix"/>
<feColorMatrix in="SourceAlpha" type="matrix" values="0 0 0 0 0 0 0 0 0 0 0 0 0 0 0 0 0 0 127 0" result="hardAlpha"/>
<feOffset dy="1.55296"/>
<feGaussianBlur stdDeviation="1.55296"/>
<feColorMatrix type="matrix" values="0 0 0 0 0 0 0 0 0 0 0 0 0 0 0 0 0 0 0.161 0"/>
<feBlend mode="normal" in2="BackgroundImageFix" result="effect1_dropShadow_152_24798"/>
<feBlend mode="normal" in="SourceGraphic" in2="effect1_dropShadow_152_24798" result="shape"/>
</filter>
<filter id="filter1_d_152_24798" x="96.8931" y="148.973" width="104.163" height="29.8553" filterUnits="userSpaceOnUse" color-interpolation-filters="sRGB">
<feFlood flood-opacity="0" result="BackgroundImageFix"/>
<feColorMatrix in="SourceAlpha" type="matrix" values="0 0 0 0 0 0 0 0 0 0 0 0 0 0 0 0 0 0 127 0" result="hardAlpha"/>
<feOffset dy="1.55296"/>
<feGaussianBlur stdDeviation="1.55296"/>
<feColorMatrix type="matrix" values="0 0 0 0 0 0 0 0 0 0 0 0 0 0 0 0 0 0 0.161 0"/>
<feBlend mode="normal" in2="BackgroundImageFix" result="effect1_dropShadow_152_24798"/>
<feBlend mode="normal" in="SourceGraphic" in2="effect1_dropShadow_152_24798" result="shape"/>
</filter>
<filter id="filter2_d_152_24798" x="96.8931" y="42.447" width="104.163" height="29.8553" filterUnits="userSpaceOnUse" color-interpolation-filters="sRGB">
<feFlood flood-opacity="0" result="BackgroundImageFix"/>
<feColorMatrix in="SourceAlpha" type="matrix" values="0 0 0 0 0 0 0 0 0 0 0 0 0 0 0 0 0 0 127 0" result="hardAlpha"/>
<feOffset dy="1.55296"/>
<feGaussianBlur stdDeviation="1.55296"/>
<feColorMatrix type="matrix" values="0 0 0 0 0 0 0 0 0 0 0 0 0 0 0 0 0 0 0.161 0"/>
<feBlend mode="normal" in2="BackgroundImageFix" result="effect1_dropShadow_152_24798"/>
<feBlend mode="normal" in="SourceGraphic" in2="effect1_dropShadow_152_24798" result="shape"/>
</filter>
<linearGradient id="paint0_linear_152_24798" x1="211.651" y1="77.8824" x2="211.651" y2="90.7174" gradientUnits="userSpaceOnUse">
<stop stop-color="#00DBFF"/>
<stop offset="1" stop-color="#10A5F5"/>
</linearGradient>
<linearGradient id="paint1_linear_152_24798" x1="163.5" y1="68" x2="163.5" y2="110" gradientUnits="userSpaceOnUse">
<stop stop-color="#00DBFF"/>
<stop offset="1" stop-color="#10A5F5"/>
</linearGradient>
<linearGradient id="paint2_linear_152_24798" x1="149.651" y1="126.882" x2="149.651" y2="139.717" gradientUnits="userSpaceOnUse">
<stop stop-color="#00DBFF"/>
<stop offset="1" stop-color="#10A5F5"/>
</linearGradient>
<linearGradient id="paint3_linear_152_24798" x1="111.82" y1="155.931" x2="111.82" y2="168.766" gradientUnits="userSpaceOnUse">
<stop stop-color="#00DBFF"/>
<stop offset="1" stop-color="#10A5F5"/>
</linearGradient>
<linearGradient id="paint4_linear_152_24798" x1="120.603" y1="49.4047" x2="120.603" y2="62.2397" gradientUnits="userSpaceOnUse">
<stop stop-color="#00DBFF"/>
<stop offset="1" stop-color="#10A5F5"/>
</linearGradient>
</defs>
</svg>
