<svg width="40" height="41" viewBox="0 0 40 41" fill="none" xmlns="http://www.w3.org/2000/svg">
<path d="M0 8.5C0 4.08172 3.58172 0.5 8 0.5H32C36.4183 0.5 40 4.08172 40 8.5V32.5C40 36.9183 36.4183 40.5 32 40.5H8C3.58172 40.5 0 36.9183 0 32.5V8.5Z" fill="url(#paint0_linear_152_22403)"/>
<path fill-rule="evenodd" clip-rule="evenodd" d="M25.5247 15.9953C25.7841 15.9953 26 16.2106 26 16.4846V16.738C26 17.0053 25.7841 17.2273 25.5247 17.2273H14.4759C14.2159 17.2273 14 17.0053 14 16.738V16.4846C14 16.2106 14.2159 15.9953 14.4759 15.9953H16.4197C16.8146 15.9953 17.1582 15.7146 17.247 15.3187L17.3488 14.864C17.507 14.2447 18.0277 13.8333 18.6235 13.8333H21.3765C21.9659 13.8333 22.4923 14.2447 22.6447 14.8313L22.7536 15.318C22.8418 15.7146 23.1854 15.9953 23.5809 15.9953H25.5247ZM24.5372 25.256C24.7402 23.3647 25.0955 18.8714 25.0955 18.8261C25.1084 18.6887 25.0637 18.5588 24.9749 18.4541C24.8796 18.3561 24.759 18.2981 24.626 18.2981H15.379C15.2455 18.2981 15.1184 18.3561 15.0302 18.4541C14.9407 18.5588 14.8966 18.6887 14.9031 18.8261C14.9043 18.8344 14.9171 18.9927 14.9384 19.2573C15.0331 20.4328 15.2968 23.7068 15.4672 25.256C15.5878 26.3973 16.3367 27.1147 17.4214 27.1407C18.2584 27.16 19.1207 27.1667 20.0025 27.1667C20.8331 27.1667 21.6766 27.16 22.5396 27.1407C23.6619 27.1213 24.4101 26.4167 24.5372 25.256Z" fill="white"/>
<defs>
<linearGradient id="paint0_linear_152_22403" x1="34.6789" y1="0.500001" x2="9.02537" y2="21.0024" gradientUnits="userSpaceOnUse">
<stop stop-color="#FF9595"/>
<stop offset="1" stop-color="#FF5C5C"/>
</linearGradient>
</defs>
</svg>
