<svg width="78" height="32" viewBox="0 0 78 32" fill="none" xmlns="http://www.w3.org/2000/svg">
<path d="M0 8C0 3.58172 3.58172 0 8 0H70C74.4183 0 78 3.58172 78 8V24C78 28.4183 74.4183 32 70 32H8C3.58172 32 0 28.4183 0 24V8Z" fill="#E9FBFF"/>
<path d="M15.3333 10.6667H10.6666C10.313 10.6667 9.97382 10.8071 9.72378 11.0572C9.47373 11.3072 9.33325 11.6464 9.33325 12V21.3333C9.33325 21.687 9.47373 22.0261 9.72378 22.2761C9.97382 22.5262 10.313 22.6667 10.6666 22.6667H19.9999C20.3535 22.6667 20.6927 22.5262 20.9427 22.2761C21.1928 22.0261 21.3333 21.687 21.3333 21.3333V16.6667M20.3333 9.66667C20.5985 9.40145 20.9582 9.25246 21.3333 9.25246C21.7083 9.25246 22.068 9.40145 22.3333 9.66667C22.5985 9.93189 22.7475 10.2916 22.7475 10.6667C22.7475 11.0417 22.5985 11.4015 22.3333 11.6667L15.9999 18L13.3333 18.6667L13.9999 16L20.3333 9.66667Z" stroke="url(#paint0_linear_111_33611)" stroke-width="2" stroke-linecap="round" stroke-linejoin="round"/>
<path d="M33.4815 22V10.3636H40.777V11.875H35.2372V15.4205H40.3963V16.9261H35.2372V20.4886H40.8452V22H33.4815ZM46.2528 22.1705C45.5483 22.1705 44.9195 21.9905 44.3665 21.6307C43.8172 21.267 43.3854 20.75 43.071 20.0795C42.7604 19.4053 42.6051 18.5966 42.6051 17.6534C42.6051 16.7102 42.7623 15.9034 43.0767 15.233C43.3949 14.5625 43.8305 14.0492 44.3835 13.6932C44.9366 13.3371 45.5634 13.1591 46.2642 13.1591C46.8059 13.1591 47.2415 13.25 47.571 13.4318C47.9044 13.6098 48.1619 13.8182 48.3438 14.0568C48.5294 14.2955 48.6733 14.5057 48.7756 14.6875H48.8778V10.3636H50.5767V22H48.9176V20.642H48.7756C48.6733 20.8277 48.5256 21.0398 48.3324 21.2784C48.143 21.517 47.8816 21.7254 47.5483 21.9034C47.215 22.0814 46.7831 22.1705 46.2528 22.1705ZM46.6278 20.7216C47.1165 20.7216 47.5294 20.5928 47.8665 20.3352C48.2074 20.0739 48.465 19.7121 48.6392 19.25C48.8172 18.7879 48.9062 18.25 48.9062 17.6364C48.9062 17.0303 48.8191 16.5 48.6449 16.0455C48.4706 15.5909 48.215 15.2367 47.8778 14.983C47.5407 14.7292 47.1241 14.6023 46.6278 14.6023C46.1165 14.6023 45.6903 14.7348 45.3494 15C45.0085 15.2652 44.7509 15.6269 44.5767 16.0852C44.4063 16.5436 44.321 17.0606 44.321 17.6364C44.321 18.2197 44.4081 18.7443 44.5824 19.2102C44.7566 19.6761 45.0142 20.0455 45.3551 20.3182C45.6998 20.5871 46.1241 20.7216 46.6278 20.7216ZM53.0014 22V13.2727H54.7003V22H53.0014ZM53.8594 11.9261C53.5639 11.9261 53.3101 11.8277 53.098 11.6307C52.8897 11.4299 52.7855 11.1913 52.7855 10.9148C52.7855 10.6345 52.8897 10.3958 53.098 10.1989C53.3101 9.99811 53.5639 9.89773 53.8594 9.89773C54.1548 9.89773 54.4067 9.99811 54.6151 10.1989C54.8272 10.3958 54.9332 10.6345 54.9332 10.9148C54.9332 11.1913 54.8272 11.4299 54.6151 11.6307C54.4067 11.8277 54.1548 11.9261 53.8594 11.9261ZM61.0597 13.2727V14.6364H56.2926V13.2727H61.0597ZM57.571 11.1818H59.2699V19.4375C59.2699 19.767 59.3191 20.0152 59.4176 20.1818C59.5161 20.3447 59.643 20.4564 59.7983 20.517C59.9574 20.5739 60.1297 20.6023 60.3153 20.6023C60.4517 20.6023 60.571 20.5928 60.6733 20.5739C60.7756 20.5549 60.8551 20.5398 60.9119 20.5284L61.2188 21.9318C61.1203 21.9697 60.9801 22.0076 60.7983 22.0455C60.6165 22.0871 60.3892 22.1098 60.1165 22.1136C59.6695 22.1212 59.2528 22.0417 58.8665 21.875C58.4801 21.7083 58.1676 21.4508 57.929 21.1023C57.6903 20.7538 57.571 20.3163 57.571 19.7898V11.1818Z" fill="url(#paint1_linear_111_33611)"/>
<defs>
<linearGradient id="paint0_linear_111_33611" x1="16.0404" y1="9.25246" x2="16.0404" y2="22.6667" gradientUnits="userSpaceOnUse">
<stop stop-color="#00DBFF"/>
<stop offset="1" stop-color="#10A5F5"/>
</linearGradient>
<linearGradient id="paint1_linear_111_33611" x1="47" y1="8" x2="47" y2="24" gradientUnits="userSpaceOnUse">
<stop stop-color="#00DBFF"/>
<stop offset="1" stop-color="#10A5F5"/>
</linearGradient>
</defs>
</svg>
