<svg width="107" height="106" viewBox="0 0 107 106" fill="none" xmlns="http://www.w3.org/2000/svg">
<path d="M2.87337 31.8609C6.45064 14.6966 17.4576 5.13673 34.6265 2.24876C47.3183 0.114341 60.0148 0.0873107 72.6853 2.3087C90.3631 5.40774 100.99 15.5252 104.376 32.9489C106.991 46.4145 107.032 60.0237 104.335 73.4766C100.716 90.5219 89.4248 101.044 72.3192 103.921C59.6274 106.055 46.9309 106.082 34.2604 103.861C16.5826 100.762 5.90816 90.1392 2.5229 72.7158C-0.226126 59.1613 0.0383846 45.4661 2.87337 31.8606V31.8609Z" fill="url(#paint0_linear_307_5801)"/>
<path fill-rule="evenodd" clip-rule="evenodd" d="M22.3255 77.7393V33.4991C22.3255 31.1915 24.2054 29.3205 26.5242 29.3205H84.4926V33.7814H26.808V77.7393H22.3255ZM35.6635 41.2508L51.8145 57.7522C52.9126 58.9228 54.7522 58.998 55.9434 57.9215C55.9434 57.9215 70.0033 45.4839 73.9171 42.144C77.8307 38.804 84.4924 39.7395 84.4924 44.7142V68.3449C84.4924 73.5335 80.2663 77.7393 75.0529 77.7393H33.9964V73.2787H74.9733C77.7547 73.2787 80.0101 71.034 80.0101 68.2655V45.6976C80.0101 44.0257 78.8441 44.1992 78.1106 44.8538L57.2154 62.8017C55.1407 64.6538 51.9583 64.5114 50.059 62.4813L32.388 44.296L35.6635 41.2508Z" fill="white"/>
<defs>
<linearGradient id="paint0_linear_307_5801" x1="53.4728" y1="0.645279" x2="53.4728" y2="105.524" gradientUnits="userSpaceOnUse">
<stop stop-color="#00DBFF"/>
<stop offset="1" stop-color="#10A5F5"/>
</linearGradient>
</defs>
</svg>
