<svg width="15" height="12" viewBox="0 0 15 12" fill="none" xmlns="http://www.w3.org/2000/svg">
<path d="M1.49967 0H13.4997C13.6765 0 13.8461 0.0702379 13.9711 0.195262C14.0961 0.320286 14.1663 0.489856 14.1663 0.666667V11.3333C14.1663 11.5101 14.0961 11.6797 13.9711 11.8047C13.8461 11.9298 13.6765 12 13.4997 12H1.49967C1.32286 12 1.15329 11.9298 1.02827 11.8047C0.903246 11.6797 0.833008 11.5101 0.833008 11.3333V0.666667C0.833008 0.489856 0.903246 0.320286 1.02827 0.195262C1.15329 0.0702379 1.32286 0 1.49967 0ZM12.833 2.82533L7.54767 7.55867L2.16634 2.81067V10.6667H12.833V2.82533ZM2.50701 1.33333L7.54034 5.77467L12.501 1.33333H2.50701Z" fill="#192252"/>
</svg>
