<svg width="21" height="20" viewBox="0 0 21 20" fill="none" xmlns="http://www.w3.org/2000/svg">
<path d="M20.4997 10.2222C20.4997 9.4 20.4317 8.80001 20.2843 8.1778H10.7039V11.8888H16.3274C16.214 12.8111 15.6018 14.2 14.2412 15.1333L14.2222 15.2575L17.2513 17.5572L17.4612 17.5778C19.3886 15.8333 20.4997 13.2666 20.4997 10.2222Z" fill="url(#paint0_linear_283_3704)"/>
<path d="M10.704 20C13.4591 20 15.772 19.1111 17.4613 17.5778L14.2414 15.1333C13.3797 15.7222 12.2232 16.1333 10.704 16.1333C8.00563 16.1333 5.71541 14.3889 4.89901 11.9778L4.77934 11.9878L1.62957 14.3767L1.58838 14.4889C3.26636 17.7555 6.71307 20 10.704 20Z" fill="#34A853"/>
<path d="M4.89903 11.9777C4.68362 11.3555 4.55895 10.6888 4.55895 9.99996C4.55895 9.31103 4.68362 8.64439 4.8877 8.02218L4.88199 7.88966L1.69275 5.4624L1.5884 5.51104C0.896828 6.86661 0.5 8.38886 0.5 9.99996C0.5 11.6111 0.896828 13.1332 1.5884 14.4888L4.89903 11.9777Z" fill="#FFBA55"/>
<path d="M10.704 3.86662C12.6201 3.86662 13.9126 4.67773 14.6496 5.35555L17.5293 2.59999C15.7607 0.988889 13.4591 0 10.704 0C6.71307 0 3.26636 2.24442 1.58838 5.51104L4.88767 8.02218C5.71541 5.61108 8.00563 3.86662 10.704 3.86662Z" fill="#EB4335"/>
<defs>
<linearGradient id="paint0_linear_283_3704" x1="19.1966" y1="8.1778" x2="13.1179" y2="13.2405" gradientUnits="userSpaceOnUse">
<stop stop-color="#00DBFF"/>
<stop offset="1" stop-color="#10A5F5"/>
</linearGradient>
</defs>
</svg>
