<svg width="40" height="40" viewBox="0 0 40 40" fill="none" xmlns="http://www.w3.org/2000/svg">
<path d="M20 23.3333V26.6667C17.3478 26.6667 14.8043 27.7202 12.9289 29.5956C11.0535 31.4709 9.99996 34.0145 9.99996 36.6667H6.66663C6.66663 33.1304 8.07138 29.739 10.5719 27.2386C13.0724 24.7381 16.4637 23.3333 20 23.3333ZM20 21.6667C14.475 21.6667 9.99996 17.1917 9.99996 11.6667C9.99996 6.14166 14.475 1.66666 20 1.66666C25.525 1.66666 30 6.14166 30 11.6667C30 17.1917 25.525 21.6667 20 21.6667ZM20 18.3333C23.6833 18.3333 26.6666 15.35 26.6666 11.6667C26.6666 7.98332 23.6833 4.99999 20 4.99999C16.3166 4.99999 13.3333 7.98332 13.3333 11.6667C13.3333 15.35 16.3166 18.3333 20 18.3333ZM35.7433 33.3867L38.25 35.8933L35.8933 38.25L33.3866 35.7433C31.9889 36.5675 30.3385 36.8536 28.7449 36.5479C27.1513 36.2423 25.7239 35.366 24.7302 34.0832C23.7365 32.8004 23.2448 31.1992 23.3472 29.5798C23.4496 27.9604 24.1391 26.4339 25.2865 25.2865C26.4339 24.1392 27.9604 23.4496 29.5798 23.3472C31.1992 23.2448 32.8003 23.7365 34.0831 24.7302C35.3659 25.7239 36.2423 27.1513 36.5479 28.7449C36.8535 30.3385 36.5674 31.9889 35.7433 33.3867ZM30 33.3333C30.884 33.3333 31.7319 32.9821 32.357 32.357C32.9821 31.7319 33.3333 30.884 33.3333 30C33.3333 29.1159 32.9821 28.2681 32.357 27.643C31.7319 27.0178 30.884 26.6667 30 26.6667C29.1159 26.6667 28.2681 27.0178 27.6429 27.643C27.0178 28.2681 26.6666 29.1159 26.6666 30C26.6666 30.884 27.0178 31.7319 27.6429 32.357C28.2681 32.9821 29.1159 33.3333 30 33.3333Z" fill="#884AF6"/>
</svg>
