<svg width="40" height="40" viewBox="0 0 40 40" fill="none" xmlns="http://www.w3.org/2000/svg">
<g clip-path="url(#clip0_111_15568)">
<path d="M3.75 23.125V38.125H36.25V15L20 1.25L3.75 14.375V23.125Z" fill="white"/>
<path opacity="0.1" d="M20 1.25L18.0813 2.8L32.5 15V38.125H36.25V15L20 1.25Z" fill="#090A0A"/>
<path d="M16.25 21.25H23.75C24.413 21.25 25.0489 21.5134 25.5178 21.9822C25.9866 22.4511 26.25 23.087 26.25 23.75V38.75H13.75V23.75C13.75 23.087 14.0134 22.4511 14.4822 21.9822C14.9511 21.5134 15.587 21.25 16.25 21.25Z" fill="url(#paint0_linear_111_15568)"/>
<path opacity="0.1" d="M23.75 21.25H20C20.663 21.25 21.2989 21.5134 21.7678 21.9822C22.2366 22.4511 22.5 23.087 22.5 23.75V38.75H26.25V23.75C26.25 23.087 25.9866 22.4511 25.5178 21.9822C25.0489 21.5134 24.413 21.25 23.75 21.25Z" fill="#090A0A"/>
<path d="M18.75 31.25C19.4404 31.25 20 30.6904 20 30C20 29.3096 19.4404 28.75 18.75 28.75C18.0596 28.75 17.5 29.3096 17.5 30C17.5 30.6904 18.0596 31.25 18.75 31.25Z" fill="white"/>
<path d="M39.55 15.2875L33.125 9.9375V5.625C33.125 5.29348 32.9933 4.97554 32.7589 4.74112C32.5244 4.5067 32.2065 4.375 31.875 4.375C31.5435 4.375 31.2255 4.5067 30.9911 4.74112C30.7567 4.97554 30.625 5.29348 30.625 5.625V7.85L22.4 1C21.7261 0.438753 20.8769 0.131409 20 0.131409C19.123 0.131409 18.2738 0.438753 17.6 1L0.449978 15.2875C0.194707 15.4997 0.0341771 15.8046 0.00370247 16.1351C-0.0267722 16.4656 0.075305 16.7947 0.287478 17.05C0.499651 17.3053 0.80454 17.4658 1.13507 17.4963C1.46561 17.5268 1.79471 17.4247 2.04998 17.2125L19.2 2.91875C19.4246 2.73167 19.7077 2.62922 20 2.62922C20.2923 2.62922 20.5754 2.73167 20.8 2.91875L35 14.75V36.25C35 36.5815 34.8683 36.8995 34.6339 37.1339C34.3994 37.3683 34.0815 37.5 33.75 37.5H27.5V23.75C27.5 22.7554 27.1049 21.8016 26.4016 21.0984C25.6984 20.3951 24.7445 20 23.75 20H16.25C15.2554 20 14.3016 20.3951 13.5983 21.0984C12.8951 21.8016 12.5 22.7554 12.5 23.75V37.5H6.24998C5.91846 37.5 5.60052 37.3683 5.3661 37.1339C5.13167 36.8995 4.99998 36.5815 4.99998 36.25V21.25C4.99998 20.9185 4.86828 20.6005 4.63386 20.3661C4.39944 20.1317 4.0815 20 3.74998 20C3.41846 20 3.10051 20.1317 2.86609 20.3661C2.63167 20.6005 2.49998 20.9185 2.49998 21.25V36.25C2.49998 37.2446 2.89507 38.1984 3.59833 38.9017C4.30159 39.6049 5.25542 40 6.24998 40H33.75C34.7445 40 35.6984 39.6049 36.4016 38.9017C37.1049 38.1984 37.5 37.2446 37.5 36.25V16.8375L37.95 17.2125C38.1749 17.3989 38.4579 17.5006 38.75 17.5C39.0074 17.5005 39.2586 17.4215 39.4695 17.2739C39.6803 17.1262 39.8404 16.9171 39.9279 16.6751C40.0155 16.433 40.0261 16.1698 39.9585 15.9215C39.8908 15.6731 39.7482 15.4517 39.55 15.2875ZM15 37.5V23.75C15 23.4185 15.1317 23.1005 15.3661 22.8661C15.6005 22.6317 15.9185 22.5 16.25 22.5H23.75C24.0815 22.5 24.3994 22.6317 24.6339 22.8661C24.8683 23.1005 25 23.4185 25 23.75V37.5H15Z" fill="black"/>
</g>
<defs>
<linearGradient id="paint0_linear_111_15568" x1="20" y1="21.25" x2="20" y2="38.75" gradientUnits="userSpaceOnUse">
<stop stop-color="#00DBFF"/>
<stop offset="1" stop-color="#10A5F5"/>
</linearGradient>
<clipPath id="clip0_111_15568">
<rect width="40" height="40" fill="white"/>
</clipPath>
</defs>
</svg>
