<svg width="192" height="97" viewBox="0 0 192 97" fill="none" xmlns="http://www.w3.org/2000/svg">
<path fill-rule="evenodd" clip-rule="evenodd" d="M95.2996 0.540629L95.026 0.790437L95.3427 0.57114C95.5168 0.450526 95.6593 0.338017 95.6593 0.321332C95.6593 0.245054 95.5512 0.310367 95.2996 0.540629ZM94.2885 1.32533L94.0527 1.58324L94.3688 1.35584C94.6979 1.11891 94.74 1.06742 94.6051 1.06742C94.5606 1.06742 94.4186 1.18374 94.2885 1.32533ZM97.5769 1.30197C97.7271 1.43069 97.8672 1.51936 97.8878 1.49839C97.9351 1.45167 97.4898 1.07505 97.3817 1.07076C97.3387 1.06885 97.4262 1.17278 97.5769 1.30197ZM98.5727 2.06999C98.821 2.3422 98.874 2.37605 98.8693 2.25639C98.8673 2.21635 98.7468 2.09955 98.6014 1.99705L98.3364 1.81112L98.5727 2.06999ZM92.0863 3.06588L91.8132 3.31712L92.1294 3.10784C92.4193 2.91571 92.514 2.81417 92.403 2.81417C92.3791 2.81417 92.2365 2.92763 92.0863 3.06588ZM99.5537 2.84945C99.5537 2.87614 99.6853 2.99151 99.846 3.10545C100.007 3.21939 100.138 3.2909 100.138 3.2642C100.138 3.23751 100.007 3.12261 99.846 3.0082C99.6853 2.89426 99.5537 2.82275 99.5537 2.84945ZM90.4501 4.3216C90.2893 4.4527 90.2052 4.56044 90.2626 4.56044C90.3204 4.56092 90.4701 4.45175 90.5959 4.31874C90.8844 4.01268 90.827 4.01363 90.4501 4.3216ZM102.575 5.21166C102.577 5.25409 102.686 5.36755 102.819 5.46337C102.951 5.5592 103.057 5.60306 103.056 5.56015C103.054 5.51772 102.944 5.40474 102.812 5.30891C102.68 5.21261 102.573 5.16923 102.575 5.21166ZM87.6266 6.56272C87.4515 6.71098 87.4156 6.7701 87.5371 6.71003C87.7156 6.62183 88.0504 6.30242 87.9547 6.31148C87.9346 6.31339 87.7873 6.42637 87.6266 6.56272ZM104.13 6.43257C104.13 6.45498 104.404 6.68 104.739 6.93219C105.073 7.18486 105.193 7.25351 105.006 7.08522C104.615 6.73387 104.13 6.3725 104.13 6.43257ZM86.2706 7.62011C86.1673 7.69782 86.1012 7.7803 86.1242 7.8027C86.1472 7.82559 86.2691 7.76027 86.3959 7.65825C86.6623 7.44325 86.5504 7.40892 86.2706 7.62011ZM85.2967 8.39671C85.1934 8.47442 85.1279 8.55642 85.1508 8.5793C85.1733 8.60171 85.2958 8.53687 85.4221 8.43437C85.6885 8.21937 85.5765 8.18552 85.2967 8.39671ZM106.578 8.43437C106.704 8.53687 106.826 8.60171 106.849 8.5793C106.899 8.52972 106.55 8.25608 106.432 8.25178C106.385 8.25035 106.451 8.33235 106.578 8.43437ZM84.3162 9.1776C83.9412 9.4746 83.5686 9.78734 83.4882 9.8722C83.3467 10.0219 84.2095 9.37401 84.8026 8.88489C85.3742 8.4134 84.9858 8.64747 84.3162 9.1776ZM107.294 8.95878C107.509 9.15138 107.72 9.31061 107.764 9.31252C107.808 9.3149 107.721 9.21717 107.57 9.0956C107.054 8.68227 106.904 8.6079 107.294 8.95878ZM108.512 9.92321C108.512 9.94323 108.643 10.0562 108.803 10.1744C108.964 10.2927 109.096 10.3542 109.096 10.3108C109.096 10.2669 108.964 10.1539 108.803 10.0596C108.643 9.96516 108.512 9.90367 108.512 9.92321ZM95.5546 11.3224L95.3183 11.5813L95.5828 11.3949C95.7287 11.2924 95.8492 11.1761 95.8507 11.136C95.8559 11.0164 95.8023 11.0497 95.5546 11.3224ZM94.5807 12.0985L94.3445 12.3579L94.6094 12.1715C94.7548 12.069 94.8754 11.9522 94.8773 11.9121C94.8821 11.793 94.829 11.8263 94.5807 12.0985ZM79.2026 13.2027C79.0696 13.3047 79.0046 13.3876 79.0581 13.3872C79.1868 13.3857 79.5427 13.1149 79.4877 13.0601C79.4642 13.0368 79.336 13.1006 79.2026 13.2027ZM112.504 13.0344C112.504 13.0582 112.664 13.2003 112.861 13.35C113.057 13.4992 113.187 13.5721 113.15 13.5116C113.073 13.3872 112.504 12.9672 112.504 13.0344ZM78.3278 13.9259C78.1465 14.0593 78.0393 14.1671 78.09 14.1652C78.1876 14.1614 78.8037 13.6846 78.7118 13.6837C78.6822 13.6837 78.5095 13.7924 78.3278 13.9259ZM99.9469 14.1361C99.9493 14.1804 100.153 14.3654 100.399 14.5461C100.646 14.7272 100.819 14.8288 100.784 14.7716C100.682 14.6076 99.9426 14.046 99.9469 14.1361ZM91.3674 14.6219L91.1316 14.8808L91.3961 14.6944C91.542 14.5919 91.6626 14.4755 91.664 14.4355C91.6693 14.3158 91.6157 14.3497 91.3674 14.6219ZM114.743 14.8202C114.743 14.9046 115.132 15.1725 115.181 15.1215C115.197 15.1043 115.106 15.0119 114.977 14.916C114.848 14.8202 114.743 14.7768 114.743 14.8202ZM90.5476 15.2526C89.6704 15.9505 89.7034 16.0001 90.5959 15.326C90.837 15.1444 91.0522 14.9842 91.0747 14.9704C91.0972 14.9561 91.0972 14.927 91.0747 14.9051C91.0522 14.8831 90.815 15.0395 90.5476 15.2526ZM100.923 14.9127C100.926 14.957 101.127 15.1377 101.37 15.3146C101.613 15.491 101.785 15.5925 101.753 15.5401C101.655 15.3837 100.916 14.8245 100.923 14.9127ZM115.327 15.2683C115.327 15.295 115.503 15.4552 115.716 15.6245C115.931 15.7932 116.106 15.91 116.106 15.8833C116.106 15.8566 115.931 15.6964 115.716 15.5272C115.503 15.358 115.327 15.2416 115.327 15.2683ZM89.2806 16.269C88.8922 16.6223 89.0376 16.5522 89.557 16.136C89.7082 16.0149 89.7952 15.9153 89.7508 15.9153C89.7058 15.9153 89.4944 16.0745 89.2806 16.269ZM102.443 16.136C102.958 16.5493 103.109 16.6242 102.718 16.2728C102.504 16.0802 102.293 15.921 102.248 15.9191C102.204 15.9172 102.292 16.0149 102.443 16.136ZM88.544 16.854L88.3082 17.1128L88.5727 16.9264C88.7181 16.8239 88.8386 16.7076 88.8405 16.6676C88.8453 16.5479 88.7922 16.5817 88.544 16.854ZM74.5008 16.9374C74.3506 17.069 74.2664 17.1772 74.3138 17.1772C74.3606 17.1772 74.5022 17.068 74.628 16.9345C74.9188 16.6256 74.8547 16.627 74.5008 16.9374ZM103.364 16.8773C103.491 16.9798 103.613 17.0446 103.636 17.0222C103.686 16.9727 103.337 16.699 103.219 16.6947C103.173 16.6933 103.238 16.7753 103.364 16.8773ZM117.597 17.0504C117.678 17.1819 118.443 17.7969 118.443 17.7307C118.443 17.7059 118.237 17.5171 117.985 17.3116C117.733 17.1057 117.558 16.9884 117.597 17.0504ZM87.5701 17.6301L87.3343 17.8894L87.5988 17.703C87.7447 17.6005 87.8653 17.4837 87.8667 17.4437C87.872 17.3245 87.8184 17.3579 87.5701 17.6301ZM105.072 18.2246C105.598 18.6403 106.182 19.0793 106.369 19.2004L106.71 19.4197L106.428 19.1961C106.273 19.0731 105.725 18.6341 105.211 18.2208C104.697 17.8079 104.24 17.4694 104.195 17.4689C104.151 17.4685 104.545 17.8084 105.072 18.2246ZM73.1783 17.9643C73.0501 18.0677 72.9625 18.1693 72.9836 18.1902C73.0042 18.2107 73.1261 18.143 73.2543 18.0396C73.3825 17.9361 73.47 17.8346 73.449 17.8136C73.4279 17.7931 73.306 17.8608 73.1783 17.9643ZM118.54 17.8284C118.54 17.9128 118.93 18.1807 118.978 18.1297C118.995 18.113 118.903 18.0205 118.774 17.9247C118.645 17.8284 118.54 17.7855 118.54 17.8284ZM86.4581 18.5015C86.1649 18.7628 86.1429 18.799 86.3691 18.6479C86.6384 18.4687 86.977 18.1416 86.8838 18.1511C86.8637 18.1531 86.6723 18.3109 86.4581 18.5015ZM72.2044 18.7351C72.0762 18.8415 71.9921 18.9492 72.0174 18.9745C72.0428 18.9993 72.1662 18.9111 72.2915 18.7781C72.5651 18.4877 72.5254 18.4687 72.2044 18.7351ZM119.806 18.8219C120.397 19.3492 121.267 20.0075 121.263 19.9251C121.26 19.8812 121.096 19.732 120.897 19.5928C120.699 19.4536 120.295 19.1547 120.001 18.9287C119.706 18.7027 119.618 18.6546 119.806 18.8219ZM85.5818 19.1785C85.4067 19.3268 85.3709 19.3859 85.4924 19.3258C85.6708 19.2376 86.0056 18.9182 85.9099 18.9273C85.8903 18.9292 85.7425 19.0422 85.5818 19.1785ZM70.9579 19.7558L70.6848 20.0056L71.001 19.7859C71.1751 19.6653 71.3176 19.5527 71.3176 19.5365C71.3176 19.4598 71.21 19.5256 70.9579 19.7558ZM84.5109 20.0504L84.121 20.398L84.5353 20.0895C84.8911 19.824 85.0198 19.6958 84.9246 19.7015C84.9112 19.7024 84.7247 19.8593 84.5109 20.0504ZM70.3543 20.1911C70.2266 20.2974 70.1424 20.4047 70.1673 20.4299C70.1926 20.4552 70.316 20.3665 70.4418 20.2335C70.715 19.9437 70.6757 19.9246 70.3543 20.1911ZM83.3835 20.9295L83.1477 21.1889L83.4122 21.0025C83.5581 20.9 83.6781 20.7832 83.68 20.7431C83.6848 20.624 83.6317 20.6573 83.3835 20.9295ZM108.32 20.7431C108.322 20.7832 108.442 20.9 108.588 21.0025L108.852 21.1889L108.616 20.9295C108.368 20.6573 108.315 20.624 108.32 20.7431ZM82.623 21.5007C82.3881 21.6847 82.2384 21.8353 82.2906 21.8353C82.3422 21.8353 82.5565 21.6842 82.766 21.4997C83.2563 21.0678 83.1745 21.0688 82.623 21.5007ZM68.8778 21.3772C68.321 21.8105 68.1766 21.9393 68.2115 21.9722C68.233 21.9927 68.4478 21.8396 68.6888 21.6313C69.0954 21.2804 69.2236 21.1078 68.8778 21.3772ZM123.262 21.5903C123.476 21.7743 123.689 21.9264 123.734 21.9283C123.779 21.9307 123.633 21.7791 123.409 21.5927C123.184 21.4058 122.972 21.2537 122.937 21.2542C122.901 21.2552 123.048 21.4063 123.262 21.5903ZM109.29 21.5159C109.29 21.6008 109.68 21.8687 109.728 21.8177C109.745 21.8005 109.653 21.7081 109.524 21.6122C109.395 21.5164 109.29 21.473 109.29 21.5159ZM81.7845 22.1834L81.4923 22.4336L81.8089 22.2248C81.983 22.1099 82.1251 21.997 82.1251 21.9741C82.1251 21.9016 82.0839 21.9269 81.7845 22.1834ZM67.7987 22.2286C67.5811 22.4179 67.5801 22.4232 67.7824 22.3254C67.9001 22.2687 68.023 22.1786 68.056 22.1257C68.1517 21.9712 68.0469 22.0132 67.7987 22.2286ZM123.895 22.0518C123.895 22.077 124.158 22.3035 124.479 22.5552C124.801 22.8064 125.062 22.9771 125.06 22.9333C125.058 22.8899 124.875 22.723 124.655 22.5628C124.434 22.4027 124.173 22.212 124.074 22.1385C123.976 22.0656 123.895 22.026 123.895 22.0518ZM110.786 22.6863C110.863 22.8107 111.433 23.2307 111.433 23.1635C111.433 23.1392 111.271 22.9976 111.075 22.8479C110.878 22.6987 110.748 22.6258 110.786 22.6863ZM80.8107 22.9633C80.6356 23.1116 80.5997 23.1707 80.7212 23.1106C80.9001 23.0224 81.2344 22.703 81.1393 22.7121C81.1192 22.714 80.9714 22.8269 80.8107 22.9633ZM66.15 23.5578L65.9137 23.8247L66.2059 23.5821C66.3666 23.4486 66.5164 23.3285 66.5384 23.3151C66.5608 23.3018 66.5355 23.2908 66.4824 23.2908C66.4293 23.2908 66.2796 23.4109 66.15 23.5578ZM125.58 23.3566C125.619 23.4195 125.835 23.6159 126.059 23.7933C126.284 23.9706 126.436 24.0641 126.397 24.0016C126.359 23.9387 126.143 23.7423 125.918 23.5649C125.693 23.3876 125.541 23.2937 125.58 23.3566ZM65.1943 24.2667C65.0661 24.373 64.9819 24.4807 65.0073 24.506C65.0322 24.5313 65.1556 24.4426 65.2814 24.3096C65.5545 24.0197 65.5153 24.0002 65.1943 24.2667ZM113.38 24.7458C113.771 25.0971 114.256 25.458 114.256 25.398C114.256 25.3756 113.982 25.151 113.648 24.8983C113.313 24.6462 113.192 24.5775 113.38 24.7458ZM78.0848 25.0881C77.8705 25.2721 77.7308 25.4237 77.7748 25.4242C77.8184 25.4251 78.0154 25.2735 78.213 25.0871C78.6726 24.6524 78.5913 24.6533 78.0848 25.0881ZM64.0263 25.1882C63.7914 25.3722 63.6417 25.5229 63.6938 25.5229C63.7455 25.5229 63.9598 25.3717 64.1693 25.1872C64.6596 24.7558 64.5773 24.7563 64.0263 25.1882ZM127.839 25.1725C128.053 25.3636 128.268 25.5205 128.317 25.5214C128.366 25.5224 128.388 25.5095 128.366 25.4928C128.344 25.4766 128.128 25.3198 127.887 25.1443L127.449 24.8249L127.839 25.1725ZM128.764 25.9043C128.951 26.0706 129.236 26.2966 129.396 26.4063C129.649 26.5784 129.642 26.5636 129.348 26.2999C129.16 26.1317 128.876 25.9057 128.715 25.7975C128.462 25.6278 128.469 25.6421 128.764 25.9043ZM77.0134 25.9681L76.7216 26.2179L77.0378 26.0096C77.2119 25.8947 77.3544 25.7817 77.3544 25.7589C77.3544 25.6864 77.3133 25.7117 77.0134 25.9681ZM76.3389 26.4468C76.2361 26.5245 76.1701 26.607 76.1931 26.6294C76.216 26.6523 76.338 26.5869 76.4643 26.4849C76.7307 26.2699 76.6188 26.2356 76.3389 26.4468ZM129.925 26.8162C130.173 27.0889 130.226 27.1223 130.221 27.0026C130.219 26.9626 130.099 26.8463 129.953 26.7438L129.689 26.5574L129.925 26.8162ZM61.9289 26.8348C61.8256 26.913 61.76 26.995 61.783 27.0174C61.806 27.0403 61.9279 26.9755 62.0542 26.873C62.3206 26.658 62.2087 26.6241 61.9289 26.8348ZM75.3995 27.2377L75.1637 27.4965L75.4282 27.3101C75.5736 27.2081 75.6942 27.0913 75.6961 27.0513C75.7009 26.9316 75.6478 26.9655 75.3995 27.2377ZM116.304 27.0513C116.306 27.0913 116.426 27.2081 116.572 27.3101L116.836 27.4965L116.6 27.2377C116.352 26.9655 116.299 26.9316 116.304 27.0513ZM74.2875 28.1091C73.9943 28.3699 73.9723 28.4062 74.1985 28.2555C74.4678 28.0763 74.806 27.7492 74.7132 27.7583C74.6931 27.7607 74.5013 27.9185 74.2875 28.1091ZM117.363 27.8827C117.513 28.071 118.053 28.4762 118.053 28.4004C118.053 28.3747 117.867 28.2088 117.64 28.0319C117.412 27.855 117.288 27.7878 117.363 27.8827ZM131.636 28.174C131.85 28.3666 132.062 28.5253 132.106 28.5277C132.15 28.5296 132.063 28.4319 131.911 28.3103C131.396 27.8975 131.245 27.8226 131.636 28.174ZM73.3136 28.8853C73.0204 29.1465 72.9984 29.1827 73.2247 29.0316C73.4939 28.8524 73.8326 28.5253 73.7393 28.5349C73.7192 28.5368 73.5279 28.6946 73.3136 28.8853ZM82.5632 28.7251C82.1007 28.7885 82.0959 28.7923 82.4661 28.7975C82.6804 28.8004 83.0965 28.7699 83.3912 28.7294C83.9182 28.6569 83.9197 28.6555 83.4882 28.6574C83.2472 28.6579 82.831 28.6889 82.5632 28.7251ZM86.2146 28.7294C86.5093 28.7699 86.9254 28.8018 87.1397 28.7999C87.5156 28.7966 87.5123 28.7937 87.0421 28.7208C86.7742 28.6793 86.3581 28.6474 86.117 28.6502L85.6789 28.6555L86.2146 28.7294ZM115.1 28.6931C115.064 28.7284 115.035 31.9816 115.035 35.9218V43.0862L109.363 43.1124L103.692 43.1382L109.411 43.1615L115.13 43.1849L115.155 35.9066C115.17 31.9035 115.177 28.6283 115.173 28.6283C115.168 28.6283 115.136 28.6574 115.1 28.6931ZM132.591 28.8896C132.673 29.0216 133.437 29.6361 133.437 29.5699C133.437 29.5451 133.231 29.3568 132.979 29.1508C132.727 28.9453 132.553 28.8276 132.591 28.8896ZM80.8107 29.0164C80.7394 29.1313 80.8351 29.1313 81.1029 29.0164C81.2904 28.9358 81.2899 28.9329 81.0843 28.9263C80.9671 28.9225 80.8437 28.963 80.8107 29.0164ZM88.2675 28.9544C88.3823 29.0531 88.8539 29.1117 88.797 29.0202C88.7626 28.9649 88.6205 28.9196 88.4808 28.9196C88.3412 28.9196 88.245 28.9348 88.2675 28.9544ZM58.7873 29.363L58.5137 29.6128L58.8304 29.3935C59.0045 29.2729 59.147 29.1603 59.147 29.1437C59.147 29.0674 59.0389 29.1327 58.7873 29.363ZM79.9832 29.2104C79.7828 29.2748 79.7742 29.2895 79.9344 29.2962C80.0415 29.301 80.1951 29.2624 80.2754 29.2104C80.4457 29.1007 80.3276 29.1007 79.9832 29.2104ZM89.3303 29.199C89.4107 29.2438 89.6297 29.3081 89.8172 29.341C90.0224 29.3773 90.0999 29.3687 90.0119 29.3191C89.9316 29.2743 89.7125 29.2099 89.525 29.177C89.3198 29.1408 89.2423 29.1494 89.3303 29.199ZM133.66 29.8287C133.725 29.9684 133.811 30.0828 133.851 30.0833C133.984 30.0847 133.927 29.9226 133.733 29.7477C133.546 29.5789 133.544 29.5808 133.66 29.8287ZM71.3473 30.4237C71.2832 30.4928 71.1737 30.5696 71.1038 30.5944C71.034 30.6191 70.9996 30.6644 71.0268 30.6949C71.0546 30.725 71.1851 30.6687 71.3176 30.5691C71.4497 30.4699 71.5367 30.3679 71.5109 30.3431C71.485 30.3178 71.4114 30.3541 71.3473 30.4237ZM58.8586 30.8418C58.8648 30.9428 59.6311 31.7685 59.677 31.7233C59.6985 31.7013 59.5225 31.4792 59.2857 31.2289C59.0485 30.9791 58.8567 30.8046 58.8586 30.8418ZM70.4026 31.1579C70.1936 31.3147 70.064 31.4425 70.1142 31.4425C70.1644 31.4425 70.3572 31.3133 70.5423 31.1555C70.9737 30.7879 70.8943 30.7893 70.4026 31.1579ZM132.426 31.5678C132.168 31.912 132.137 31.9793 132.328 31.779C132.815 31.2689 132.983 31.0544 132.892 31.0587C132.844 31.0606 132.634 31.2899 132.426 31.5678ZM94.442 31.2222C94.6319 31.4024 95.303 31.769 95.2317 31.6537C95.1915 31.5893 94.9758 31.4453 94.752 31.3333C94.5281 31.2217 94.3885 31.1717 94.442 31.2222ZM69.6139 31.7943C69.4388 31.943 69.403 32.0017 69.5244 31.9416C69.7029 31.8534 70.0377 31.534 69.942 31.5431C69.9219 31.545 69.7741 31.6579 69.6139 31.7943ZM60.3686 32.5046C61.0541 33.3027 61.4836 33.7627 61.4807 33.6965C61.4793 33.6578 61.1617 33.296 60.7747 32.8927C60.3882 32.4894 60.2055 32.3144 60.3686 32.5046ZM131.534 32.5342L131.149 32.9466L131.563 32.5633C131.79 32.3521 131.976 32.1666 131.976 32.1509C131.976 32.0775 131.892 32.1509 131.534 32.5342ZM123.553 49.9783C123.553 59.452 123.565 63.3278 123.579 58.591C123.593 53.8537 123.593 46.1025 123.579 41.3652C123.565 36.6284 123.553 40.5042 123.553 49.9783ZM130.827 33.3151C130.656 33.4915 130.516 33.6659 130.516 33.7036C130.516 33.7718 130.697 33.6016 131.042 33.2068C131.329 32.8798 131.176 32.957 130.827 33.3151ZM67.4338 33.4915C67.3056 33.5949 67.218 33.6965 67.2386 33.717C67.2597 33.7379 67.3816 33.6702 67.5098 33.5668C67.638 33.4633 67.7255 33.3618 67.7045 33.3408C67.6834 33.3203 67.5615 33.388 67.4338 33.4915ZM124.501 33.5353C124.646 33.6864 124.788 33.787 124.816 33.7594C124.844 33.7317 124.725 33.6083 124.551 33.4853L124.236 33.2612L124.501 33.5353ZM71.7003 33.6864C71.5166 33.8533 71.4544 33.9448 71.5621 33.8895C71.7539 33.7918 72.1719 33.3832 72.0805 33.3832C72.0552 33.3832 71.884 33.5201 71.7003 33.6864ZM124.966 33.8995C124.966 33.9434 125.921 34.6866 126.277 34.9207C126.58 35.119 125.849 34.4964 125.38 34.1565C125.152 33.9916 124.966 33.8757 124.966 33.8995ZM66.4628 34.2652C66.3365 34.3672 66.2705 34.4497 66.3169 34.4478C66.4355 34.4435 66.7842 34.1703 66.7345 34.1207C66.7115 34.0979 66.5891 34.1632 66.4628 34.2652ZM70.5265 34.8153C70.2649 35.1081 70.1161 35.3245 70.1764 35.3245C70.1974 35.3245 70.372 35.1495 70.5643 34.936C70.7566 34.7229 70.8805 34.5479 70.8398 34.5479C70.7991 34.5479 70.658 34.6685 70.5265 34.8153ZM62.8955 35.3245C63.1046 35.5381 63.2978 35.7126 63.3246 35.7126C63.3514 35.7126 63.2021 35.5381 62.9926 35.3245C62.7836 35.1109 62.5904 34.936 62.5636 34.936C62.5373 34.936 62.6865 35.1109 62.8955 35.3245ZM126.784 35.3507C127.3 35.764 127.45 35.8389 127.059 35.4875C126.846 35.2949 126.634 35.1357 126.59 35.1338C126.545 35.1319 126.633 35.2296 126.784 35.3507ZM64.8915 35.5304C64.5519 35.827 64.5519 35.827 64.8643 35.6201C65.0365 35.5057 65.2034 35.3707 65.235 35.3197C65.3292 35.1681 65.2512 35.2163 64.8915 35.5304ZM69.7009 35.8336C69.2748 36.3242 69.148 36.4887 69.1973 36.4887C69.226 36.4887 69.4111 36.2923 69.6086 36.052C69.9741 35.6072 70.0468 35.4365 69.7009 35.8336ZM127.595 36.0086C127.933 36.237 128.125 36.3032 127.887 36.1092C127.753 36 127.6 35.9104 127.546 35.9104C127.493 35.9099 127.515 35.9543 127.595 36.0086ZM68.8132 36.9983C68.6228 37.2438 68.5578 37.3945 68.6731 37.3234C68.7883 37.2524 69.0194 36.8772 68.9476 36.8772C68.9256 36.8772 68.8649 36.9316 68.8132 36.9983ZM83.9264 37.4545C83.6863 37.4946 84.0034 37.5218 84.7543 37.5251C85.643 37.5289 85.853 37.5098 85.533 37.4536C85.0203 37.3635 84.4712 37.364 83.9264 37.4545ZM82.534 37.6519C82.3575 37.6939 82.1853 37.7554 82.1518 37.7887C82.0696 37.8707 82.7201 37.7449 82.9042 37.6428C83.0783 37.5466 82.9693 37.5494 82.534 37.6519ZM86.7015 37.6428C86.7819 37.6881 87.023 37.7525 87.2368 37.7849C87.4826 37.8226 87.5544 37.8145 87.4319 37.7635C87.1468 37.6452 86.5246 37.5423 86.7015 37.6428ZM90.4988 39.1484C90.4988 39.1751 90.6959 39.3319 90.937 39.4973C91.178 39.6628 91.3751 39.7758 91.3751 39.7491C91.3751 39.7224 91.178 39.5655 90.937 39.4001C90.6959 39.2351 90.4988 39.1217 90.4988 39.1484ZM78.4741 39.5541L78.1819 39.8044L78.4985 39.5955C78.6726 39.4811 78.8147 39.3681 78.8147 39.3453C78.8147 39.2723 78.7735 39.2976 78.4741 39.5541ZM92.248 40.6134C93.2333 41.6717 93.3046 41.7404 92.9574 41.2927C92.7914 41.0791 92.4016 40.6644 92.0907 40.3707C91.6123 39.9188 91.6363 39.956 92.248 40.6134ZM77.0091 40.8803L76.624 41.2927L77.0378 40.9089C77.4228 40.5523 77.4964 40.4675 77.4228 40.4675C77.407 40.4675 77.2205 40.6534 77.0091 40.8803ZM76.0888 42.0202C75.974 42.1804 75.9022 42.3115 75.929 42.3115C75.9558 42.3115 76.0716 42.1804 76.1859 42.0202C76.3002 41.8605 76.3719 41.7294 76.3452 41.7294C76.3184 41.7294 76.2031 41.8605 76.0888 42.0202ZM80.0482 43.1525C79.9583 43.2421 79.966 46.8505 80.0564 46.9062C80.0965 46.931 80.1166 46.1049 80.1008 45.0704L80.0726 43.1892L81.951 43.1606L83.8293 43.132L81.971 43.11C80.9494 43.0976 80.0836 43.1172 80.0482 43.1525ZM85.7927 43.1525C85.7028 43.2421 85.7105 46.8505 85.8009 46.9062C85.841 46.931 85.8611 46.102 85.8454 45.0642L85.8171 43.1768L87.7108 43.2054C88.752 43.2206 89.5838 43.2006 89.559 43.1606C89.503 43.0709 85.8827 43.0628 85.7927 43.1525ZM65.9209 43.4347C65.885 43.5767 65.8773 43.715 65.9041 43.7417C65.9309 43.7684 65.9821 43.674 66.018 43.5315C66.0538 43.3894 66.0615 43.2511 66.0347 43.2244C66.0079 43.1977 65.9567 43.2921 65.9209 43.4347ZM65.731 44.3047C65.6975 44.3915 65.675 44.5569 65.6803 44.6728C65.6865 44.8058 65.7195 44.7586 65.7702 44.544C65.8553 44.1836 65.8324 44.042 65.731 44.3047ZM94.8467 45.0289C94.8797 45.2158 94.9438 45.4341 94.9892 45.5142C95.039 45.6019 95.0476 45.5242 95.0112 45.3202C94.9777 45.1333 94.9136 44.9149 94.8687 44.8348C94.8189 44.7471 94.8103 44.8244 94.8467 45.0289ZM74.4453 45.9509C74.4372 46.0577 74.408 46.2541 74.3807 46.3876L74.3305 46.6302L74.4348 46.3919C74.4922 46.2612 74.5214 46.0643 74.4994 45.9552C74.4611 45.7616 74.4597 45.7616 74.4453 45.9509ZM95.0916 46.0476C95.0897 46.1544 95.126 46.3294 95.1724 46.4362C95.2791 46.6831 95.2791 46.4281 95.1724 46.0963C95.1097 45.9013 95.094 45.8918 95.0916 46.0476ZM65.4406 46.5573C65.3612 47.0359 65.3742 48.745 65.4617 49.299C65.5014 49.5516 65.5291 48.99 65.5272 47.9646C65.5239 46.0109 65.5263 46.0434 65.4406 46.5573ZM74.2698 47.9403C74.2698 48.2873 74.2875 48.4289 74.309 48.2554C74.3305 48.0823 74.3305 47.7982 74.309 47.6247C74.2875 47.4512 74.2698 47.5932 74.2698 47.9403ZM80.0425 48.9672C80.01 49.0515 79.9928 49.9359 80.0042 50.9323L80.0253 52.7438L80.0774 50.8517L80.1291 48.9591L81.9792 48.9076L83.8293 48.8556L81.9653 48.8346C80.3429 48.8165 80.0937 48.8337 80.0425 48.9672ZM86.5069 48.8799C88.0556 48.95 89.6006 48.9529 89.559 48.8866C89.5341 48.8465 88.6946 48.8222 87.6936 48.8327C86.6929 48.8432 86.1586 48.8647 86.5069 48.8799ZM85.7731 50.8517L85.7765 52.7438L87.6194 52.7705C88.6329 52.7848 89.4963 52.7629 89.5374 52.7219C89.579 52.6804 88.7616 52.6595 87.7213 52.6752L85.8296 52.7033L85.7994 50.8312L85.7698 48.9591L85.7731 50.8517ZM95.1289 49.5469C95.0925 49.7414 95.082 49.9202 95.1054 49.944C95.1294 49.9678 95.1791 49.8277 95.2155 49.6332C95.2523 49.4382 95.2628 49.2594 95.2389 49.236C95.215 49.2122 95.1657 49.3519 95.1289 49.5469ZM74.3999 49.6384C74.4324 49.852 74.4754 50.0451 74.495 50.067C74.5687 50.1504 74.5132 49.6308 74.4286 49.4444C74.3673 49.309 74.3587 49.3681 74.3999 49.6384ZM65.6817 51.2398C65.6769 51.3732 65.7157 51.5477 65.7678 51.6278C65.8879 51.8133 65.8879 51.614 65.7678 51.2398L65.6898 50.9971L65.6817 51.2398ZM65.9247 52.3558C66.0046 52.7124 66.0605 52.7901 66.0581 52.5417C66.0577 52.4392 66.0122 52.29 65.9582 52.2104C65.8859 52.1041 65.8769 52.1432 65.9247 52.3558ZM81.0838 52.7677C81.6085 52.7853 82.4412 52.7853 82.9334 52.7677C83.4261 52.75 82.9965 52.7357 81.9792 52.7357C80.9618 52.7357 80.5586 52.7505 81.0838 52.7677ZM115.083 59.9254L115.084 67.2036L119.27 67.2051L123.457 67.207L119.296 67.1798L115.134 67.1531L115.107 59.9001L115.082 52.6471L115.083 59.9254ZM76.8675 54.8791C76.9933 55.0121 77.1124 55.1213 77.1325 55.1213C77.2133 55.1213 76.812 54.6422 76.7288 54.6393C76.6795 54.6374 76.7417 54.7456 76.8675 54.8791ZM92.5919 54.9049C92.5384 54.944 92.4303 55.0631 92.3518 55.1699C92.2461 55.3134 92.2777 55.3025 92.4733 55.1289C92.7115 54.9173 92.7842 54.8276 92.7139 54.8319C92.7005 54.8329 92.6455 54.8653 92.5919 54.9049ZM77.7729 55.732C78.2235 56.1682 79.3992 57.0302 79.3992 56.9238C79.3992 56.8976 79.1471 56.7036 78.8391 56.4934C78.531 56.2831 78.1699 56.0123 78.036 55.8917C77.4869 55.3964 77.3252 55.2982 77.7729 55.732ZM81.8333 58.0213C81.9136 58.0661 82.1327 58.1305 82.3197 58.1633C82.5249 58.1996 82.6024 58.191 82.5149 58.1414C82.4345 58.0966 82.2155 58.0322 82.028 57.9994C81.8228 57.9631 81.7453 57.9717 81.8333 58.0213ZM87.3831 58.0327L87.1397 58.1104L87.3831 58.1185C87.5171 58.1233 87.6921 58.0847 87.7725 58.0327C87.9585 57.9131 87.7581 57.9131 87.3831 58.0327ZM83.1965 58.324C83.3299 58.3669 83.5275 58.4031 83.6346 58.4046L83.8293 58.4074L83.6346 58.324C83.5275 58.2782 83.3299 58.242 83.1965 58.2434L82.953 58.2463L83.1965 58.324ZM86.0199 58.3254C85.9171 58.3927 85.975 58.4022 86.2146 58.3583C86.6346 58.2816 86.714 58.2263 86.4012 58.2287C86.272 58.2291 86.1003 58.273 86.0199 58.3254ZM69.3413 59.6312C69.4374 59.7628 69.557 59.872 69.6062 59.8739C69.656 59.8753 69.5933 59.7676 69.4675 59.6341C69.1758 59.3242 69.1164 59.3228 69.3413 59.6312ZM70.2127 60.6934C70.3653 60.8755 70.5504 61.0509 70.6246 61.0833C70.6987 61.1158 70.6112 60.9703 70.4299 60.7601C70.2486 60.5503 70.0635 60.3744 70.0181 60.3701C69.9726 60.3659 70.0602 60.5108 70.2127 60.6934ZM98.3838 61.5973C97.8222 62.1703 97.5324 62.4868 97.7395 62.3009C98.3599 61.7441 99.5246 60.5561 99.4504 60.5561C99.4251 60.5561 98.9448 61.0247 98.3838 61.5973ZM101.404 62.1569C101.279 62.2899 101.194 62.4153 101.217 62.4354C101.239 62.4549 101.359 62.3462 101.484 62.1932C101.763 61.8504 101.714 61.8285 101.404 62.1569ZM71.7127 62.1751C71.7185 62.2556 72.8755 63.2263 72.8755 63.15C72.8755 63.1271 72.6124 62.8806 72.2915 62.6017C71.97 62.3233 71.7094 62.1312 71.7127 62.1751ZM100.189 63.4556L99.4117 64.2922L100.262 63.4694C100.729 63.017 101.112 62.6351 101.112 62.6203C101.112 62.5054 100.857 62.7362 100.189 63.4556ZM73.2648 63.4436C73.2648 63.487 73.3964 63.6 73.5571 63.6944C73.7178 63.7893 73.8493 63.8503 73.8493 63.8307C73.8493 63.8112 73.7178 63.6982 73.5571 63.58C73.3964 63.4613 73.2648 63.4003 73.2648 63.4436ZM98.775 64.7289C98.6411 64.8333 98.5794 64.9196 98.6382 64.921C98.6966 64.922 98.8238 64.8357 98.9209 64.7289C99.1429 64.4844 99.0883 64.4844 98.775 64.7289ZM98.1418 65.2714L97.85 65.5212L98.1662 65.3124C98.3403 65.198 98.4828 65.085 98.4828 65.0622C98.4828 64.9892 98.4417 65.0145 98.1418 65.2714ZM76.1859 65.2629C76.3198 65.3391 76.4733 65.4016 76.5269 65.4016C76.58 65.4016 76.5145 65.3391 76.3805 65.2629C76.2466 65.1866 76.0936 65.1241 76.04 65.1241C75.9864 65.1241 76.0519 65.1866 76.1859 65.2629ZM89.9631 66.4757C89.8407 66.5281 89.8225 66.5591 89.9143 66.5591C89.9947 66.5591 90.1482 66.5214 90.2554 66.4757C90.3778 66.4232 90.396 66.3922 90.3042 66.3922C90.2238 66.3922 90.0703 66.4299 89.9631 66.4757ZM95.6139 66.9853L95.4604 67.2036L99.5217 67.2289C101.755 67.2427 103.616 67.2213 103.657 67.1803C103.697 67.1398 101.915 67.1183 99.6948 67.1331C95.7751 67.1583 95.3814 67.1321 95.8296 66.8718C95.9234 66.8175 95.9477 66.7712 95.8837 66.7698C95.8196 66.7684 95.6985 66.8652 95.6139 66.9853ZM81.7128 67.0296C81.8338 67.053 82.0088 67.052 82.1021 67.0277C82.1949 67.0034 82.0959 66.9843 81.8816 66.9853C81.6678 66.9867 81.5913 67.0063 81.7128 67.0296ZM87.5544 67.0296C87.6758 67.053 87.8509 67.052 87.9442 67.0277C88.037 67.0034 87.938 66.9843 87.7237 66.9853C87.5094 66.9867 87.4333 67.0063 87.5544 67.0296ZM84.4353 67.2251C84.6084 67.2465 84.915 67.247 85.1169 67.226C85.3192 67.2051 85.1776 67.1874 84.8026 67.187C84.4281 67.1865 84.2626 67.2036 84.4353 67.2251ZM27.0572 75.7677C28.56 75.7877 29.2368 75.8311 29.3454 75.9155C29.4808 76.0208 29.4832 76.0146 29.3655 75.8649C29.244 75.7109 29.0293 75.6971 27.0773 75.7171L24.9225 75.7395L27.0572 75.7677ZM38.9145 76.2044C38.5151 76.7459 38.1353 77.3285 38.2343 77.2479C38.2669 77.2212 38.5175 76.8937 38.7906 76.52L39.2871 75.8406L41.4519 75.7891L43.6168 75.7381L41.4538 75.7167L39.2905 75.6952L38.9145 76.2044ZM51.1631 75.7872C51.0291 75.8273 51.3137 75.8416 51.7959 75.8182C52.2775 75.7948 52.7157 75.7615 52.7692 75.7434C52.973 75.6747 51.3946 75.7181 51.1631 75.7872ZM64.3711 75.7677C64.3463 75.8077 65.8582 75.8406 67.7313 75.8406C69.6039 75.8406 71.0345 75.812 70.9106 75.7777C70.592 75.6885 64.4257 75.6795 64.3711 75.7677ZM78.2943 75.7677C78.2694 75.8077 80.6657 75.8406 83.6193 75.8406H88.9898L89.018 76.5919L89.0462 77.3428L84.4903 77.3695L79.9344 77.3962L84.5109 77.3948L89.0869 77.3933L89.1156 76.6806C89.1337 76.2392 89.1012 75.9164 89.0309 75.8316C88.9056 75.6814 78.3866 75.6189 78.2943 75.7677ZM105.198 75.7677C105.545 75.7867 105.862 75.8549 105.903 75.9188C106.062 76.1676 105.994 96.1714 105.834 96.1714C105.754 96.1714 105.688 96.128 105.688 96.0746C105.688 96.0212 105.639 95.9773 105.579 95.9773C105.503 95.9773 105.507 96.0226 105.59 96.1227C105.657 96.2028 105.794 96.2686 105.895 96.2686C106.108 96.2686 106.189 76.2783 105.976 75.8826C105.89 75.7224 105.78 75.6976 105.222 75.7138L104.568 75.7324L105.198 75.7677ZM108.141 75.8115C108.052 75.9007 108.03 78.2963 108.048 86.1223L108.072 96.3172L108.121 86.0789L108.17 75.8406L109.916 75.8139C111.247 75.7939 111.68 75.8168 111.74 75.9112C111.784 75.9789 111.82 77.8581 111.82 80.0864L111.822 84.1381L115.254 84.1148L118.686 84.0919L115.303 84.0652L111.919 84.0385V79.9829C111.919 76.9585 111.889 75.8983 111.802 75.8115C111.721 75.7295 111.175 75.6952 109.972 75.6952C108.769 75.6952 108.224 75.7295 108.141 75.8115ZM118.701 75.7677C118.677 75.8077 119.48 75.8406 120.487 75.8406C121.495 75.8406 122.298 75.8077 122.273 75.7677C122.249 75.7276 121.445 75.6952 120.487 75.6952C119.53 75.6952 118.726 75.7276 118.701 75.7677ZM133.456 75.7777C133.332 75.812 133.762 75.8406 134.411 75.8406C135.06 75.8406 135.49 75.812 135.366 75.7777C135.242 75.7429 134.812 75.7143 134.411 75.7143C134.009 75.7143 133.579 75.7429 133.456 75.7777ZM148.817 75.7667C150.017 75.7882 150.541 75.8316 150.601 75.9159C150.662 76.0017 150.675 75.9946 150.646 75.8892C150.612 75.7667 150.328 75.7429 148.862 75.74L147.117 75.7362L148.817 75.7667ZM160.568 75.7677C160.544 75.8077 161.348 75.8406 162.355 75.8406C163.362 75.8406 164.166 75.8077 164.141 75.7677C164.116 75.7276 163.312 75.6952 162.355 75.6952C161.397 75.6952 160.593 75.7276 160.568 75.7677ZM171.152 75.7691C171.089 75.8087 171.428 75.8406 171.902 75.8406C172.377 75.8406 172.691 75.8111 172.599 75.7748C172.372 75.6847 171.291 75.6809 171.152 75.7691ZM182.93 75.7677C184.527 75.7829 187.112 75.7829 188.675 75.7677C190.238 75.7529 188.931 75.7405 185.771 75.7405C182.612 75.7405 181.333 75.7529 182.93 75.7677ZM5.49831 75.9021C5.57866 75.975 5.70733 76.1 5.78434 76.18C5.89291 76.293 5.891 76.2725 5.77621 76.0885C5.69441 75.9579 5.56575 75.833 5.4897 75.8106C5.37921 75.7777 5.38064 75.7958 5.49831 75.9021ZM21.7178 75.8664C21.7762 75.9054 21.8733 76.0251 21.934 76.1319C22.0158 76.2759 22.0455 76.2868 22.0474 76.1753C22.0507 76.0036 21.8661 75.7915 21.7145 75.7934C21.6461 75.7944 21.6475 75.8187 21.7178 75.8664ZM146.939 75.8568C146.853 75.9422 146.868 88.5041 146.953 88.72C146.99 88.8111 147.02 85.9397 147.02 82.339C147.02 78.7382 147.016 75.792 147.012 75.792C147.007 75.792 146.974 75.8211 146.939 75.8568ZM179.848 75.8568C179.812 75.8926 179.794 80.5107 179.807 86.1195L179.83 96.3172L179.88 86.0789C179.934 74.7989 179.938 75.7677 179.848 75.8568ZM49.8482 75.986C49.6004 76.0923 49.8563 76.0923 50.1892 75.986C50.3849 75.9236 50.3944 75.9078 50.238 75.9054C50.1309 75.904 49.9553 75.9402 49.8482 75.986ZM54.0353 75.986C54.1425 76.0323 54.3175 76.0685 54.4247 76.0666C54.5811 76.0642 54.5715 76.0485 54.3759 75.986C54.043 75.8797 53.7871 75.8797 54.0353 75.986ZM71.6582 75.986C71.7653 76.0323 71.9189 76.0694 71.9992 76.0694C72.0911 76.0694 72.0734 76.0389 71.9504 75.986C71.8433 75.9402 71.6902 75.9026 71.6099 75.9026C71.5176 75.9026 71.5357 75.9336 71.6582 75.986ZM132.074 75.986C131.881 76.0475 131.871 76.0637 132.025 76.0637C132.132 76.0637 132.329 76.0289 132.463 75.986C132.656 75.9245 132.666 75.9083 132.512 75.9083C132.405 75.9083 132.208 75.9436 132.074 75.986ZM136.358 75.986C136.492 76.0289 136.689 76.0637 136.796 76.0637C136.95 76.0637 136.94 76.0475 136.748 75.986C136.614 75.9436 136.417 75.9083 136.309 75.9083C136.155 75.9083 136.166 75.9245 136.358 75.986ZM173.308 75.986C173.415 76.0323 173.569 76.0694 173.649 76.0694C173.741 76.0694 173.723 76.0389 173.6 75.986C173.493 75.9402 173.34 75.9026 173.26 75.9026C173.168 75.9026 173.186 75.9336 173.308 75.986ZM91.1307 86.1276L91.1316 96.3172L91.9103 96.3239L92.6895 96.3311L91.9352 96.2958L91.1814 96.2605L91.1556 86.099L91.1302 75.9379L91.1307 86.1276ZM91.5698 76.2287C91.6956 76.3622 91.8147 76.4713 91.8348 76.4713C91.9156 76.4713 91.5143 75.9922 91.4311 75.9893C91.3813 75.9874 91.444 76.0952 91.5698 76.2287ZM29.5478 76.1224C29.5478 76.2148 30.126 77.0534 30.1896 77.0534C30.2164 77.0534 30.0978 76.846 29.9261 76.5929C29.5449 76.0303 29.5478 76.0342 29.5478 76.1224ZM43.3738 76.3745C43.259 76.5343 43.1877 76.6654 43.214 76.6654C43.2408 76.6654 43.3566 76.5343 43.4709 76.3745C43.5852 76.2144 43.6569 76.0833 43.6302 76.0833C43.6034 76.0833 43.4881 76.2144 43.3738 76.3745ZM78.18 86.3216C78.18 91.8193 78.1919 94.0537 78.2063 91.2877C78.2206 88.5212 78.2206 84.0233 78.2063 81.292C78.1919 78.5604 78.18 80.8239 78.18 86.3216ZM22.1143 76.8594C22.1473 77.0463 22.2114 77.2646 22.2569 77.3447C22.3066 77.4324 22.3152 77.3552 22.2789 77.1507C22.2454 76.9638 22.1813 76.7454 22.1359 76.6654C22.0866 76.5776 22.078 76.6553 22.1143 76.8594ZM175.167 76.8108C175.323 76.9442 175.487 77.0534 175.531 77.0534C175.575 77.0534 175.481 76.9442 175.322 76.8112C175.163 76.6777 175 76.5686 174.959 76.5686C174.918 76.5686 175.012 76.6777 175.167 76.8108ZM73.7518 76.8866C73.7518 76.9052 73.8943 77.0239 74.0684 77.1511C74.264 77.2937 74.3319 77.3175 74.2468 77.2126C74.1167 77.0534 73.7518 76.8127 73.7518 76.8866ZM167.867 77.369C167.589 77.6493 167.494 77.7637 167.657 77.6231C168.287 77.0792 168.515 76.8594 168.446 76.8594C168.407 76.8594 168.146 77.0887 167.867 77.369ZM25.7504 77.3447C25.8648 77.5049 25.98 77.636 26.0068 77.636C26.0336 77.636 25.9619 77.5049 25.8475 77.3447C25.7332 77.1845 25.618 77.0534 25.5912 77.0534C25.5644 77.0534 25.6361 77.1845 25.7504 77.3447ZM175.986 77.4906C176.168 77.677 176.338 77.83 176.365 77.83C176.392 77.83 176.265 77.677 176.083 77.4906C175.902 77.3037 175.731 77.1507 175.705 77.1507C175.678 77.1507 175.805 77.3037 175.986 77.4906ZM50.822 77.3447L50.4327 77.4143L50.7733 77.4215C50.9607 77.4253 51.2018 77.3905 51.309 77.3447C51.5385 77.2465 51.3726 77.2465 50.822 77.3447ZM53.2815 77.4133C53.403 77.4367 53.5781 77.4358 53.6713 77.4114C53.7641 77.3871 53.6651 77.3681 53.4508 77.3695C53.2365 77.3704 53.1605 77.39 53.2815 77.4133ZM65.9099 77.4663C65.884 77.533 65.8745 79.7274 65.8883 82.3428L65.9137 87.0977L68.1531 87.1006L70.3926 87.1029L68.1775 87.0743L65.9625 87.0457V82.2455V77.4453L68.3722 77.4176L70.7819 77.39L68.3693 77.3671C66.5121 77.3499 65.9457 77.3728 65.9099 77.4663ZM4.88081 77.7089C4.76027 78.1513 4.72105 78.4531 4.80189 78.3153C4.89803 78.1513 5.02813 77.5387 4.9669 77.5387C4.9449 77.5387 4.90616 77.6155 4.88081 77.7089ZM92.8354 77.7814C92.9612 77.9149 93.0803 78.024 93.1004 78.024C93.1812 78.024 92.7799 77.5449 92.6967 77.5421C92.6474 77.5402 92.7096 77.6479 92.8354 77.7814ZM20.3919 77.9807C20.2743 78.1704 20.1997 78.3468 20.226 78.373C20.2523 78.3992 20.3661 78.2443 20.479 78.0283C20.7325 77.544 20.6804 77.5154 20.3919 77.9807ZM45.4176 78.1833C45.0699 78.4841 44.7681 78.7763 44.7465 78.8326C44.7255 78.8888 44.9006 78.7573 45.1359 78.5399C45.3717 78.3225 45.696 78.0317 45.8562 77.8934C46.0169 77.7552 46.1265 77.6408 46.0992 77.6388C46.0719 77.6374 45.7653 77.882 45.4176 78.1833ZM140.35 77.6574C140.35 77.6765 140.558 77.8624 140.813 78.0708C141.067 78.2791 141.187 78.3492 141.08 78.2262C140.891 78.0093 140.35 77.5878 140.35 77.6574ZM37.6288 78.024C37.5145 78.1842 37.4427 78.3153 37.4695 78.3153C37.4963 78.3153 37.6121 78.1842 37.7264 78.024C37.8407 77.8639 37.9124 77.7328 37.8857 77.7328C37.8589 77.7328 37.7436 77.8639 37.6288 78.024ZM54.9599 77.7657C54.9599 77.7904 55.1015 77.86 55.2742 77.9201C55.4473 77.9802 55.5458 77.9892 55.4932 77.9406C55.3827 77.8372 54.9599 77.6984 54.9599 77.7657ZM22.4018 78.0727C22.4822 78.4293 22.5376 78.507 22.5357 78.2586C22.5348 78.1561 22.4898 78.0069 22.4353 77.9273C22.3631 77.821 22.3544 77.8601 22.4018 78.0727ZM75.0126 78.0674C75.29 78.3621 75.3522 78.3816 75.2183 78.1327C75.1642 78.0322 75.0432 77.9206 74.9494 77.8844C74.8222 77.8357 74.838 77.8825 75.0126 78.0674ZM72.5832 78.0708C72.5832 78.0913 72.7148 78.2014 72.8755 78.3153C73.0362 78.4293 73.1673 78.487 73.1668 78.4431C73.1668 78.3997 73.0352 78.2896 72.875 78.1985C72.7143 78.1075 72.5832 78.0498 72.5832 78.0708ZM93.2936 78.3606C93.3897 78.4927 93.5031 78.6018 93.5462 78.6033C93.5887 78.6052 93.5447 78.4984 93.4486 78.3668C93.3524 78.2352 93.2386 78.1261 93.196 78.1242C93.1535 78.1227 93.197 78.229 93.2936 78.3606ZM127.082 78.7763C126.431 79.4361 125.842 80.135 125.844 80.2451C125.844 80.278 125.963 80.1517 126.107 79.9648C126.252 79.7784 126.697 79.2869 127.097 78.8731C127.497 78.4598 127.802 78.1213 127.776 78.1213C127.75 78.1213 127.437 78.4159 127.082 78.7763ZM59.0495 78.4889C59.0495 78.5299 59.137 78.6381 59.2441 78.7296C59.3513 78.8207 59.4388 78.8621 59.4388 78.8211C59.4388 78.7801 59.3513 78.6719 59.2441 78.5804C59.137 78.4889 59.0495 78.4479 59.0495 78.4889ZM141.484 78.6362C141.577 78.7592 141.766 78.9408 141.902 79.0395C142.049 79.1449 141.993 79.0528 141.767 78.8154C141.338 78.3673 141.227 78.2963 141.484 78.6362ZM31.3668 78.7763C31.5791 79.1124 31.9819 79.6101 31.9819 79.5358C31.9819 79.4619 31.2936 78.5094 31.24 78.5094C31.2171 78.5094 31.274 78.6295 31.3668 78.7763ZM73.5088 78.8002C73.669 78.9866 73.8115 79.1577 73.8249 79.1801C73.8383 79.2025 73.8704 79.1997 73.8962 79.1739C73.9225 79.1482 73.78 78.977 73.58 78.794L73.2165 78.4607L73.5088 78.8002ZM93.8642 78.9885C93.9752 79.1253 94.1833 79.3823 94.3268 79.5601C94.4707 79.7374 94.5874 79.8466 94.587 79.8027C94.5865 79.7584 94.3784 79.5014 94.1244 79.2311C93.8709 78.9613 93.7537 78.8521 93.8642 78.9885ZM46.6354 79.1544C46.3422 79.4156 46.3202 79.4519 46.5464 79.3012C46.8157 79.1215 47.1544 78.7949 47.0611 78.804C47.041 78.8059 46.8497 78.9637 46.6354 79.1544ZM166.586 79.1005C166.5 79.2659 166.447 79.418 166.468 79.439C166.489 79.46 166.579 79.3251 166.668 79.1391C166.869 78.7206 166.799 78.6886 166.586 79.1005ZM22.6362 79.0509C22.6371 79.1534 22.6821 79.3027 22.7366 79.3827C22.8088 79.4891 22.8174 79.45 22.7701 79.2373C22.6897 78.8803 22.6343 78.803 22.6362 79.0509ZM59.8368 79.3232C59.9587 79.4628 60.0778 79.5768 60.1013 79.5768C60.1888 79.5768 59.8559 79.1491 59.7382 79.11C59.6708 79.0876 59.7153 79.1835 59.8368 79.3232ZM132.853 79.3827C132.652 79.4466 132.644 79.4619 132.804 79.4685C132.911 79.4733 133.065 79.4347 133.145 79.3827C133.316 79.2726 133.197 79.2726 132.853 79.3827ZM187.621 79.4781L183.629 79.5281L183.627 81.8575L183.624 84.1863L183.653 81.8818L183.681 79.5768H187.672C190.267 79.5768 191.662 79.5429 191.662 79.48C191.662 79.4266 191.651 79.3927 191.638 79.4051C191.624 79.418 189.817 79.4504 187.621 79.4781ZM27.3958 79.6254C27.5599 79.9419 27.6948 80.1174 27.6938 80.0135C27.6938 79.9601 27.6039 79.8075 27.4944 79.674C27.3619 79.5129 27.3289 79.4962 27.3958 79.6254ZM136.358 79.5606C136.439 79.6101 136.614 79.6797 136.748 79.7155C136.917 79.7603 136.947 79.7527 136.845 79.6902C136.764 79.6406 136.589 79.571 136.455 79.5353C136.286 79.4905 136.256 79.4981 136.358 79.5606ZM170.458 79.7465C170.225 79.9734 170.221 79.9848 170.432 79.8209C170.847 79.4981 170.867 79.48 170.798 79.48C170.761 79.48 170.608 79.5996 170.458 79.7465ZM32.079 79.7165C32.079 79.798 32.6764 80.6442 32.7343 80.6442C32.7835 80.6442 32.6869 80.4873 32.3521 80.023C32.2019 79.8151 32.079 79.6769 32.079 79.7165ZM40.8421 79.9648C40.7278 80.125 40.656 80.2561 40.6828 80.2561C40.7096 80.2561 40.8249 80.125 40.9392 79.9648C41.054 79.8046 41.1257 79.674 41.0989 79.674C41.0722 79.674 40.9564 79.8046 40.8421 79.9648ZM177.46 80.0216C177.517 80.2308 177.587 80.4234 177.614 80.4501C177.7 80.5336 177.528 79.8242 177.44 79.7308C177.393 79.6816 177.403 79.8128 177.46 80.0216ZM36.201 80.0378C36.1092 80.1846 35.9877 80.3677 35.9308 80.4444C35.8557 80.5464 35.8581 80.5665 35.9394 80.5178C36.058 80.4468 36.4847 79.7708 36.411 79.7708C36.3871 79.7708 36.2929 79.8909 36.201 80.0378ZM137.235 79.9167C137.368 79.993 137.522 80.0554 137.575 80.0554C137.629 80.0554 137.563 79.993 137.429 79.9167C137.295 79.8404 137.142 79.7779 137.088 79.7779C137.035 79.7779 137.101 79.8404 137.235 79.9167ZM22.915 80.1803C22.96 80.4497 22.9739 80.4635 23.0045 80.269C23.0241 80.1431 23.0006 79.9996 22.9514 79.9505C22.8973 79.8971 22.883 79.9872 22.915 80.1803ZM173.621 80.1074C173.717 80.2394 173.836 80.3486 173.885 80.35C173.935 80.3519 173.872 80.2442 173.747 80.1107C173.455 79.8008 173.395 79.7994 173.621 80.1074ZM94.8802 80.2561C94.9945 80.4163 95.1102 80.5474 95.137 80.5474C95.1638 80.5474 95.0921 80.4163 94.9777 80.2561C94.8629 80.0959 94.7477 79.9648 94.7209 79.9648C94.6941 79.9648 94.7658 80.0959 94.8802 80.2561ZM138.254 80.4702C138.414 80.5927 138.808 80.9316 139.131 81.2239L139.717 81.755L139.279 81.2878C139.038 81.0313 138.644 80.6918 138.403 80.5345C138.162 80.3767 138.095 80.3476 138.254 80.4702ZM45.1263 80.6442C45.012 80.8044 44.9403 80.9355 44.967 80.9355C44.9938 80.9355 45.1091 80.8044 45.2234 80.6442C45.3377 80.484 45.4095 80.3534 45.3827 80.3534C45.3559 80.3534 45.2406 80.484 45.1263 80.6442ZM130.024 80.7953C129.896 80.9316 129.856 81.0184 129.936 80.9874C130.063 80.9388 130.378 80.5474 130.29 80.5474C130.273 80.5474 130.153 80.659 130.024 80.7953ZM174.014 80.7839C174.04 80.9221 174.105 81.0618 174.158 81.0947C174.218 81.1314 174.228 81.067 174.184 80.9235C174.083 80.5908 173.957 80.4873 174.014 80.7839ZM4.08633 80.9355C4.0495 81.1033 4.03946 81.2606 4.06433 81.2854C4.0892 81.3102 4.13751 81.191 4.17147 81.0203C4.25279 80.616 4.17434 80.5374 4.08633 80.9355ZM95.2724 80.6551C95.2709 80.688 95.401 80.8797 95.5618 81.0809C95.7225 81.2825 95.8526 81.4084 95.8511 81.3612C95.8483 81.2625 95.2762 80.565 95.2724 80.6551ZM76.4432 81.0327C76.5207 81.4508 76.5757 81.5299 76.5738 81.2186C76.5728 81.0894 76.5293 80.9183 76.4767 80.8382C76.4092 80.7362 76.3997 80.7934 76.4432 81.0327ZM169.62 80.8906C169.587 80.9774 169.564 81.1214 169.568 81.2101C169.573 81.2992 169.615 81.2434 169.663 81.0861C169.754 80.7796 169.722 80.628 169.62 80.8906ZM129.297 81.4889C129.084 81.7335 128.851 82.0253 128.78 82.1378C128.693 82.2751 128.72 82.2627 128.86 82.1001C128.976 81.9666 129.226 81.6916 129.416 81.4894C129.606 81.2868 129.744 81.1042 129.723 81.0832C129.702 81.0623 129.511 81.2449 129.297 81.4889ZM18.3472 81.4742C18.23 81.6639 18.1525 81.8379 18.1759 81.8613C18.1994 81.8846 18.3165 81.7297 18.4366 81.5166C18.7073 81.037 18.6389 81.0046 18.3472 81.4742ZM96.2424 81.9047C96.4112 82.1173 96.6006 82.3227 96.6628 82.3609C96.725 82.3995 96.6069 82.225 96.4002 81.9743C96.1941 81.723 96.0047 81.5175 95.9798 81.5175C95.9549 81.5175 96.0731 81.692 96.2424 81.9047ZM169.561 81.8656C169.562 82.0744 169.601 82.3061 169.648 82.38C169.7 82.462 169.714 82.3299 169.683 82.0405C169.619 81.4489 169.559 81.3636 169.561 81.8656ZM61.3932 81.6634C61.3932 81.7168 61.4558 81.8694 61.5324 82.0029C61.6089 82.1363 61.6715 82.2017 61.6715 82.1487C61.6715 82.0953 61.6089 81.9423 61.5324 81.8088C61.4558 81.6753 61.3932 81.61 61.3932 81.6634ZM23.3799 82.1001C23.4129 82.287 23.4775 82.5053 23.5225 82.5854C23.5722 82.6727 23.5808 82.5954 23.5445 82.3909C23.5115 82.2045 23.4469 81.9862 23.4019 81.9061C23.3522 81.8184 23.3436 81.8956 23.3799 82.1001ZM76.5982 82.1969C76.5982 82.3838 76.6178 82.46 76.6427 82.3671C76.6671 82.2736 76.6671 82.1206 76.6427 82.0272C76.6178 81.9337 76.5982 82.01 76.5982 82.1969ZM143.908 82.2212C143.945 82.3413 144.015 82.4825 144.063 82.5344C144.113 82.5869 144.104 82.4882 144.043 82.3161C143.92 81.9638 143.806 81.8837 143.908 82.2212ZM9.58738 82.8762C9.69691 83.0898 9.80836 83.2643 9.83515 83.2643C9.86193 83.2643 9.79401 83.0898 9.68496 82.8762C9.5759 82.6627 9.46446 82.4882 9.43767 82.4882C9.41088 82.4882 9.47833 82.6627 9.58738 82.8762ZM166.154 82.8357C166.154 82.9382 166.2 83.0874 166.254 83.1675C166.326 83.2738 166.335 83.2347 166.288 83.0221C166.207 82.665 166.152 82.5878 166.154 82.8357ZM42.1077 83.2643C42.0474 83.4888 42.0168 83.6915 42.0398 83.7143C42.0632 83.7377 42.1297 83.5708 42.1876 83.3439C42.2455 83.117 42.2756 82.9144 42.2555 82.8939C42.2349 82.8734 42.1684 83.0402 42.1077 83.2643ZM94.7869 82.9487C94.7893 82.9892 94.9973 83.2414 95.2494 83.5093C95.7612 84.0538 95.6986 83.9231 95.1437 83.2886C94.9452 83.0617 94.7845 82.9087 94.7869 82.9487ZM23.6679 83.3129C23.7478 83.67 23.8037 83.7472 23.8013 83.4988C23.8009 83.3968 23.7554 83.2476 23.7014 83.1675C23.6291 83.0612 23.6201 83.1003 23.6679 83.3129ZM61.9786 83.2161C61.9758 83.3229 62.0159 83.4755 62.0681 83.5556C62.1929 83.7487 62.1929 83.506 62.0681 83.2161L61.9844 83.0221L61.9786 83.2161ZM76.491 83.2324C76.4839 83.3482 76.4528 83.5227 76.4222 83.6204C76.3691 83.7887 76.3719 83.7892 76.4772 83.6257C76.5384 83.5308 76.5695 83.3558 76.5465 83.2376C76.5044 83.0221 76.5044 83.0221 76.491 83.2324ZM166.4 83.6771C166.436 83.7973 166.506 83.9379 166.555 83.9904C166.604 84.0423 166.595 83.9441 166.535 83.772C166.411 83.4192 166.298 83.3391 166.4 83.6771ZM43.5316 83.802C43.4981 83.8888 43.4747 84.0328 43.4795 84.1215C43.4838 84.2106 43.5264 84.1548 43.5732 83.997C43.6651 83.691 43.6326 83.5394 43.5316 83.802ZM30.414 83.8955C30.578 84.212 30.7129 84.3875 30.7124 84.2836C30.712 84.2302 30.622 84.0771 30.5125 83.9436C30.3805 83.7825 30.3475 83.7663 30.414 83.8955ZM60.6241 83.9923C60.6221 84.0991 60.6585 84.274 60.7049 84.3803C60.8115 84.6277 60.8115 84.3727 60.7049 84.0409C60.6422 83.8459 60.626 83.8364 60.6241 83.9923ZM144.456 83.9923C144.455 84.0991 144.491 84.274 144.537 84.3803C144.644 84.6277 144.644 84.3727 144.537 84.0409C144.474 83.8459 144.458 83.8364 144.456 83.9923ZM62.2355 84.429C62.2651 84.7226 62.3058 84.981 62.3249 85.0034C62.3971 85.0868 62.3426 84.2754 62.2637 84.0895C62.212 83.9684 62.2015 84.0971 62.2355 84.429ZM41.8762 84.2874C41.8432 84.3741 41.8202 84.5615 41.8255 84.704C41.8331 84.9124 41.8528 84.889 41.9245 84.5844C42.0159 84.1958 41.9848 84.0051 41.8762 84.2874ZM23.9142 84.3322C23.9142 84.4123 23.9515 84.5648 23.9979 84.6716C24.0505 84.7941 24.0816 84.8118 24.0816 84.7202C24.0816 84.6402 24.0438 84.4871 23.9979 84.3803C23.9448 84.2583 23.9142 84.2402 23.9142 84.3322ZM37.4671 84.7446C37.0682 85.3076 36.9716 85.5097 37.2696 85.1569C37.5303 84.849 37.8608 84.3322 37.7972 84.3322C37.7761 84.3322 37.6278 84.5176 37.4671 84.7446ZM30.975 84.7202C31.0697 84.8804 31.1831 85.0115 31.2266 85.0115C31.2701 85.0115 31.2089 84.8804 31.0903 84.7202C30.9712 84.5601 30.8578 84.429 30.8382 84.429C30.8186 84.429 30.8798 84.5601 30.975 84.7202ZM141.039 84.7875C141.035 84.9043 141.075 85.0268 141.129 85.0597C141.244 85.1307 141.244 85.0358 141.129 84.7689C141.048 84.5815 141.045 84.5825 141.039 84.7875ZM73.9058 85.1841L73.7188 85.4482L73.9785 85.2127C74.2516 84.9658 74.2856 84.9124 74.1655 84.9171C74.1253 84.919 74.0086 85.0392 73.9058 85.1841ZM60.8388 86.0789C60.8388 86.6925 60.8546 86.9437 60.8742 86.6367C60.8933 86.3302 60.8933 85.8277 60.8742 85.5207C60.8546 85.2141 60.8388 85.4649 60.8388 86.0789ZM24.1811 85.4206C24.2256 85.6904 24.2395 85.7037 24.2701 85.5097C24.2902 85.3834 24.2662 85.2399 24.217 85.1912C24.1629 85.1374 24.1491 85.228 24.1811 85.4206ZM43.2446 85.6666C43.2136 85.9731 43.2246 86.3993 43.2695 86.6124C43.336 86.9289 43.3532 86.826 43.3623 86.0546C43.3752 84.9886 43.3288 84.8366 43.2446 85.6666ZM124.053 85.3753C123.987 85.7152 124.041 86.9356 124.125 87.02C124.161 87.0553 124.18 86.6396 124.167 86.0961C124.143 85.032 124.133 84.9672 124.053 85.3753ZM11.1567 85.5927C11.2768 85.8053 11.3906 85.9636 11.4102 85.9445C11.4518 85.9025 11.0496 85.2056 10.9836 85.2056C10.9587 85.2056 11.0367 85.3796 11.1567 85.5927ZM62.3952 86.0789C62.3952 86.5857 62.4115 86.7935 62.4316 86.5399C62.4517 86.2863 62.4517 85.8716 62.4316 85.6179C62.4115 85.3643 62.3952 85.5717 62.3952 86.0789ZM87.5065 85.2623C87.541 85.3204 87.5773 85.7014 87.5869 86.109C87.6079 87.0224 87.7725 87.0009 87.7725 86.0851C87.7725 85.5807 87.7332 85.3915 87.6079 85.2899C87.5171 85.217 87.4716 85.2046 87.5065 85.2623ZM167.71 85.6284C167.951 85.8844 168.236 86.14 168.343 86.1967C168.45 86.2529 168.516 86.2796 168.489 86.2563C168.462 86.2324 168.177 85.9769 167.856 85.688L167.272 85.1631L167.71 85.6284ZM144.667 86.0789C144.667 86.4789 144.684 86.6429 144.705 86.4427C144.726 86.2424 144.726 85.9149 144.705 85.7147C144.684 85.515 144.667 85.6785 144.667 86.0789ZM41.7485 86.0303C41.749 86.3507 41.7671 86.4698 41.7891 86.2954C41.8107 86.1209 41.8102 85.8592 41.7877 85.7133C41.7657 85.5674 41.748 85.7099 41.7485 86.0303ZM6.72039 85.7147C6.60177 86.099 6.56924 86.4098 6.66204 86.273C6.71656 86.1929 6.76152 86.0508 6.76248 85.9574C6.76344 85.8639 6.80792 85.7876 6.86149 85.7876C6.91506 85.7876 6.95859 85.7443 6.95859 85.6909C6.95859 85.5512 6.76487 85.5707 6.72039 85.7147ZM75.2321 86.1519C74.8567 86.6529 74.8504 86.6701 75.168 86.3216C75.4847 85.9731 75.7516 85.5931 75.6784 85.5941C75.6631 85.5941 75.4622 85.8453 75.2321 86.1519ZM2.8212 86.006C2.78629 86.1795 2.73654 86.4088 2.71119 86.5156C2.6758 86.6658 2.68536 86.6768 2.75472 86.5642C2.85708 86.3979 2.99913 85.6909 2.93026 85.6909C2.90539 85.6909 2.85612 85.8325 2.8212 86.006ZM100.045 86.4913C100.378 86.9051 100.671 87.2436 100.695 87.2436C100.753 87.2436 100.247 86.6138 99.7981 86.1276C99.6011 85.914 99.7125 86.0775 100.045 86.4913ZM32.0594 86.2725C32.1507 86.4322 32.2612 86.5633 32.3047 86.5633C32.3487 86.5638 32.2909 86.4331 32.1765 86.273C31.9092 85.8987 31.846 85.8982 32.0594 86.2725ZM72.8081 86.2315L72.5345 86.4813L72.8511 86.2615C73.0252 86.1409 73.1677 86.0289 73.1677 86.0122C73.1677 85.9354 73.0596 86.0012 72.8081 86.2315ZM97.4195 86.1276C97.6749 86.498 97.9959 86.8698 97.992 86.7897C97.9901 86.7459 97.8304 86.5352 97.6371 86.3216C97.4439 86.108 97.3458 86.0208 97.4195 86.1276ZM20.4957 86.273C20.4957 86.353 20.5378 86.4842 20.59 86.5642C20.6737 86.6934 20.6842 86.6934 20.6842 86.5642C20.6842 86.4842 20.6416 86.353 20.59 86.273C20.5063 86.1438 20.4957 86.1438 20.4957 86.273ZM36.2709 86.4603C36.0714 86.7392 36.0676 86.8307 36.0729 91.4822L36.0781 96.22H34.2338C33.2197 96.22 32.41 96.2529 32.4348 96.2929C32.4884 96.3792 35.8887 96.3921 36.1121 96.3068C36.2494 96.2538 36.2661 95.7332 36.2661 91.4274C36.2661 87.2217 36.2852 86.58 36.4172 86.3917C36.5009 86.273 36.5478 86.1757 36.5215 86.1757C36.4952 86.1757 36.3823 86.3039 36.2709 86.4603ZM19.5248 86.9161C19.41 87.1096 19.3368 87.2884 19.3621 87.3137C19.3875 87.3385 19.4994 87.1802 19.6113 86.9618C19.8634 86.4698 19.8065 86.4398 19.5248 86.9161ZM32.4037 87.4376C32.4037 87.8376 32.421 88.0016 32.442 87.8014C32.4631 87.6011 32.4631 87.2736 32.442 87.0734C32.421 86.8732 32.4037 87.0372 32.4037 87.4376ZM20.7038 87.0491C20.7086 87.3013 20.8621 87.7156 20.8655 87.4858C20.8669 87.3795 20.8305 87.2045 20.7846 87.0977C20.7334 86.979 20.7019 86.9599 20.7038 87.0491ZM141.093 87.1015C141.059 87.1883 141.035 87.3323 141.04 87.4209C141.045 87.5101 141.087 87.4543 141.134 87.297C141.226 86.9904 141.194 86.8388 141.093 87.1015ZM2.54474 87.1139C2.50887 87.1497 2.48256 87.2698 2.48591 87.3809C2.49165 87.5668 2.49978 87.5644 2.5854 87.3504C2.68106 87.113 2.66097 86.9981 2.54474 87.1139ZM62.289 87.4376C62.289 87.6774 62.3082 87.7761 62.3311 87.656C62.3546 87.5358 62.3546 87.3394 62.3311 87.2193C62.3082 87.0991 62.289 87.1973 62.289 87.4376ZM177.463 87.4424C177.52 87.6054 177.584 87.7203 177.606 87.6984C177.655 87.6502 177.471 87.1463 177.405 87.1463C177.38 87.1463 177.406 87.2793 177.463 87.4424ZM41.8159 87.5125C41.8159 87.6784 41.859 87.8409 41.9116 87.8734C41.9714 87.9101 41.9848 87.8123 41.9465 87.6121C41.8642 87.183 41.8159 87.1459 41.8159 87.5125ZM24.6809 87.4939C24.6814 87.5964 24.7269 87.7456 24.7809 87.8257C24.8531 87.932 24.8622 87.8929 24.8144 87.6803C24.7345 87.3232 24.679 87.246 24.6809 87.4939ZM127.694 87.5911C127.695 87.6936 127.74 87.8428 127.794 87.9225C127.866 88.0288 127.875 87.9897 127.828 87.777C127.748 87.4204 127.692 87.3427 127.694 87.5911ZM60.6681 87.7809C60.6346 87.8676 60.6116 88.0331 60.6174 88.1489C60.6236 88.2819 60.6566 88.2347 60.7073 88.0202C60.7924 87.6598 60.769 87.5182 60.6681 87.7809ZM144.488 87.9225C144.451 88.0903 144.441 88.2481 144.466 88.2729C144.491 88.2972 144.539 88.178 144.573 88.0078C144.655 87.603 144.576 87.5249 144.488 87.9225ZM2.34959 87.8986C2.22906 88.341 2.18983 88.6428 2.27019 88.505C2.36633 88.341 2.49643 87.7284 2.43521 87.7284C2.41368 87.7284 2.37494 87.8052 2.34959 87.8986ZM111.866 87.9468C111.841 88.0135 111.831 89.9243 111.846 92.1926L111.873 96.3172L111.896 92.121L111.919 87.9253L115.303 87.8986L118.686 87.8714L115.3 87.8486C112.663 87.8309 111.903 87.8524 111.866 87.9468ZM43.4723 88.0764C43.4733 88.1785 43.5182 88.3277 43.5728 88.4078C43.645 88.5141 43.6541 88.475 43.6062 88.2624C43.5264 87.9053 43.4704 87.8281 43.4723 88.0764ZM99.0668 88.1651C99.1926 88.2986 99.3117 88.4078 99.3318 88.4078C99.4126 88.4078 99.0113 87.9286 98.9281 87.9258C98.8788 87.9239 98.941 88.0316 99.0668 88.1651ZM183.601 90.2761C183.621 92.6221 183.654 92.3499 183.701 89.4509C183.715 88.6104 183.694 87.9225 183.654 87.9225C183.613 87.9225 183.59 88.9818 183.601 90.2761ZM8.32225 88.2867C8.32273 88.3267 8.43274 88.4902 8.56762 88.6504L8.81252 88.9417L8.60637 88.578C8.40548 88.2237 8.32129 88.1375 8.32225 88.2867ZM32.4157 91.9985C32.4157 94.1066 32.4286 94.9695 32.4439 93.915C32.4597 92.8609 32.4597 91.1361 32.4439 90.0821C32.4286 89.028 32.4157 89.8904 32.4157 91.9985ZM124.286 88.3672C124.287 88.4697 124.332 88.619 124.387 88.6991C124.459 88.8054 124.468 88.7663 124.42 88.5536C124.34 88.1966 124.284 88.1193 124.286 88.3672ZM127.941 88.4321C127.977 88.5522 128.047 88.6933 128.095 88.7453C128.145 88.7977 128.135 88.6991 128.075 88.527C127.952 88.1747 127.838 88.0946 127.941 88.4321ZM101.501 88.341C101.501 88.3577 101.641 88.4998 101.811 88.6566L102.121 88.9417L101.884 88.6318C101.683 88.3682 101.501 88.2304 101.501 88.341ZM71.6099 88.505C71.4798 88.5884 71.4798 88.5989 71.6099 88.5989C71.6902 88.5989 71.8213 88.5565 71.9016 88.505C72.0318 88.4211 72.0318 88.4111 71.9016 88.4111C71.8213 88.4111 71.6902 88.4531 71.6099 88.505ZM160.375 88.5699C160.339 88.6051 160.313 88.7253 160.316 88.8363C160.322 89.0223 160.33 89.0199 160.416 88.8063C160.511 88.5689 160.491 88.4535 160.375 88.5699ZM140.467 89.0409C140.351 89.2797 140.276 89.4752 140.301 89.4752C140.367 89.4752 140.76 88.6871 140.716 88.6433C140.696 88.6228 140.584 88.802 140.467 89.0409ZM5.9484 88.8483C5.91491 88.935 5.89148 89.079 5.89626 89.1682C5.90057 89.2568 5.94314 89.2011 5.99001 89.0437C6.08185 88.7372 6.04932 88.5856 5.9484 88.8483ZM18.3209 88.9837C18.23 89.1372 18.1558 89.2997 18.1563 89.345C18.1563 89.3898 18.2462 89.2802 18.3562 89.1005C18.4658 88.9212 18.5399 88.7586 18.5213 88.7396C18.5021 88.7205 18.4117 88.8306 18.3209 88.9837ZM65.9094 88.8206C65.884 88.8874 65.8749 90.6017 65.8893 92.6297L65.9161 96.3172L65.9395 92.5582L65.9625 88.7996L68.2751 88.7715L70.5872 88.7439L68.2718 88.7215C66.4896 88.7043 65.9457 88.7272 65.9094 88.8206ZM177.95 88.8445C177.948 88.9512 177.985 89.1262 178.031 89.233C178.137 89.4799 178.137 89.2249 178.031 88.8931C177.968 88.6981 177.952 88.6886 177.95 88.8445ZM128.385 89.3774C128.505 89.5901 128.623 89.7455 128.646 89.7221C128.693 89.6749 128.289 88.9903 128.214 88.9903C128.188 88.9903 128.265 89.1643 128.385 89.3774ZM124.533 89.3055C124.569 89.4256 124.639 89.5667 124.688 89.6187C124.737 89.6711 124.728 89.5724 124.667 89.4003C124.544 89.048 124.43 88.9679 124.533 89.3055ZM1.95642 89.4876C1.87558 89.8918 1.95403 89.9705 2.04156 89.5724C2.07887 89.4046 2.08843 89.2473 2.06404 89.2225C2.03917 89.1977 1.99086 89.3169 1.95642 89.4876ZM164.023 89.346C164.016 89.4618 163.985 89.6368 163.954 89.7345C163.901 89.9028 163.904 89.9028 164.009 89.7393C164.07 89.6444 164.101 89.4699 164.078 89.3512C164.037 89.1357 164.037 89.1357 164.023 89.346ZM21.273 89.4351C21.2739 89.5371 21.3189 89.6864 21.3734 89.7665C21.4457 89.8728 21.4547 89.8337 21.4069 89.6211C21.3266 89.264 21.2711 89.1868 21.273 89.4351ZM60.1156 89.5371C60.0616 89.6783 60.0357 89.8113 60.0577 89.8337C60.0797 89.8556 60.1448 89.7402 60.2017 89.5772C60.328 89.2153 60.2519 89.1801 60.1156 89.5371ZM147.082 89.4752C147.082 89.5553 147.12 89.7083 147.166 89.8151C147.218 89.9376 147.249 89.9552 147.249 89.8637C147.249 89.7836 147.212 89.6306 147.166 89.5238C147.113 89.4018 147.082 89.3836 147.082 89.4752ZM174.566 90.0997C174.57 90.7352 174.584 90.8086 174.653 90.5211C174.699 90.3257 174.697 89.9877 174.649 89.7512C174.57 89.3708 174.562 89.4041 174.566 90.0997ZM143.969 89.7617C143.912 89.9243 143.902 90.0577 143.946 90.0577C144.024 90.0577 144.161 89.5557 144.101 89.4947C144.085 89.4785 144.026 89.5986 143.969 89.7617ZM102.738 89.8122C102.834 89.9438 102.954 90.053 103.003 90.0544C103.053 90.0563 102.99 89.9486 102.864 89.8151C102.572 89.5052 102.513 89.5038 102.738 89.8122ZM168.611 89.9305C168.704 89.9548 168.858 89.9548 168.951 89.9305C169.045 89.9061 168.969 89.8861 168.781 89.8861C168.594 89.8861 168.517 89.9061 168.611 89.9305ZM167.272 90.1545L167.077 90.2379H167.272C167.379 90.2379 167.554 90.2008 167.661 90.1545L167.856 90.0711H167.661C167.554 90.0711 167.379 90.1087 167.272 90.1545ZM169.09 90.2031C169.088 90.3099 169.124 90.4849 169.17 90.5912C169.277 90.8386 169.277 90.5836 169.17 90.2518C169.108 90.0568 169.092 90.0472 169.09 90.2031ZM21.483 90.2518C21.4877 90.504 21.6408 90.9182 21.6446 90.6885C21.6461 90.5817 21.6097 90.4072 21.5638 90.3004C21.5121 90.1812 21.481 90.1626 21.483 90.2518ZM103.347 90.5187C103.528 90.7457 103.693 90.9311 103.715 90.9311C103.783 90.9311 103.366 90.3848 103.189 90.2432C103.095 90.1679 103.166 90.2918 103.347 90.5187ZM163.766 90.349C163.73 90.4634 163.722 90.5793 163.749 90.606C163.776 90.6327 163.828 90.5607 163.864 90.4458C163.9 90.3309 163.908 90.2151 163.882 90.1888C163.855 90.1621 163.803 90.2341 163.766 90.349ZM125.031 90.5202C125.062 90.6413 125.126 90.7638 125.173 90.7929C125.306 90.8749 125.273 90.6975 125.117 90.4887C124.981 90.3071 124.978 90.308 125.031 90.5202ZM59.567 90.5674C59.3795 90.8582 59.2594 91.1271 59.3393 91.0779C59.3876 91.0484 59.4919 90.8939 59.5713 90.7352C59.7167 90.4453 59.7138 90.3395 59.567 90.5674ZM165.704 90.5831C165.674 90.6589 165.666 90.8444 165.686 90.9955C165.714 91.22 165.729 91.1947 165.769 90.8582C165.818 90.4339 165.796 90.3428 165.704 90.5831ZM5.46148 90.789C5.42799 90.8758 5.40551 91.0417 5.41078 91.1576C5.41699 91.2906 5.45 91.2429 5.5007 91.0288C5.58584 90.668 5.56288 90.5268 5.46148 90.789ZM101.404 91.0279C101.573 91.2415 101.734 91.4164 101.761 91.4164C101.787 91.4164 101.671 91.2415 101.501 91.0279C101.332 90.8148 101.171 90.6398 101.144 90.6398C101.117 90.6398 101.234 90.8148 101.404 91.0279ZM159.051 91.1514C158.773 91.4918 158.762 91.5204 158.987 91.3192C159.22 91.1104 159.496 90.7333 159.413 90.7385C159.398 90.7395 159.235 90.9254 159.051 91.1514ZM152.034 91.1738C152.216 91.3606 152.382 91.5132 152.404 91.5132C152.485 91.5132 151.884 90.8477 151.796 90.841C151.745 90.8372 151.852 90.9869 152.034 91.1738ZM177.988 91.179C177.951 91.374 177.94 91.5528 177.964 91.5761C177.988 91.6 178.037 91.4603 178.074 91.2653C178.11 91.0708 178.121 90.892 178.098 90.8682C178.074 90.8444 178.024 90.9845 177.988 91.179ZM103.842 91.0975C103.848 91.2033 104.422 91.8646 104.422 91.7649C104.422 91.7206 104.29 91.5351 104.13 91.353C103.969 91.1704 103.839 91.0555 103.842 91.0975ZM130.044 91.3392C130.24 91.5151 130.546 91.7373 130.726 91.8331C131.039 92.0004 131.042 92.0004 130.811 91.8331C130.678 91.7373 130.371 91.5151 130.129 91.3392L129.689 91.0198L130.044 91.3392ZM138.744 91.2791L138.451 91.5294L138.768 91.3206C138.942 91.2057 139.084 91.0932 139.084 91.0698C139.084 90.9974 139.043 91.0227 138.744 91.2791ZM101.979 91.691C102.032 91.7888 102.151 91.9308 102.245 92.0066C102.35 92.0915 102.326 92.0238 102.183 91.8288C101.927 91.4808 101.831 91.416 101.979 91.691ZM138.033 91.7492C137.581 92.0676 137.517 92.1587 137.899 91.9408C138.077 91.8393 138.269 91.7015 138.325 91.6348C138.469 91.4632 138.401 91.4898 138.033 91.7492ZM45.7591 92.1926C46.0772 92.5129 46.3589 92.7751 46.3857 92.7751C46.4125 92.7751 46.1743 92.5129 45.8562 92.1926C45.5386 91.8722 45.2564 91.6105 45.2296 91.6105C45.2028 91.6105 45.441 91.8722 45.7591 92.1926ZM125.824 91.8531C125.88 91.9599 126.065 92.1997 126.234 92.3866L126.542 92.7265L126.223 92.2898C125.834 91.7549 125.688 91.5952 125.824 91.8531ZM16.6228 91.9256C16.5698 91.9923 16.4746 92.1563 16.411 92.2898C16.2761 92.572 16.52 92.3113 16.7061 91.9742C16.8142 91.7778 16.764 91.7482 16.6228 91.9256ZM157.843 92.01C157.636 92.1182 157.489 92.2274 157.514 92.2521C157.56 92.2984 158.265 91.9146 158.265 91.8436C158.265 91.7883 158.258 91.7911 157.843 92.01ZM142.561 92.244C142.464 92.3761 142.42 92.4824 142.463 92.481C142.506 92.4791 142.619 92.3699 142.716 92.2383C142.812 92.1063 142.856 92 142.813 92.0014C142.771 92.0033 142.657 92.1125 142.561 92.244ZM102.478 92.2545C102.482 92.3732 102.756 92.7208 102.806 92.6707C102.829 92.6478 102.764 92.5263 102.661 92.4004C102.558 92.2741 102.476 92.2088 102.478 92.2545ZM57.9235 92.6049L57.6375 92.9205L57.9541 92.6354C58.1282 92.4786 58.2708 92.337 58.2708 92.3198C58.2708 92.245 58.1904 92.3113 57.9235 92.6049ZM153.895 92.3332C153.928 92.3661 154.1 92.4343 154.278 92.4853C154.456 92.5358 154.56 92.5401 154.51 92.4948C154.407 92.4004 153.804 92.2421 153.895 92.3332ZM22.0521 92.6373C22.0526 92.7398 22.0981 92.8891 22.1521 92.9691C22.2243 93.0755 22.2334 93.0359 22.1856 92.8233C22.1057 92.4667 22.0498 92.389 22.0521 92.6373ZM25.9466 92.7346C25.9475 92.8366 25.9925 92.9858 26.047 93.0659C26.1192 93.1722 26.1283 93.1331 26.0805 92.9205C26.0001 92.5634 25.9446 92.4862 25.9466 92.7346ZM132.561 92.6779C132.641 92.7298 132.772 92.7718 132.853 92.7718C132.983 92.7718 132.983 92.7613 132.853 92.6779C132.772 92.6264 132.641 92.5839 132.561 92.5839C132.431 92.5839 132.431 92.5944 132.561 92.6779ZM155.37 92.6507C155.518 92.6726 155.737 92.6721 155.857 92.6493C155.977 92.6259 155.856 92.6078 155.588 92.6087C155.32 92.6092 155.222 92.6283 155.37 92.6507ZM172.724 92.6779C172.537 92.7584 172.537 92.7613 172.743 92.768C172.86 92.7718 172.983 92.7313 173.016 92.6779C173.088 92.563 172.992 92.563 172.724 92.6779ZM177.369 93.0197C177.252 93.2585 177.177 93.4545 177.203 93.4545C177.268 93.4545 177.662 92.6659 177.618 92.6221C177.597 92.6016 177.485 92.7808 177.369 93.0197ZM44.5418 93.1145C44.7236 93.3014 44.8943 93.4545 44.9211 93.4545C44.9479 93.4545 44.8212 93.3014 44.6394 93.1145C44.4576 92.9277 44.2874 92.7751 44.2606 92.7751C44.2338 92.7751 44.3601 92.9277 44.5418 93.1145ZM59.5311 93.1389L59.1953 93.5026L59.5608 93.1684C59.9004 92.8571 59.9707 92.7751 59.8961 92.7751C59.8798 92.7751 59.7157 92.9386 59.5311 93.1389ZM162.355 93.0178C162.229 93.1508 162.166 93.259 162.216 93.2571C162.299 93.2542 162.701 92.7751 162.62 92.7751C162.6 92.7751 162.481 92.8843 162.355 93.0178ZM4.92529 93.0826C4.91907 93.1713 4.88894 93.3243 4.85785 93.422C4.80476 93.5903 4.80763 93.5908 4.91333 93.4268C4.97456 93.3319 5.00469 93.1789 4.98077 93.0874C4.94107 92.9372 4.93534 92.9367 4.92529 93.0826ZM166.35 93.0025C166.345 93.1422 166.676 93.6485 166.772 93.6485C166.823 93.6485 166.797 93.5717 166.716 93.4783C166.635 93.3849 166.52 93.2213 166.461 93.1145C166.401 93.0078 166.351 92.9572 166.35 93.0025ZM103.245 93.2438C103.297 93.3415 103.417 93.4835 103.51 93.5593C103.616 93.6442 103.592 93.5765 103.449 93.3815C103.193 93.0335 103.097 92.9687 103.245 93.2438ZM0.970621 93.4545C0.934269 93.5689 0.926138 93.6847 0.952923 93.7114C0.979709 93.7381 1.03137 93.6661 1.0682 93.5512C1.10455 93.4363 1.11268 93.3205 1.08589 93.2943C1.05911 93.2676 1.00745 93.3396 0.970621 93.4545ZM15.6696 93.5756L15.5151 93.8912L15.7136 93.6485C15.9044 93.4149 15.9671 93.26 15.87 93.26C15.8446 93.26 15.7547 93.402 15.6696 93.5756ZM161.572 93.915L161.041 94.4732L161.6 93.9426C162.121 93.4502 162.205 93.3572 162.133 93.3572C162.117 93.3572 161.865 93.6084 161.572 93.915ZM141.122 93.8153C140.939 94.0122 140.858 94.1214 140.943 94.0575C141.029 93.9937 141.134 93.9736 141.178 94.0132C141.222 94.0528 141.228 94.0332 141.192 93.9703C141.155 93.9064 141.221 93.7891 141.34 93.7057C141.459 93.6232 141.533 93.5336 141.506 93.5064C141.479 93.4793 141.306 93.6185 141.122 93.8153ZM149.523 93.8912C149.776 94.1529 149.997 94.3469 150.015 94.3231C150.034 94.2988 149.827 94.0847 149.556 93.8473L149.064 93.4154L149.523 93.8912ZM26.1465 93.6185C26.1685 93.8702 26.3211 94.0838 26.3278 93.8726C26.3316 93.7553 26.2909 93.6328 26.2374 93.5999C26.1838 93.567 26.1427 93.5751 26.1465 93.6185ZM166.834 93.8092C166.834 93.8621 166.954 94.0113 167.101 94.141L167.369 94.376L167.126 94.0852C166.992 93.925 166.871 93.7758 166.858 93.7534C166.845 93.7314 166.834 93.7562 166.834 93.8092ZM4.67083 94.1333C4.63352 94.3011 4.62348 94.4589 4.64835 94.4837C4.67322 94.508 4.72153 94.3889 4.75597 94.2187C4.8368 93.8139 4.75836 93.7357 4.67083 94.1333ZM0.787906 94.1858C0.754424 94.2725 0.730987 94.4165 0.73577 94.5052C0.740075 94.5943 0.782645 94.5386 0.829998 94.3812C0.921355 94.0747 0.889308 93.9231 0.787906 94.1858ZM48.4367 94.069C48.4367 94.0942 48.5778 94.1638 48.751 94.2239C48.9236 94.284 49.0222 94.293 48.97 94.2439C48.8591 94.1405 48.4367 94.0018 48.4367 94.069ZM104.163 94.3641C104.301 94.5443 104.394 94.7192 104.369 94.7526C104.344 94.7855 104.354 94.7912 104.389 94.765C104.424 94.7388 104.521 94.7717 104.605 94.8379C104.688 94.9042 104.584 94.7512 104.374 94.4976C103.935 93.9679 103.79 93.8764 104.163 94.3641ZM11.8412 94.2792C11.9918 94.6382 12.1636 94.9099 12.2387 94.9099C12.2874 94.9099 12.2286 94.7679 12.1086 94.5943C11.8527 94.2253 11.7847 94.1452 11.8412 94.2792ZM128.269 94.3631C128.398 94.5219 128.764 94.7626 128.764 94.6892C128.764 94.6706 128.621 94.5514 128.447 94.4246C128.251 94.2816 128.183 94.2582 128.269 94.3631ZM49.2642 94.4246C49.2972 94.478 49.4206 94.5185 49.5378 94.5147C49.7434 94.5085 49.7439 94.5052 49.5564 94.4246C49.2881 94.3097 49.1929 94.3097 49.2642 94.4246ZM53.4508 94.7159C53.3796 94.8308 53.4752 94.8308 53.7431 94.7159C53.9306 94.6353 53.9301 94.632 53.7244 94.6258C53.6072 94.622 53.4838 94.6625 53.4508 94.7159ZM79.8856 94.7402C79.8856 94.7803 81.9452 94.8127 84.4621 94.8127H89.0381L89.0577 95.565L89.0768 96.3172L89.1108 95.5988C89.1294 95.2036 89.1093 94.8451 89.0663 94.8022C88.9673 94.703 79.8856 94.642 79.8856 94.7402ZM26.4349 94.8127C26.4349 94.8928 26.4775 95.0239 26.5291 95.104C26.6133 95.2336 26.6238 95.2336 26.6238 95.104C26.6238 95.0239 26.5813 94.8928 26.5291 94.8127C26.4454 94.6835 26.4349 94.6835 26.4349 94.8127ZM175.743 94.9705C175.568 95.1192 175.532 95.1779 175.653 95.1178C175.832 95.0296 176.167 94.7102 176.071 94.7192C176.051 94.7211 175.903 94.8341 175.743 94.9705ZM46.8788 94.9581C46.8788 95.0234 47.8642 95.5125 47.9082 95.4691C47.9278 95.4491 47.7044 95.3156 47.4117 95.1726C47.1185 95.0291 46.8788 94.9328 46.8788 94.9581ZM22.7404 95.492C22.7433 95.5721 22.7835 95.7251 22.8294 95.8319L22.9131 96.026L22.9184 95.8319C22.9212 95.7251 22.8811 95.5721 22.8294 95.492C22.7452 95.3628 22.7357 95.3628 22.7404 95.492ZM130.906 95.7671C130.986 95.8162 131.161 95.8863 131.295 95.9216C131.464 95.9668 131.494 95.9592 131.392 95.8968C131.312 95.8472 131.137 95.7776 131.003 95.7418C130.834 95.697 130.804 95.7046 130.906 95.7671ZM158.411 95.8353C158.168 95.9521 158.16 95.9654 158.363 95.9163C158.638 95.8491 158.949 95.6913 158.801 95.6937C158.748 95.6942 158.572 95.758 158.411 95.8353ZM4.07055 96.2748C4.00263 96.3425 3.34687 96.3673 2.16114 96.3473C1.16816 96.3306 0.406215 96.3492 0.468395 96.3883C0.708028 96.5399 4.10977 96.4746 4.17052 96.3172C4.23652 96.1451 4.21117 96.1342 4.07055 96.2748ZM23.0116 96.2929C23.1317 96.445 23.3316 96.4603 24.9588 96.4407L26.7726 96.4188L24.9785 96.3897C23.7497 96.3702 23.1365 96.3234 23.0312 96.2419C22.8959 96.137 22.894 96.1428 23.0116 96.2929ZM155.685 96.2686L154.419 96.3258L155.637 96.3392C156.306 96.3463 156.941 96.3144 157.049 96.2686C157.156 96.2229 157.177 96.1909 157.097 96.1981C157.016 96.2052 156.381 96.2372 155.685 96.2686ZM51.4835 96.3406C51.8471 96.3592 52.4167 96.3592 52.7491 96.3401C53.0816 96.3215 52.7841 96.3063 52.0876 96.3063C51.3917 96.3063 51.1195 96.322 51.4835 96.3406ZM64.7213 96.3392C64.9217 96.3602 65.2503 96.3602 65.4512 96.3392C65.6521 96.3182 65.488 96.301 65.0862 96.301C64.6844 96.301 64.5204 96.3182 64.7213 96.3392ZM80.9881 96.3411C82.4781 96.3563 84.8878 96.3563 86.3433 96.3411C87.7988 96.3263 86.5796 96.3139 83.6346 96.3139C80.6892 96.3139 79.4982 96.3263 80.9881 96.3411ZM109.071 96.3411C109.567 96.3582 110.377 96.3582 110.872 96.3411C111.368 96.3234 110.962 96.3087 109.972 96.3087C108.981 96.3087 108.576 96.3234 109.071 96.3411ZM119.543 96.3411C120.068 96.3582 120.901 96.3582 121.393 96.3406C121.886 96.3234 121.456 96.3087 120.439 96.3091C119.421 96.3091 119.018 96.3234 119.543 96.3411ZM133.758 96.3406C134.121 96.3592 134.691 96.3592 135.023 96.3401C135.356 96.3215 135.058 96.3063 134.362 96.3063C133.666 96.3063 133.394 96.322 133.758 96.3406ZM171.385 96.3401C171.667 96.3597 172.127 96.3597 172.408 96.3401C172.689 96.3206 172.459 96.3044 171.897 96.3044C171.334 96.3044 171.104 96.3206 171.385 96.3401ZM182.882 96.3411C184.505 96.3563 187.134 96.3563 188.724 96.3411C190.313 96.3263 188.984 96.3139 185.771 96.3139C182.558 96.3139 181.258 96.3263 182.882 96.3411Z" fill="#DEC2F3"/>
</svg>
