<svg width="375" height="251" viewBox="0 0 375 251" fill="none" xmlns="http://www.w3.org/2000/svg">
<path d="M93.6755 81.2439L98.5761 68.0845C102.794 56.76 111.748 47.5949 123.438 42.6406L146.354 32.9275C161.659 26.4371 179.7 27.9756 193.914 36.9756L222.772 55.2448C224.185 56.139 225.644 56.9643 227.148 57.7207L259.074 73.7712C277.805 83.187 288.185 102.633 284.776 121.91L279.653 150.879C275.85 172.386 255.987 187.866 232.5 187.627L133.013 186.616C116.397 186.447 100.812 178.362 91.7083 165.191L81.4872 150.401C70.9399 135.139 70.9175 115.737 81.4303 100.962L88.4471 91.0997C90.613 88.057 92.3708 84.7435 93.6755 81.2439Z" fill="#EFEEF8"/>
<path d="M243.684 20.8674H133.734V191.103H243.684V20.8674Z" fill="#D9D9F1"/>
<path d="M190.588 26.869H145.95V97.3138H190.588V26.869Z" fill="#FDFEFF"/>
<path d="M192.467 26.869H187.299V97.3138H192.467V26.869Z" fill="#C4C0DE"/>
<path d="M238.046 26.869H197.167V97.3138H238.046V26.869Z" fill="#FDFEFF"/>
<path d="M238.045 26.869H234.286V97.3138H238.045V26.869Z" fill="#C4C0DE"/>
<path d="M190.588 105.095H145.95V175.54H190.588V105.095Z" fill="#FDFEFF"/>
<path d="M192.467 105.095H187.299V175.54H192.467V105.095Z" fill="#C4C0DE"/>
<path d="M238.046 105.095H197.167V175.54H238.046V105.095Z" fill="#FDFEFF"/>
<path d="M238.045 105.095H234.286V175.54H238.045V105.095Z" fill="#C4C0DE"/>
<path d="M104.602 44.9451H72.1803V185.611H104.602V44.9451Z" fill="#D9D9F1"/>
<path d="M134.659 208.74C169.724 208.74 198.15 205.727 198.15 202.011C198.15 198.294 169.724 195.282 134.659 195.282C99.5941 195.282 71.1682 198.294 71.1682 202.011C71.1682 205.727 99.5941 208.74 134.659 208.74Z" fill="#C4C0DE"/>
<path d="M234.208 204.236C245.485 204.236 254.627 203.267 254.627 202.072C254.627 200.876 245.485 199.907 234.208 199.907C222.93 199.907 213.788 200.876 213.788 202.072C213.788 203.267 222.93 204.236 234.208 204.236Z" fill="#C4C0DE"/>
<path d="M207.974 156.84C208.479 153.897 208.733 150.916 208.732 147.93C208.732 119.493 186.029 96.4403 158.022 96.4403C130.016 96.4403 110.052 119.625 107.312 147.93C106.143 160.023 108.951 221.974 191.374 205.271C240.785 195.257 228.492 173.827 207.974 156.84Z" fill="#F59227"/>
<path d="M120.804 108.56C124.24 107.096 128.456 108.741 130.711 111.716C132.966 114.691 133.526 118.669 133.124 122.381C132.722 126.093 131.454 129.646 130.365 133.218C127.846 141.486 126.247 150.185 127.233 158.772C128.22 167.359 132.024 175.861 138.786 181.245C144.456 185.759 151.805 187.797 159.048 188.056C166.292 188.315 173.492 186.908 180.522 185.142C186.692 183.593 192.986 181.656 197.818 177.522C203.258 172.869 206.738 165.553 213.482 163.153C216.127 162.214 218.996 162.16 221.796 162.32C225.5 162.532 229.43 163.211 232.151 165.734C237.064 170.286 235.737 178.488 232.478 184.34C225.124 197.551 210.807 205.325 196.529 210.302C182.492 215.193 167.594 218.082 152.761 217.113C137.929 216.143 123.141 211.14 111.742 201.6C108.635 199 105.778 196.063 103.548 192.68C100.494 188.045 98.6947 182.699 97.3173 177.323C95.4512 170.04 94.3012 162.592 93.8838 155.086C93.544 148.972 93.7035 142.75 95.4062 136.869C98.2452 127.065 105.094 119.008 111.76 111.279L120.804 108.56Z" fill="#E58628"/>
<path d="M143.52 189.785C143.52 189.785 140.302 173.695 163.998 168.722C139.716 169.307 134.159 194.466 143.52 189.785Z" fill="#DD7F22"/>
<path d="M134.744 167.844L163.12 166.09C163.12 166.09 154.051 157.02 134.744 167.844Z" fill="#DD7F22"/>
<path d="M136.206 120.745L152.296 142.685C144.397 119.867 136.206 120.745 136.206 120.745Z" fill="#DD7F22"/>
<path d="M169.594 163.661C169.594 163.661 161.013 167.952 159.578 175.624C158.144 183.295 162.179 187.976 162.179 187.976C162.179 187.976 214.013 190.038 217.895 177.282C221.99 163.82 196.636 164.701 196.636 164.701L169.594 163.661Z" fill="#0C546D"/>
<path d="M195.994 147.928C195.994 147.928 198.595 156.903 206.135 157.03C213.676 157.157 212.117 150.009 212.117 150.009L205.095 141.818C205.095 141.818 198.071 146.108 195.994 147.928Z" fill="#EC6A64"/>
<path d="M173.237 91.0749C173.237 91.0749 175.87 88.3441 181.429 89.6126C186.987 90.881 199.372 91.6598 193.715 102.193C188.059 112.726 179.086 112.432 179.086 112.432L175.283 122.086L162.508 125.991C162.508 125.991 158.12 119.555 160.557 115.654C162.995 111.754 162.665 107.321 159.973 103.562C156.267 98.389 160.657 83.9563 173.237 91.0749Z" fill="#91272C"/>
<path d="M198.094 94.3666C196.864 92.0885 194.682 90.4331 192.306 89.4059C189.93 88.3786 187.349 87.9235 184.784 87.5709C181.763 87.1551 178.641 86.8762 175.7 87.6855C175.208 87.8201 174.705 87.9972 174.344 88.357C173.96 88.7408 173.79 89.2704 173.623 89.7993C173.306 87.8994 171.829 86.1783 169.997 85.4491C167.668 84.5221 164.972 84.9684 162.725 86.0757C158.068 88.3794 155.122 93.3049 154.063 98.3922C153.005 103.48 153.592 108.758 154.442 113.884C154.946 116.923 155.564 119.999 157.006 122.717C158.449 125.435 160.865 127.788 163.868 128.479C163.242 127.88 162.752 127.154 162.432 126.349C162.111 125.544 161.967 124.68 162.01 123.815C162.171 120.922 164.371 118.555 165.135 115.759C166.017 112.514 164.882 109.063 163.367 106.064C161.886 103.128 159.97 100.087 160.412 96.8281C160.758 94.276 162.637 92.0405 165.021 91.0661C167.405 90.0918 170.207 90.3289 172.5 91.502L173.611 91.3706C173.627 91.291 173.64 91.2109 173.65 91.1302C179.305 90.0244 185.421 91.4507 189.98 94.9844C187.277 95.978 184.284 96.0541 181.47 95.4435C178.655 94.8329 176.014 93.5589 173.629 91.9459C174.27 94.3353 174.92 96.7424 176.015 98.9611C177.111 101.18 178.698 103.223 180.841 104.459C178.075 103.677 175.352 102.112 174.058 99.5445C172.961 97.3666 173.044 94.8273 173.264 92.3754C173.308 92.2752 173.353 92.1743 173.397 92.0741C173.362 92.0741 173.326 92.0741 173.291 92.0693L173.337 91.5885L173.036 92.0565C170.493 91.99 167.942 93.2656 166.495 95.3618C164.978 97.5597 164.728 100.57 165.865 102.989C166.614 104.581 167.881 105.863 168.822 107.35C169.712 108.757 170.302 110.333 170.554 111.98C170.737 113.181 170.728 114.456 170.233 115.569C169.752 116.657 168.853 117.492 168.034 118.358C166.236 120.255 164.727 122.408 163.556 124.746C163.361 125.135 163.173 125.539 163.126 125.972C163.002 127.125 163.918 128.156 164.951 128.681C166.794 129.618 168.982 129.423 171.041 129.197C172.479 129.036 173.932 128.871 175.3 128.395C176.667 127.919 177.964 127.113 178.76 125.902C179.726 124.433 179.848 122.584 179.933 120.827C179.998 119.465 180.034 118.007 179.297 116.862C178.796 116.085 177.929 115.383 178.05 114.467C178.067 114.338 178.103 114.21 178.12 114.081C179.284 114.711 180.489 115.262 181.726 115.731C181.928 115.823 182.145 115.877 182.367 115.891C182.659 115.891 182.932 115.758 183.193 115.628L186.003 114.218C188.018 113.209 190.038 112.194 191.899 110.923C194.569 109.101 196.922 106.695 198.217 103.733C199.512 100.77 199.63 97.2111 198.094 94.3666Z" fill="#701A22"/>
<path d="M173.478 91.8874L173.397 92.0733H173.405L173.478 91.8874Z" fill="#701A22"/>
<path d="M179.801 118.218C179.801 118.218 164.689 120.536 160.461 125.793C154.636 133.032 155.422 149.1 153.992 150.27C152.562 151.44 163.744 150.92 166.864 150.27C166.994 153 168.684 165.222 168.684 165.222L196.9 164.312L195.994 147.928C195.994 147.928 202.755 144.808 205.876 141.037C202.885 134.666 198.718 123.354 194.559 121.664C190.401 119.974 179.801 118.218 179.801 118.218Z" fill="#FFBA5F"/>
<g opacity="0.5">
<path opacity="0.5" d="M152.041 149.879L169.724 148.059L169.204 134.796C169.204 134.796 172.196 150.009 170.895 150.789C169.595 151.569 155.162 154.69 152.041 149.879Z" fill="black"/>
</g>
<path d="M175.684 111.614C176.116 111.685 176.554 111.705 176.99 111.673V111.82L175.772 119.352C175.772 119.352 178.536 122.599 182.696 122.766C185.134 122.863 186.684 120.141 186.59 119.591C186.438 118.679 185.859 117.689 185.666 115.67C188.928 115.662 191.169 114.595 192.592 112.878C192.593 112.876 192.595 112.874 192.597 112.873C193.913 111.286 194.536 109.147 194.623 106.774C194.806 101.829 193.311 97.4427 191.597 97.7496C190.138 98.0108 187.081 95.7785 186.201 95.1054C186.189 95.096 186.174 95.0908 186.159 95.0907C186.144 95.0906 186.129 95.0956 186.117 95.1048C186.105 95.1141 186.097 95.1271 186.093 95.1417C186.09 95.1563 186.091 95.1717 186.097 95.1855C186.21 95.5277 186.245 96.1935 185.443 97.1206C182.601 96.9603 181.069 96.3337 181.069 96.3337C181.406 100.44 179.14 103.524 177.835 104.935C177.513 104.815 177.18 104.725 176.841 104.667C174.433 104.266 172.223 105.5 171.905 107.417C171.588 109.335 173.279 111.214 175.684 111.614Z" fill="#F3B293"/>
<path d="M177.922 104.921C179.486 103.517 181.107 102.03 181.826 100.055C182.057 99.4227 182.187 98.7584 182.315 98.0974C182.991 98.3907 183.697 98.6895 184.433 98.6583C184.812 98.639 185.181 98.5334 185.512 98.3497C185.843 98.166 186.128 97.9089 186.345 97.5982C186.399 97.4991 186.476 97.4146 186.57 97.3522C186.672 97.3092 186.783 97.2983 186.891 97.3209C187.672 97.4259 188.333 97.9211 189.041 98.2745C189.94 98.7157 190.93 98.9393 191.931 98.9272C192.933 98.915 193.917 98.6676 194.805 98.2048C194.938 98.1415 195.058 98.0546 195.16 97.9483C195.357 97.7216 195.377 97.3874 195.297 97.095C195.091 96.3378 194.349 95.8714 193.657 95.5036C191.626 94.4235 189.445 93.5309 187.151 93.3578C185.978 93.2832 184.8 93.3581 183.646 93.5805C182.016 93.8752 180.432 94.3814 178.933 95.0862C177.686 95.6727 176.449 96.4483 175.777 97.6503C175.229 98.6302 175.114 99.7905 175.097 100.913C175.093 101.191 175.199 101.573 175.477 101.54L177.922 104.921Z" fill="#EC6A64"/>
<path d="M186.589 119.594C186.437 118.682 185.858 117.692 185.665 115.673C188.927 115.665 191.168 114.598 192.59 112.881C192.423 113.019 188.607 116.143 184.257 114.059C179.816 111.927 180.758 117.64 186.589 119.594Z" fill="#EC6A64"/>
<path d="M174.599 107.683C174.56 107.836 174.569 107.997 174.627 108.145C174.683 108.29 174.772 108.42 174.885 108.528C175.111 108.736 175.392 108.877 175.694 108.936C175.983 108.998 176.284 108.985 176.567 108.898C176.836 108.812 177.062 108.631 177.128 108.395C177.193 108.16 177.096 107.889 176.91 107.674C176.715 107.453 176.467 107.285 176.189 107.186C175.901 107.078 175.588 107.053 175.286 107.112C175.134 107.144 174.99 107.209 174.865 107.303C174.739 107.399 174.646 107.532 174.599 107.683ZM174.599 107.683C174.645 107.531 174.734 107.397 174.856 107.295C174.979 107.193 175.12 107.117 175.273 107.07C175.585 106.975 175.916 106.962 176.234 107.032C176.564 107.098 176.87 107.255 177.116 107.485C177.245 107.608 177.345 107.758 177.408 107.925C177.48 108.102 177.491 108.298 177.439 108.483C177.387 108.667 177.275 108.828 177.121 108.942C176.979 109.051 176.815 109.126 176.64 109.164C176.31 109.231 175.968 109.206 175.652 109.089C175.345 108.983 175.07 108.8 174.854 108.557C174.747 108.438 174.666 108.299 174.614 108.148C174.564 107.998 174.558 107.836 174.599 107.683Z" fill="#E55757"/>
<path d="M184.447 99.8521C184.359 99.7926 184.267 99.7391 184.172 99.6918C184.075 99.6427 183.976 99.5997 183.873 99.5628C183.674 99.4883 183.465 99.4443 183.252 99.4322C183.048 99.4198 182.843 99.447 182.648 99.5124C182.456 99.5797 182.277 99.6812 182.121 99.812C182.096 99.8322 182.068 99.8473 182.037 99.8565C182.006 99.8656 181.974 99.8687 181.942 99.8654C181.91 99.8621 181.88 99.8526 181.851 99.8374C181.823 99.8222 181.798 99.8016 181.778 99.7768C181.758 99.7519 181.743 99.7234 181.734 99.6927C181.724 99.662 181.721 99.6298 181.725 99.598C181.728 99.5662 181.737 99.5353 181.753 99.5071C181.768 99.4789 181.788 99.454 181.813 99.4338L181.825 99.4258C182.034 99.271 182.27 99.1554 182.52 99.0845C182.77 99.0162 183.03 98.9963 183.287 99.026C183.536 99.0548 183.779 99.121 184.008 99.2223C184.121 99.2708 184.231 99.3265 184.337 99.389C184.445 99.4516 184.549 99.5218 184.647 99.5989C184.678 99.6252 184.698 99.6625 184.703 99.7032C184.708 99.7439 184.697 99.7849 184.672 99.8177C184.648 99.8506 184.612 99.8728 184.571 99.8797C184.531 99.8867 184.489 99.878 184.455 99.8553L184.447 99.8521Z" fill="#470E0E"/>
<path d="M191.951 100.342C191.883 100.26 191.81 100.182 191.732 100.11C191.652 100.036 191.568 99.9675 191.479 99.9043C191.308 99.7783 191.119 99.6789 190.918 99.6094C190.725 99.5421 190.52 99.5127 190.315 99.5229C190.111 99.5352 189.912 99.5844 189.726 99.6679C189.667 99.6934 189.599 99.6943 189.539 99.6703C189.479 99.6463 189.431 99.5995 189.406 99.5401C189.38 99.4807 189.38 99.4136 189.403 99.3536C189.427 99.2935 189.474 99.2455 189.534 99.22L189.547 99.2152C189.79 99.1233 190.048 99.0764 190.308 99.0765C190.567 99.0794 190.823 99.1316 191.062 99.2304C191.294 99.3263 191.51 99.4565 191.703 99.6166C191.799 99.694 191.889 99.7776 191.974 99.8666C192.061 99.9564 192.142 100.052 192.215 100.154C192.24 100.187 192.252 100.23 192.246 100.272C192.241 100.314 192.218 100.352 192.185 100.378C192.151 100.404 192.108 100.415 192.066 100.41C192.024 100.404 191.986 100.382 191.96 100.348L191.951 100.342Z" fill="#470E0E"/>
<path d="M188.872 102.487C188.872 102.487 191.527 105.484 189.902 106.184C188.706 106.698 188.46 106.01 188.256 105.432C188.053 104.855 187.954 101.98 188.872 102.487Z" fill="#EC6A64"/>
<path d="M191.736 103.529C192.249 103.529 192.665 103.113 192.665 102.601C192.665 102.088 192.249 101.672 191.736 101.672C191.224 101.672 190.808 102.088 190.808 102.601C190.808 103.113 191.224 103.529 191.736 103.529Z" fill="#470E0E"/>
<path d="M183.24 103.454C183.753 103.454 184.169 103.038 184.169 102.525C184.169 102.012 183.753 101.597 183.24 101.597C182.727 101.597 182.312 102.012 182.312 102.525C182.312 103.038 182.727 103.454 183.24 103.454Z" fill="#470E0E"/>
<path d="M181.958 108.921C183.254 108.921 184.304 107.871 184.304 106.576C184.304 105.28 183.254 104.23 181.958 104.23C180.663 104.23 179.613 105.28 179.613 106.576C179.613 107.871 180.663 108.921 181.958 108.921Z" fill="#DB4949"/>
<path d="M188.416 110.766C188.031 110.768 187.648 110.698 187.289 110.561C186.884 110.41 186.517 110.171 186.217 109.86C186.196 109.836 186.18 109.808 186.17 109.778C186.16 109.748 186.155 109.716 186.158 109.684C186.16 109.652 186.168 109.621 186.182 109.592C186.196 109.563 186.216 109.538 186.24 109.517C186.264 109.496 186.292 109.48 186.322 109.469C186.353 109.459 186.385 109.455 186.416 109.457C186.448 109.459 186.479 109.468 186.508 109.482C186.537 109.496 186.562 109.516 186.583 109.54C186.635 109.597 187.865 110.94 189.997 109.872C190.055 109.843 190.122 109.839 190.183 109.859C190.244 109.879 190.295 109.923 190.324 109.981C190.353 110.039 190.358 110.106 190.337 110.167C190.317 110.229 190.273 110.279 190.215 110.308C189.66 110.6 189.043 110.757 188.416 110.766Z" fill="#470E0E"/>
<g opacity="0.5">
<path opacity="0.5" d="M195.994 147.928C195.994 147.928 195.474 145.588 195.962 143.15C196.45 140.713 194.206 135.934 194.498 134.471C194.791 133.008 200.057 145.689 200.057 145.689L195.994 147.928Z" fill="black"/>
</g>
<path d="M192.199 111.201L191.354 111.923C191.192 112.062 191.173 112.307 191.312 112.469L201.249 124.083C201.387 124.245 201.632 124.264 201.794 124.125L202.639 123.403C202.801 123.264 202.82 123.019 202.681 122.857L192.744 111.243C192.605 111.081 192.361 111.062 192.199 111.201Z" fill="#E0473E"/>
<path d="M211.994 126.669C211.844 125.904 211.441 125.211 210.85 124.702C209.236 123.311 205.893 120.573 204.44 120.428C202.49 120.233 197.126 123.354 197.906 124.329C198.402 124.929 199.038 125.397 199.759 125.691C199.759 125.691 199.857 127.251 200.734 127.349C201.611 127.447 202.684 127.349 202.684 127.349C202.684 127.349 202.977 128.711 203.659 128.617C204.342 128.522 205.123 128.422 205.123 128.422C205.123 128.422 205.708 129.007 206.39 129.202C207.073 129.396 194.909 154.402 206 156.702C217.697 159.131 213.153 132.617 211.994 126.669Z" fill="#F3B293"/>
<path d="M199.274 125.889L199.81 125.451L201.954 123.5C201.954 123.5 199.907 123.988 199.907 124.378C199.907 124.768 199.274 125.889 199.274 125.889Z" fill="#EC6A64"/>
<path d="M201.175 127.937L204.051 125.5L202.394 128.23L201.175 127.937Z" fill="#EC6A64"/>
<path d="M204.487 128.912C204.487 128.912 204.828 127.839 205.755 127.888C206.681 127.937 206.974 128.717 206.193 129.351C205.413 129.985 204.487 128.912 204.487 128.912Z" fill="#EC6A64"/>
<path d="M199.907 127.254C200.053 127.206 202.588 124.524 202.588 124.524L199.614 126.815L199.907 127.254Z" fill="#EC6A64"/>
<path d="M157.242 151.146C157.242 151.146 155.78 164.994 161.338 166.75C166.897 168.505 174.599 153 174.599 153L183.474 149.099C183.474 149.099 183.57 145.881 178.597 146.855C173.623 147.83 172.648 150.268 172.648 150.268L166.993 153.097L166.862 150.268C166.862 150.268 163.386 150.952 157.242 151.146Z" fill="#F3B293"/>
<path d="M161.631 157.29C161.631 157.29 162.8 154.852 167.384 152.902C171.967 150.952 163.483 153.097 161.728 154.169C159.974 155.242 161.631 157.29 161.631 157.29Z" fill="#EC6A64"/>
<path d="M152.979 216C150.049 211.161 155.014 193.715 155.014 193.715L160.519 190.626L165.732 187.702L173.104 199.207C173.104 199.207 167.045 200.816 164.403 203.257C164.16 203.49 163.934 203.741 163.728 204.008C160.922 207.561 156.08 217.936 152.979 216Z" fill="#F3B293"/>
<path d="M163.532 183.422C163.532 183.422 160.068 203.988 169.17 204.729C178.272 205.47 176.34 193.258 176.34 193.258L163.532 183.422Z" fill="#EC6A64"/>
<path d="M152.979 216C150.049 211.161 155.014 193.715 155.014 193.715L160.519 190.626C159.7 193.911 158.236 202.21 163.73 204.008C160.922 207.561 156.08 217.936 152.979 216Z" fill="#D64E37"/>
<path d="M161.403 207.839C161.351 207.839 161.3 207.822 161.258 207.79C161.217 207.759 161.186 207.714 161.172 207.664C160.171 204.133 158.012 204.425 157.99 204.428C157.927 204.438 157.862 204.422 157.811 204.385C157.759 204.347 157.725 204.291 157.715 204.228C157.705 204.165 157.721 204.1 157.759 204.049C157.796 203.997 157.853 203.963 157.916 203.953C158.022 203.937 160.519 203.597 161.635 207.533C161.652 207.595 161.644 207.66 161.613 207.716C161.582 207.771 161.53 207.812 161.469 207.83C161.447 207.836 161.425 207.839 161.403 207.839Z" fill="white"/>
<path d="M160.096 210.632C160.044 210.632 159.993 210.615 159.952 210.583C159.91 210.552 159.88 210.507 159.865 210.457C158.865 206.925 156.705 207.218 156.684 207.221C156.652 207.226 156.62 207.224 156.59 207.217C156.559 207.21 156.53 207.196 156.505 207.178C156.479 207.159 156.457 207.135 156.441 207.109C156.425 207.082 156.414 207.052 156.409 207.02C156.404 206.989 156.405 206.957 156.412 206.927C156.42 206.896 156.433 206.867 156.452 206.842C156.471 206.816 156.494 206.794 156.521 206.778C156.548 206.761 156.578 206.75 156.609 206.746C156.715 206.73 159.212 206.389 160.328 210.326C160.345 210.387 160.337 210.453 160.306 210.508C160.275 210.564 160.223 210.605 160.162 210.622C160.141 210.629 160.118 210.632 160.096 210.632Z" fill="white"/>
<path d="M163.451 186.741C163.451 186.741 208.145 160.177 218.452 171.788C228.724 183.36 207.399 190.378 207.399 190.378L169.302 201.56C169.302 201.56 163.971 191.942 163.451 186.741Z" fill="#116D96"/>
<g opacity="0.5">
<path opacity="0.5" d="M168.36 174.454L162.703 199.419L189.228 201.564L187.863 168.017L168.36 174.454Z" fill="black"/>
</g>
<path d="M186.693 147.734C186.693 147.734 186.667 147.774 186.623 147.859C186.363 148.351 185.409 150.333 184.743 154.169C183.962 158.657 174.211 152.317 174.211 152.317C174.359 152.157 179.191 147.133 186.104 145.885L186.693 147.734Z" fill="#636892"/>
<path d="M186.693 147.734C186.693 147.734 186.667 147.774 186.623 147.859C181.522 148.714 174.382 152.233 174.215 152.313C174.363 152.153 179.195 147.129 186.108 145.881L186.693 147.734Z" fill="white"/>
<path d="M186.205 221.263C180.549 221.361 167.969 208.294 167.969 208.294L168.069 201.982L168.164 196.006L181.817 195.421C181.817 195.421 180.159 201.468 180.936 204.978C181.015 205.306 181.119 205.627 181.246 205.939C182.909 210.153 189.439 219.556 186.205 221.263Z" fill="#F3B293"/>
<path d="M165.629 197.078C165.629 197.078 175.966 204.879 182.402 204.1C188.839 203.32 183.962 190.447 183.962 190.447L166.214 190.641L165.629 197.078Z" fill="#EC6A64"/>
<path d="M186.205 221.263C180.549 221.361 167.969 208.294 167.969 208.294L168.069 201.982C170.499 204.344 176.931 209.783 181.249 205.939C182.909 210.153 189.439 219.556 186.205 221.263Z" fill="#D64E37"/>
<path d="M178.501 211.263C178.471 211.263 178.441 211.257 178.413 211.246C178.354 211.222 178.307 211.176 178.281 211.118C178.256 211.06 178.254 210.995 178.277 210.935C178.317 210.836 179.278 208.506 183.245 209.523C183.306 209.54 183.357 209.58 183.388 209.634C183.419 209.689 183.428 209.753 183.412 209.814C183.397 209.875 183.358 209.927 183.305 209.959C183.251 209.992 183.187 210.002 183.126 209.988C179.594 209.083 178.761 211.03 178.728 211.11C178.71 211.156 178.679 211.195 178.638 211.222C178.598 211.249 178.55 211.264 178.501 211.263Z" fill="white"/>
<path d="M180.256 213.799C180.217 213.798 180.179 213.789 180.144 213.771C180.11 213.752 180.08 213.726 180.058 213.694C180.036 213.661 180.022 213.624 180.018 213.585C180.013 213.547 180.019 213.507 180.033 213.471C180.072 213.371 181.034 211.042 185.001 212.058C185.061 212.075 185.112 212.115 185.144 212.17C185.175 212.224 185.184 212.288 185.168 212.349C185.152 212.41 185.114 212.462 185.06 212.495C185.007 212.527 184.943 212.538 184.881 212.524C181.349 211.618 180.517 213.565 180.483 213.645C180.465 213.691 180.434 213.73 180.394 213.757C180.353 213.785 180.305 213.799 180.256 213.799Z" fill="white"/>
<path d="M168.684 165.222L164.913 198.507L182.987 200.327C182.987 200.327 197.811 143.246 175.576 151.958C168.814 154.95 168.684 165.222 168.684 165.222Z" fill="#116D96"/>
<path d="M174.211 166.75C174.211 166.75 164.556 174.649 162.703 178.842L160.655 178.549L160.948 163.532C160.948 163.532 170.603 153.195 176.063 151.439C170.895 157.875 174.211 166.75 174.211 166.75Z" fill="white"/>
<path d="M170.994 152.513C170.784 153.361 170.615 154.214 170.47 155.069C170.326 155.925 170.208 156.784 170.133 157.647C170.058 158.51 169.998 159.375 169.985 160.242C169.958 161.109 169.995 161.976 170.018 162.851C169.856 161.99 169.761 161.118 169.735 160.243C169.708 159.805 169.727 159.367 169.729 158.928C169.734 158.71 169.753 158.491 169.764 158.272L169.784 157.943L169.814 157.617C169.839 157.399 169.857 157.18 169.887 156.963C169.918 156.746 169.945 156.528 169.978 156.312C170.053 155.88 170.126 155.448 170.225 155.021C170.408 154.165 170.666 153.325 170.994 152.513Z" fill="#D8D8D8"/>
<path d="M167.287 155.535C167.293 156.285 167.303 157.032 167.301 157.778C167.301 158.152 167.297 158.525 167.297 158.9L167.284 160.022L167.26 161.144C167.248 161.517 167.241 161.891 167.224 162.266C167.196 163.012 167.159 163.76 167.091 164.509C167.026 163.761 166.993 163.013 166.974 162.266C166.962 161.891 166.963 161.517 166.958 161.144L166.964 160.022C166.974 159.648 166.981 159.274 166.995 158.9C167.01 158.527 167.026 158.152 167.052 157.778C167.092 157.027 167.17 156.278 167.287 155.535Z" fill="#D8D8D8"/>
<path d="M164.556 158.46C164.553 159.242 164.567 160.021 164.598 160.795C164.63 161.571 164.678 162.346 164.752 163.119C164.779 163.505 164.832 163.89 164.87 164.275C164.922 164.659 164.966 165.044 165.031 165.427C165.136 166.197 165.295 166.956 165.436 167.726C165.369 167.543 165.305 167.359 165.242 167.173L165.149 166.895C165.119 166.801 165.095 166.706 165.069 166.613L164.914 166.045C164.867 165.855 164.829 165.663 164.785 165.472L164.723 165.185C164.704 165.089 164.689 164.992 164.672 164.895L164.573 164.315C164.524 163.927 164.47 163.538 164.437 163.148C164.404 162.758 164.379 162.366 164.361 161.975L164.349 161.387C164.349 161.191 164.349 160.995 164.353 160.799C164.361 160.016 164.429 159.234 164.556 158.46Z" fill="#D8D8D8"/>
<path d="M162.801 164.019C162.869 164.67 162.911 165.321 162.947 165.971C162.968 166.296 162.978 166.621 162.997 166.946L163.037 167.921L163.103 169.87C163.127 170.52 163.146 171.168 163.191 171.821C163.025 171.187 162.913 170.54 162.854 169.887C162.834 169.727 162.82 169.562 162.807 169.399C162.794 169.237 162.78 169.074 162.768 168.911C162.747 168.585 162.732 168.259 162.717 167.933C162.703 167.607 162.698 167.281 162.694 166.955C162.69 166.629 162.69 166.302 162.694 165.976C162.709 165.323 162.736 164.671 162.801 164.019Z" fill="#D8D8D8"/>
<path d="M174.211 166.75C174.211 166.75 164.556 174.649 162.703 178.842L160.655 178.549C160.655 178.549 164.654 171.333 171.578 166.262C171.09 161.972 171.968 153.194 176.065 151.439C170.895 157.875 174.211 166.75 174.211 166.75Z" fill="#636892"/>
<path d="M246.665 187.323C246.665 187.323 245.964 184.363 251.807 178.677C257.65 172.99 259.441 173.379 264.349 171.355C269.256 169.33 267.308 170.264 261.155 175.872C255.001 181.48 255.626 180.391 252.196 182.65C248.767 184.908 246.743 186.779 246.665 187.323Z" fill="#353479"/>
<path d="M246.613 188.725C246.613 188.725 247.314 185.766 241.471 180.079C235.628 174.392 233.837 174.782 228.929 172.757C224.021 170.732 225.969 171.664 232.123 177.273C238.277 182.882 237.652 181.791 241.081 184.05C244.511 186.309 246.534 188.181 246.613 188.725Z" fill="#5155AA"/>
<path d="M246.336 188.726C246.336 188.726 249.675 186.603 249.392 176C249.108 165.398 247.085 164.135 244.349 157.793C241.614 151.451 242.581 154.09 243.228 164.903C243.874 175.715 244.281 174.133 245.425 179.35C246.57 184.566 246.758 188.147 246.336 188.726Z" fill="#5155AA"/>
<path d="M246.255 188.726C246.255 188.726 248.252 185.309 243.144 176.014C238.035 166.719 235.659 166.522 230.323 162.137C224.987 157.753 227.055 159.653 232.58 168.972C238.106 178.291 237.745 176.696 241.15 180.809C244.556 184.922 246.365 188.017 246.255 188.726Z" fill="#353479"/>
<path d="M252.938 202.526H238.567L236.395 188.036H254.704L252.938 202.526Z" fill="#8A8CC6"/>
<path d="M235.798 204.406C240.555 201.957 245.365 198.887 247.711 194.079C248.865 191.705 249.339 189.059 249.082 186.432C249.03 185.907 248.981 185.288 249.38 184.94C249.7 184.659 250.181 184.686 250.609 184.731C253.584 185.052 256.939 185.752 258.469 188.323C259.155 189.476 259.36 190.847 259.457 192.185C259.698 195.538 259.247 199.193 256.973 201.666C254.927 203.889 251.811 204.737 248.84 205.284C245.077 205.977 241.263 206.353 237.438 206.406C236.094 206.425 234.714 206.396 233.467 205.885C232.22 205.374 231.135 204.273 231.018 202.933L235.798 204.406Z" fill="#636892"/>
<path d="M255.213 184.819H235.885C235.428 184.819 235.058 185.189 235.058 185.646V188.637C235.058 189.094 235.428 189.464 235.885 189.464H255.213C255.67 189.464 256.041 189.094 256.041 188.637V185.646C256.041 185.189 255.67 184.819 255.213 184.819Z" fill="#636892"/>
<path d="M205.392 104.652C206.442 104.652 207.293 103.931 207.293 103.043C207.293 102.154 206.442 101.434 205.392 101.434C204.342 101.434 203.49 102.154 203.49 103.043C203.49 103.931 204.342 104.652 205.392 104.652Z" fill="#C4C0DE"/>
<path d="M213.144 102.019C214.275 102.019 215.192 101.168 215.192 100.117C215.192 99.0672 214.275 98.2159 213.144 98.2159C212.013 98.2159 211.096 99.0672 211.096 100.117C211.096 101.168 212.013 102.019 213.144 102.019Z" fill="#C4C0DE"/>
<path d="M264.046 57.26C242.53 57.26 225.005 71.5781 224.286 89.4715C221.155 89.7744 218.702 92.5966 218.702 96.0252C218.702 99.6607 221.453 102.608 224.845 102.608C225.499 102.606 226.147 102.492 226.763 102.273C232.405 114.938 246.967 123.958 264.045 123.958C286.018 123.958 303.83 109.027 303.83 90.6078C303.83 72.1887 286.019 57.26 264.046 57.26Z" fill="#C4C0DE"/>
<path d="M300.925 87.0605C301.335 89.4288 301.466 91.8371 301.314 94.236C301.161 96.6349 300.732 99.0083 300.038 101.31C299.343 103.611 298.404 105.831 297.237 107.933C296.069 110.034 294.695 112.014 293.135 113.844C290.022 117.508 286.219 120.575 282.013 122.905C277.807 125.235 273.199 126.831 268.457 127.674C263.715 128.517 258.834 128.581 254.072 127.818C249.31 127.054 244.674 125.477 240.483 123.076C238.385 121.878 236.41 120.474 234.589 118.885C232.766 117.294 231.121 115.511 229.682 113.566C228.244 111.619 227.035 109.513 226.076 107.29C224.152 102.826 223.312 97.9699 223.627 93.119C223.785 90.7031 224.22 88.3133 224.922 85.9964C225.625 83.6813 226.576 81.4492 227.76 79.3393C228.942 77.2306 230.331 75.2443 231.905 73.4099C235.043 69.7408 238.885 66.6959 243.109 64.3858C247.333 62.0757 251.964 60.5044 256.708 59.6943C261.453 58.8842 266.333 58.8482 271.079 59.639C275.825 60.4299 280.435 62.0357 284.596 64.4467C286.68 65.6475 288.639 67.0518 290.446 68.639C292.25 70.2273 293.879 72.0043 295.305 73.9395C296.732 75.8742 297.932 77.9661 298.882 80.1743C299.83 82.3816 300.516 84.6929 300.925 87.0605ZM300.925 87.0605C300.514 84.6911 299.827 82.3783 298.876 80.1695C297.923 77.9637 296.721 75.8743 295.293 73.9419C293.865 72.011 292.231 70.2405 290.421 68.6615C288.612 67.0825 286.65 65.6868 284.566 64.4948C280.399 62.1086 275.789 60.5373 271.058 59.7825C266.327 59.0277 261.468 59.1014 256.752 59.9259C252.037 60.7504 247.454 62.345 243.272 64.6695C239.09 66.994 235.31 70.0381 232.214 73.6751C230.664 75.4929 229.299 77.4601 228.139 79.5477C226.98 81.6343 226.048 83.8389 225.358 86.1238C224.669 88.4074 224.244 90.7625 224.091 93.143C223.792 97.9193 224.618 102.699 226.502 107.098C227.445 109.289 228.636 111.366 230.051 113.286C231.467 115.207 233.085 116.971 234.876 118.548C236.67 120.126 238.616 121.522 240.686 122.715C244.821 125.107 249.405 126.709 254.122 127.49C258.839 128.271 263.692 128.23 268.414 127.435C273.135 126.639 277.732 125.072 281.937 122.769C286.142 120.465 289.959 117.443 293.081 113.794C294.645 111.973 296.025 110.001 297.2 107.907C298.374 105.812 299.319 103.596 300.017 101.298C300.713 98.998 301.143 96.6262 301.299 94.2287C301.455 91.8329 301.329 89.4271 300.925 87.0605Z" fill="#D9D6ED"/>
<path d="M302.211 107.875C301.642 96.8017 286.288 87.9283 267.429 87.9283C248.57 87.9283 233.214 96.8017 232.647 107.875H302.211Z" fill="#D0B18C"/>
<path d="M259.648 99.5284C259.648 99.5284 253.848 105.258 252.079 107.942H273.653C273.653 107.942 274.148 101.932 275.067 99.7368C275.987 97.5413 259.648 99.5284 259.648 99.5284Z" fill="#AF915F"/>
<path d="M293.211 57.0541L292.427 61.9323L291.3 68.9372L283.662 64.7993L284.211 56.9075L284.298 55.6743L293.211 57.0541Z" fill="#BA2E27"/>
<path d="M293.211 57.0541L292.427 61.9323L284.211 56.9075L284.298 55.6743L293.211 57.0541Z" fill="#DB4A3C"/>
<path d="M295.032 54.9176L283.801 53.2631L283.229 57.1466L294.46 58.8011L295.032 54.9176Z" fill="#BA2E27"/>
<path d="M292.574 71.1647V90.7929L242.813 90.8994V70.6342L267.853 55.3562L292.574 71.1647Z" fill="#F59227"/>
<path d="M251.738 75.5694C250.845 75.603 249.928 75.6367 248.998 75.6623C248.533 75.6783 248.063 75.6856 247.594 75.6968C247.124 75.708 246.651 75.7112 246.179 75.7176H246.034V75.5678C246.024 74.8201 246.026 74.0725 246.022 73.3241V73.1638H246.182L247.571 73.1695C248.034 73.1695 248.498 73.1775 248.961 73.1823C249.424 73.1871 249.888 73.1951 250.351 73.2039C250.814 73.2127 251.277 73.2248 251.74 73.2376H251.829V73.3177C251.821 73.7023 251.803 74.0829 251.789 74.4588L251.738 75.5694ZM251.738 75.5694L251.691 74.4291C251.678 74.0565 251.66 73.6903 251.651 73.3265L251.738 73.4131C251.275 73.4259 250.812 73.4387 250.349 73.4467C249.885 73.4547 249.422 73.4643 248.958 73.4683C248.494 73.4724 248.032 73.4812 247.569 73.482L246.179 73.4868L246.34 73.3265C246.335 74.0741 246.34 74.8218 246.328 75.5702L246.179 75.4227C246.634 75.4291 247.088 75.4315 247.542 75.4428C247.995 75.454 248.455 75.462 248.917 75.4772C249.84 75.5029 250.778 75.5357 251.738 75.5694Z" fill="#DD7F3A"/>
<path d="M277.58 68.8409C276.688 68.8745 275.77 68.9074 274.84 68.9338C274.375 68.949 273.906 68.9571 273.436 68.9683C272.966 68.9795 272.494 68.9819 272.022 68.9883H271.876V68.8385C271.865 68.0909 271.868 67.3433 271.863 66.5949V66.4347H272.023L273.414 66.4395C273.877 66.4395 274.34 66.4475 274.803 66.4523C275.266 66.4571 275.729 66.4651 276.192 66.4748C276.656 66.4844 277.119 66.4956 277.582 66.5076H277.671V66.5925C277.662 66.9763 277.644 67.3577 277.631 67.7327L277.58 68.8409ZM277.58 68.8409L277.534 67.6999C277.52 67.3273 277.502 66.9611 277.494 66.5982L277.58 66.6847C277.117 66.6967 276.654 66.7103 276.191 66.7175C275.728 66.7248 275.264 66.736 274.801 66.74C274.338 66.744 273.875 66.7528 273.412 66.7528L272.022 66.7576L272.182 66.5974C272.182 67.3449 272.182 68.0925 272.17 68.8409L272.022 68.6926C272.477 68.699 272.931 68.7023 273.384 68.7135C273.837 68.7247 274.297 68.7319 274.76 68.7479C275.685 68.7736 276.62 68.8072 277.58 68.8409Z" fill="#DD7F3A"/>
<path d="M285.838 84.3466C286.516 84.3129 287.17 84.2793 287.81 84.2536C288.131 84.2376 288.446 84.2304 288.762 84.2192C289.078 84.2079 289.391 84.2047 289.704 84.1983L289.557 84.3466C289.546 83.8257 289.549 83.3049 289.544 82.7857L289.704 82.9459L288.738 82.9411C288.417 82.9411 288.097 82.9331 287.771 82.9283C287.445 82.9235 287.13 82.9155 286.804 82.9059C286.479 82.8962 286.163 82.885 285.838 82.873L285.925 82.7857C285.916 83.0357 285.898 83.2881 285.885 83.5469L285.838 84.3466ZM285.838 84.3466L285.791 83.5854C285.777 83.3241 285.76 83.0565 285.751 82.7841V82.7039H285.84C286.161 82.6911 286.482 82.6783 286.807 82.6711C287.132 82.6639 287.448 82.6527 287.773 82.6486C288.098 82.6446 288.414 82.6358 288.74 82.6358L289.707 82.6302H289.867V82.7905C289.863 83.3105 289.867 83.8321 289.855 84.3514V84.502H289.71C289.38 84.4956 289.048 84.4932 288.719 84.482C288.391 84.4708 288.062 84.4628 287.738 84.4475C287.084 84.4131 286.449 84.3794 285.838 84.3466Z" fill="#DD7F3A"/>
<path d="M250.828 80.1526C251.506 80.1198 252.16 80.0861 252.8 80.0597C253.121 80.0445 253.437 80.0364 253.753 80.0252C254.07 80.014 254.381 80.0116 254.695 80.0052L254.547 80.1526C254.538 79.6326 254.54 79.1109 254.535 78.5925L254.695 78.7527L253.728 78.7479C253.408 78.7479 253.087 78.7391 252.762 78.7343C252.437 78.7295 252.121 78.7215 251.795 78.7127C251.469 78.7039 251.154 78.6918 250.828 78.679L250.915 78.5925C250.906 78.8425 250.889 79.0949 250.875 79.3537L250.828 80.1526ZM250.828 80.1526L250.782 79.3922C250.768 79.1302 250.751 78.8633 250.742 78.5909V78.5107H250.832C251.152 78.4979 251.473 78.4851 251.798 78.4771C252.123 78.4691 252.439 78.4595 252.765 78.4555C253.091 78.4514 253.406 78.4426 253.732 78.4426L254.699 78.437H254.859V78.5973C254.854 79.1173 254.859 79.639 254.846 80.1575V80.3081H254.701C254.37 80.3017 254.039 80.2985 253.71 80.2873C253.381 80.276 253.053 80.2688 252.729 80.2528C252.074 80.22 251.442 80.1863 250.828 80.1526Z" fill="#DD7F3A"/>
<path d="M274.038 72.6438C273.427 72.6775 272.792 72.7111 272.143 72.7368C271.823 72.7528 271.491 72.76 271.163 72.7712C270.834 72.7825 270.502 72.7857 270.171 72.7921H270.026V72.6414C270.017 72.1214 270.019 71.5998 270.014 71.0813V70.9211H270.175L271.141 70.9259C271.462 70.9259 271.786 70.9347 272.108 70.9395C272.43 70.9443 272.749 70.9523 273.074 70.9611C273.4 70.97 273.716 70.982 274.042 70.9948H274.131V71.0749C274.123 71.3458 274.105 71.6126 274.091 71.8762L274.038 72.6438ZM274.038 72.6438L273.992 71.8426C273.978 71.5845 273.961 71.3313 273.951 71.0821L274.038 71.1687C273.718 71.1815 273.397 71.1943 273.071 71.2023C272.745 71.2103 272.43 71.22 272.105 71.224C271.78 71.228 271.464 71.2368 271.138 71.2368L270.171 71.2424L270.332 71.0821C270.327 71.6022 270.332 72.1238 270.32 72.6422L270.171 72.4948C270.485 72.5004 270.798 72.5036 271.114 72.5148C271.429 72.526 271.745 72.5341 272.066 72.5493C272.704 72.5773 273.357 72.6102 274.038 72.6438Z" fill="#DD7F3A"/>
<path d="M249.137 86.2969C248.526 86.3297 247.89 86.3634 247.242 86.3898C246.922 86.405 246.59 86.4131 246.261 86.4243C245.933 86.4355 245.601 86.4379 245.27 86.4443H245.125V86.2937C245.115 85.7736 245.118 85.252 245.113 84.7328V84.5725H245.273L246.24 84.5773C246.56 84.5773 246.881 84.5853 247.207 84.5901C247.533 84.5949 247.848 84.603 248.173 84.6126C248.498 84.6222 248.818 84.6326 249.14 84.6454H249.229V84.7256C249.22 84.9964 249.203 85.264 249.189 85.5268L249.137 86.2969ZM249.137 86.2969L249.091 85.4956C249.076 85.2368 249.059 84.9844 249.05 84.7344L249.137 84.8217C248.817 84.8337 248.492 84.8474 248.17 84.8546C247.848 84.8618 247.529 84.873 247.204 84.877C246.878 84.881 246.563 84.8898 246.236 84.8898L245.27 84.8946L245.43 84.7344C245.426 85.2552 245.43 85.776 245.418 86.2953L245.27 86.147C245.583 86.1534 245.897 86.1566 246.212 86.1679C246.528 86.1791 246.844 86.1863 247.165 86.2023C247.805 86.2296 248.458 86.2632 249.137 86.2969Z" fill="#DD7F3A"/>
<path d="M292.467 91.4299H243.344V100.236H292.467V91.4299Z" fill="#D87819"/>
<path d="M247.058 89.8385H246.209V101.722H247.058V89.8385Z" fill="#FFBA76"/>
<path d="M252.362 89.8385H251.514V101.722H252.362V89.8385Z" fill="#FFBA76"/>
<path d="M257.667 89.8385H256.819V101.722H257.667V89.8385Z" fill="#FFBA76"/>
<path d="M262.972 89.8385H262.124V101.722H262.972V89.8385Z" fill="white"/>
<path d="M263.132 101.882H261.963V89.6783H263.132V101.882ZM262.284 101.561H262.812V89.9988H262.284V101.561Z" fill="black"/>
<path d="M268.277 89.8385H267.429V101.722H268.277V89.8385Z" fill="white"/>
<path d="M268.438 101.882H267.268V89.6783H268.438V101.882ZM267.589 101.561H268.117V89.9988H267.589V101.561Z" fill="black"/>
<path d="M273.582 89.8385H272.733V101.722H273.582V89.8385Z" fill="white"/>
<path d="M273.743 101.882H272.573V89.6783H273.743V101.882ZM272.893 101.561H273.422V89.9988H272.893V101.561Z" fill="black"/>
<path d="M278.887 89.8385H278.038V101.722H278.887V89.8385Z" fill="#FFBA76"/>
<path d="M284.191 89.8385H283.343V101.722H284.191V89.8385Z" fill="#FFBA76"/>
<path d="M289.497 89.8385H288.648V101.722H289.497V89.8385Z" fill="#FFBA76"/>
<path d="M274.525 93.2528H259.805V95.5749H274.525V93.2528Z" fill="#8F5733"/>
<path d="M258.321 95.756C258.467 95.756 272.51 94.9267 272.51 94.9267L275.776 95.6583L258.321 95.756Z" fill="#6D3B20"/>
<path d="M274.525 93.2528H272.378V95.5749H274.525V93.2528Z" fill="#6D3B20"/>
<path d="M275.13 95.4595H258.869V97.9435H275.13V95.4595Z" fill="#8F5733"/>
<path d="M275.13 95.4595H272.759V97.9435H275.13V95.4595Z" fill="#6D3B20"/>
<path d="M275.841 97.869H257.954V100.578H275.841V97.869Z" fill="#8F5733"/>
<path d="M255.444 97.7063L274.85 98.7793L276.995 97.5116L255.444 97.7063Z" fill="#6D3B20"/>
<path d="M275.841 97.869H273.233V100.578H275.841V97.869Z" fill="#6D3B20"/>
<path d="M293.111 90.1566H242.172C242.116 90.1566 242.072 90.2015 242.072 90.2568V91.8602C242.072 91.9155 242.116 91.9603 242.172 91.9603H293.111C293.166 91.9603 293.211 91.9155 293.211 91.8602V90.2568C293.211 90.2015 293.166 90.1566 293.111 90.1566Z" fill="#FFBA76"/>
<path d="M273.901 74.0293H261.699V93.2328H273.901V74.0293Z" fill="#6D78A0"/>
<path d="M272.648 75.3025H262.739V91.9603H272.648V75.3025Z" fill="#877FB9"/>
<path d="M270.559 84.4275C270.94 84.4275 271.248 84.1186 271.248 83.7376C271.248 83.3566 270.94 83.0477 270.559 83.0477C270.178 83.0477 269.869 83.3566 269.869 83.7376C269.869 84.1186 270.178 84.4275 270.559 84.4275Z" fill="white"/>
<path d="M257.455 73.2872H246.562V88.7776H257.455V73.2872Z" fill="white"/>
<path d="M256.111 74.7721H247.836V77.8843H256.111V74.7721Z" fill="#8E8DC7"/>
<path d="M256.111 79.9356H247.836V87.2921H256.111V79.9356Z" fill="#8E8DC7"/>
<g opacity="0.58">
<g opacity="0.53">
<path opacity="0.53" d="M251.393 77.7859L249.463 76.5804L244.125 85.1271L246.055 86.3327L251.393 77.7859Z" fill="white"/>
</g>
<g opacity="0.53">
<path opacity="0.53" d="M246.682 87.2953L247.067 87.2841L252.991 77.8001L252.607 77.8113L246.682 87.2953Z" fill="white"/>
</g>
</g>
<path d="M288.577 73.2872H277.684V88.7776H288.577V73.2872Z" fill="white"/>
<path d="M287.233 74.7721H278.958V77.8843H287.233V74.7721Z" fill="#8E8DC7"/>
<path d="M287.233 79.9356H278.958V87.2921H287.233V79.9356Z" fill="#8E8DC7"/>
<g opacity="0.38">
<path opacity="0.38" d="M285.183 80.0491L284.023 79.2288L277.405 88.5846L278.565 89.4049L285.183 80.0491Z" fill="white"/>
<path opacity="0.38" d="M286.904 79.0316L286.346 78.6388L278.94 89.168L279.499 89.5607L286.904 79.0316Z" fill="white"/>
</g>
<path d="M266.474 67.2392V61.4043L257.88 67.3458L266.474 67.2392Z" fill="white"/>
<path d="M267.853 67.1333V60.7672L278.569 67.2391L267.853 67.1333Z" fill="white"/>
<g opacity="0.38">
<path opacity="0.38" d="M292.574 71.1647V75.6575L269.656 62.9956L242.813 76.5742V70.6343L267.853 55.3562L292.574 71.1647Z" fill="#A06122"/>
</g>
<path d="M296.924 71.1647L294.469 74.1927L293.741 75.0909L267.853 58.2208L240.798 74.9844L239.762 73.7216L237.402 70.8466L265.307 53.7648H271.354L296.924 71.1647Z" fill="#DB4A3C"/>
<path d="M294.681 73.9804L293.741 75.0909L267.853 58.2207L240.798 74.9844L239.974 73.9339L267.853 56.9475L294.681 73.9804Z" fill="#BA2E27"/>
<path d="M282.557 101.632C281.642 100.59 279.634 99.0004 278.816 98.8594C280.471 98.2945 282.261 98.3281 283.817 98.9876C283.373 97.3121 283.633 96.3434 284.755 95.4708C284.859 96.4684 285.526 97.6631 285.576 98.647C286.423 96.7616 287.836 95.1903 289.855 94.7833C288.914 96.2152 289.147 97.0012 288.884 98.4956C288.746 98.6778 288.738 98.6719 288.857 98.478C289.873 96.8978 291.431 96.0252 293.32 95.9507C292.446 97.0557 292.288 97.9395 291.687 99.236C291.57 99.4315 291.562 99.4251 291.66 99.2184C293.022 98.228 294.766 97.623 296.599 97.3802C295.543 98.5437 294.903 99.5741 294.39 100.961L282.557 101.632Z" fill="#353479"/>
<path d="M252.421 102.355L235.973 102.484L241.108 100.794L252.421 102.355Z" fill="#AF915F"/>
<path d="M239.183 101.472C238.388 100.28 236.549 98.3682 235.729 98.111C237.505 97.7608 239.335 98.0421 240.841 98.9339C240.616 97.1534 241.018 96.1927 242.288 95.4563C242.257 96.498 242.776 97.8113 242.688 98.8273C243.817 97.0108 245.484 95.5942 247.611 95.4555C246.448 96.7945 246.579 97.6326 246.101 99.1286C245.936 99.2969 245.928 99.2897 246.076 99.107C247.337 97.627 249.054 96.9435 251.002 97.1318C249.954 98.1438 249.67 99.0292 248.873 100.276C248.728 100.46 248.719 100.453 248.849 100.254C250.38 99.4259 252.255 99.0469 254.168 99.0525C252.925 100.1 252.126 101.069 251.408 102.418L239.183 101.472Z" fill="#5155AA"/>
<path d="M299.815 102.55L283.366 102.68L289.153 101.25L299.815 102.55Z" fill="#AF915F"/>
<path d="M288.055 102.022C287.254 100.895 285.417 99.1046 284.618 98.8802C286.323 98.4884 288.098 98.7055 289.58 99.5212C289.31 97.8089 289.668 96.8682 290.873 96.119C290.873 97.1222 291.416 98.3794 291.365 99.3634C292.401 97.5741 293.968 96.1583 296.018 95.9579C294.934 97.2865 295.086 98.0918 294.67 99.5509C294.515 99.7181 294.507 99.7114 294.646 99.5309C295.819 98.0637 297.458 97.3554 299.345 97.4756C298.362 98.4844 298.114 99.3482 297.382 100.576C297.247 100.758 297.239 100.752 297.358 100.556C298.812 99.7103 300.611 99.2881 302.459 99.2344C301.29 100.283 300.547 101.243 299.895 102.57L288.055 102.022Z" fill="#5155AA"/>
</svg>
