<svg width="20" height="20" viewBox="0 0 20 20" fill="none" xmlns="http://www.w3.org/2000/svg">
<g clip-path="url(#clip0_307_181)">
<path d="M10.625 9.375H19.9999V0.625C19.9999 0.45924 19.9341 0.300269 19.8169 0.183058C19.6996 0.065848 19.5407 0 19.3749 0L10.625 0V9.375Z" fill="#4CAF50"/>
<path d="M9.37491 9.375V0H0.624994C0.459235 0 0.300266 0.065848 0.183056 0.183058C0.0658474 0.300269 0 0.45924 0 0.625L0 9.375H9.37491Z" fill="#F44336"/>
<path d="M9.37491 10.625H0V19.375C0 19.5408 0.0658474 19.6997 0.183056 19.8169C0.300266 19.9342 0.459235 20 0.624994 20H9.37491V10.625Z" fill="#2196F3"/>
<path d="M10.625 10.625V20H19.3749C19.5407 20 19.6996 19.9342 19.8169 19.8169C19.9341 19.6997 19.9999 19.5408 19.9999 19.375V10.625H10.625Z" fill="#FFC107"/>
</g>
<defs>
<clipPath id="clip0_307_181">
<rect width="19.9998" height="20" fill="white"/>
</clipPath>
</defs>
</svg>
