<svg width="32" height="32" viewBox="0 0 32 32" fill="none" xmlns="http://www.w3.org/2000/svg">
<path d="M16.0003 10C15.267 10 14.667 10.6 14.667 11.3333C14.667 12.0667 15.267 12.6667 16.0003 12.6667C16.7337 12.6667 17.3337 12.0667 17.3337 11.3333C17.3337 10.6 16.7337 10 16.0003 10ZM16.0003 19.3333C15.267 19.3333 14.667 19.9333 14.667 20.6667C14.667 21.4 15.267 22 16.0003 22C16.7337 22 17.3337 21.4 17.3337 20.6667C17.3337 19.9333 16.7337 19.3333 16.0003 19.3333ZM16.0003 14.6667C15.267 14.6667 14.667 15.2667 14.667 16C14.667 16.7333 15.267 17.3333 16.0003 17.3333C16.7337 17.3333 17.3337 16.7333 17.3337 16C17.3337 15.2667 16.7337 14.6667 16.0003 14.6667Z" fill="#09121F"/>
<path d="M4 1H28V-1H4V1ZM31 4V28H33V4H31ZM28 31H4V33H28V31ZM1 28V4H-1V28H1ZM4 31C2.34315 31 1 29.6569 1 28H-1C-1 30.7614 1.23858 33 4 33V31ZM31 28C31 29.6569 29.6569 31 28 31V33C30.7614 33 33 30.7614 33 28H31ZM28 1C29.6569 1 31 2.34315 31 4H33C33 1.23858 30.7614 -1 28 -1V1ZM4 -1C1.23858 -1 -1 1.23858 -1 4H1C1 2.34315 2.34315 1 4 1V-1Z" fill="#DBE8FD"/>
</svg>
