<svg width="40" height="40" viewBox="0 0 40 40" fill="none" xmlns="http://www.w3.org/2000/svg">
<rect width="40" height="40" rx="8" fill="#FFB323"/>
<path d="M23.1503 11.6667H16.8503C13.7003 11.6667 12.917 12.5083 12.917 15.8667V25.25C12.917 27.4667 14.1337 27.9917 15.6087 26.4083L15.617 26.4C16.3003 25.675 17.342 25.7333 17.9337 26.525L18.7753 27.65C19.4503 28.5417 20.542 28.5417 21.217 27.65L22.0587 26.525C22.6587 25.725 23.7003 25.6667 24.3837 26.4C25.867 27.9833 27.0753 27.4583 27.0753 25.2417V15.8667C27.0837 12.5083 26.3003 11.6667 23.1503 11.6667ZM17.5003 15.8333C17.9587 15.8333 18.3337 16.2083 18.3337 16.6667C18.3337 17.125 17.967 17.5 17.5003 17.5C17.0337 17.5 16.667 17.125 16.667 16.6667C16.667 16.2083 17.0337 15.8333 17.5003 15.8333ZM22.5003 21.6667C22.0337 21.6667 21.667 21.2917 21.667 20.8333C21.667 20.375 22.042 20 22.5003 20C22.9587 20 23.3337 20.375 23.3337 20.8333C23.3337 21.2917 22.967 21.6667 22.5003 21.6667ZM23.2503 16.325L17.642 21.9333C17.517 22.0583 17.3587 22.1167 17.2003 22.1167C17.042 22.1167 16.8837 22.0583 16.7587 21.9333C16.517 21.6917 16.517 21.2917 16.7587 21.05L22.367 15.4417C22.6087 15.2 23.0087 15.2 23.2503 15.4417C23.492 15.6833 23.492 16.0833 23.2503 16.325Z" fill="white"/>
</svg>
