<svg width="40" height="40" viewBox="0 0 40 40" fill="none" xmlns="http://www.w3.org/2000/svg">
<rect width="40" height="40" rx="8" fill="#7BCC32"/>
<path d="M27.7085 25.3916L26.3335 25.7166C26.0252 25.7916 25.7835 26.025 25.7169 26.3333L25.4252 27.5583C25.2669 28.225 24.4169 28.4333 23.9752 27.9083L21.4835 25.0416C21.2835 24.8083 21.3919 24.4416 21.6919 24.3666C23.1669 24.0083 24.4919 23.1833 25.4669 22.0083C25.6252 21.8166 25.9085 21.7916 26.0835 21.9666L27.9335 23.8166C28.5669 24.45 28.3419 25.2416 27.7085 25.3916Z" fill="white"/>
<path d="M12.2496 25.3916L13.6246 25.7166C13.933 25.7916 14.1746 26.025 14.2413 26.3333L14.533 27.5583C14.6913 28.225 15.5413 28.4333 15.983 27.9083L18.4746 25.0416C18.6746 24.8083 18.5663 24.4416 18.2663 24.3666C16.7913 24.0083 15.4663 23.1833 14.4913 22.0083C14.333 21.8166 14.0496 21.7916 13.8746 21.9666L12.0246 23.8166C11.3913 24.45 11.6163 25.2416 12.2496 25.3916Z" fill="white"/>
<path d="M20.0003 11.6667C16.7753 11.6667 14.167 14.275 14.167 17.5C14.167 18.7083 14.5253 19.8167 15.142 20.7417C16.042 22.075 17.467 23.0167 19.1253 23.2583C19.4087 23.3083 19.7003 23.3333 20.0003 23.3333C20.3003 23.3333 20.592 23.3083 20.8753 23.2583C22.5337 23.0167 23.9587 22.075 24.8587 20.7417C25.4753 19.8167 25.8337 18.7083 25.8337 17.5C25.8337 14.275 23.2253 11.6667 20.0003 11.6667ZM22.5503 17.3167L21.8587 18.0083C21.742 18.125 21.6753 18.35 21.717 18.5167L21.917 19.375C22.0753 20.05 21.717 20.3167 21.117 19.9583L20.2837 19.4667C20.1337 19.375 19.8837 19.375 19.7337 19.4667L18.9003 19.9583C18.3003 20.3083 17.942 20.05 18.1003 19.375L18.3003 18.5167C18.3337 18.3583 18.2753 18.125 18.1587 18.0083L17.4503 17.3167C17.042 16.9083 17.1753 16.5 17.742 16.4083L18.6337 16.2583C18.7837 16.2333 18.9587 16.1 19.0253 15.9667L19.517 14.9833C19.7837 14.45 20.217 14.45 20.4837 14.9833L20.9753 15.9667C21.042 16.1 21.217 16.2333 21.3753 16.2583L22.267 16.4083C22.8253 16.5 22.9587 16.9083 22.5503 17.3167Z" fill="white"/>
</svg>
