<svg width="40" height="40" viewBox="0 0 40 40" fill="none" xmlns="http://www.w3.org/2000/svg">
<rect width="40" height="40" rx="8" fill="url(#paint0_linear_111_23074)"/>
<path d="M26.1163 22.075L25.283 20.6917C25.108 20.3833 24.9496 19.8 24.9496 19.4583V17.35C24.9496 15.3917 23.7996 13.7 22.1413 12.9083C21.708 12.1417 20.908 11.6667 19.9913 11.6667C19.083 11.6667 18.2663 12.1583 17.833 12.9333C16.208 13.7417 15.083 15.4167 15.083 17.35V19.4583C15.083 19.8 14.9246 20.3833 14.7496 20.6833L13.908 22.075C13.5746 22.6333 13.4996 23.25 13.708 23.8167C13.908 24.375 14.383 24.8083 14.9996 25.0167C16.6163 25.5667 18.3163 25.8333 20.0163 25.8333C21.7163 25.8333 23.4163 25.5667 25.033 25.025C25.6163 24.8333 26.0663 24.3917 26.283 23.8167C26.4996 23.2417 26.4413 22.6083 26.1163 22.075Z" fill="white"/>
<path d="M22.3587 26.675C22.0087 27.6417 21.0837 28.3333 20.0004 28.3333C19.3421 28.3333 18.6921 28.0667 18.2337 27.5917C17.9671 27.3417 17.7671 27.0083 17.6504 26.6667C17.7587 26.6833 17.8671 26.6917 17.9837 26.7083C18.1754 26.7333 18.3754 26.7583 18.5754 26.775C19.0504 26.8167 19.5337 26.8417 20.0171 26.8417C20.4921 26.8417 20.9671 26.8167 21.4337 26.775C21.6087 26.7583 21.7837 26.75 21.9504 26.725C22.0837 26.7083 22.2171 26.6917 22.3587 26.675Z" fill="white"/>
<defs>
<linearGradient id="paint0_linear_111_23074" x1="20" y1="0" x2="20" y2="40" gradientUnits="userSpaceOnUse">
<stop stop-color="#00DBFF"/>
<stop offset="1" stop-color="#10A5F5"/>
</linearGradient>
</defs>
</svg>
