<svg width="32" height="32" viewBox="0 0 32 32" fill="none" xmlns="http://www.w3.org/2000/svg">
<path fill-rule="evenodd" clip-rule="evenodd" d="M10.334 17.1914V17.0454C10.3555 16.6135 10.4939 16.195 10.7351 15.8331C11.1365 15.3983 11.4113 14.8655 11.5306 14.2907C11.5306 13.8463 11.5306 13.3957 11.5694 12.9514C11.77 10.8123 13.885 9.33334 15.9742 9.33334H16.0259C18.1151 9.33334 20.2302 10.8123 20.4372 12.9514C20.476 13.3957 20.4372 13.8463 20.4695 14.2907C20.5905 14.8669 20.865 15.4013 21.2651 15.8394C21.5081 16.1981 21.6467 16.6151 21.6661 17.0454V17.1851C21.6805 17.7654 21.4807 18.3312 21.1034 18.7783C20.6048 19.301 19.9282 19.6262 19.2018 19.6923C17.0715 19.9208 14.9222 19.9208 12.7919 19.6923C12.0663 19.6233 11.3907 19.2986 10.8903 18.7783C10.5188 18.3309 10.3217 17.7684 10.334 17.1914Z" stroke="black" stroke-width="1.5" stroke-linecap="round" stroke-linejoin="round"/>
<path d="M14.3701 21.9012C14.703 22.319 15.1918 22.5894 15.7283 22.6525C16.2649 22.7156 16.8049 22.5663 17.229 22.2376C17.3594 22.1404 17.4768 22.0274 17.5783 21.9012" stroke="black" stroke-width="1.5" stroke-linecap="round" stroke-linejoin="round"/>
<path d="M4 1H28V-1H4V1ZM31 4V28H33V4H31ZM28 31H4V33H28V31ZM1 28V4H-1V28H1ZM4 31C2.34315 31 1 29.6569 1 28H-1C-1 30.7614 1.23858 33 4 33V31ZM31 28C31 29.6569 29.6569 31 28 31V33C30.7614 33 33 30.7614 33 28H31ZM28 1C29.6569 1 31 2.34315 31 4H33C33 1.23858 30.7614 -1 28 -1V1ZM4 -1C1.23858 -1 -1 1.23858 -1 4H1C1 2.34315 2.34315 1 4 1V-1Z" fill="#DBE8FD"/>
</svg>
