<svg width="28" height="28" viewBox="0 0 28 28" fill="none" xmlns="http://www.w3.org/2000/svg">
<path fill-rule="evenodd" clip-rule="evenodd" d="M7.8044 14.2589L7.68019 19.2056C7.67485 19.4696 7.77501 19.7243 7.95932 19.9136C8.14495 20.1043 8.3987 20.211 8.66313 20.211H13.5778C14.5995 20.211 15.5611 19.8136 16.2849 19.0909L26.1304 9.26145C26.9076 8.48677 27.3337 7.45609 27.3337 6.36007C27.3337 5.26673 26.9076 4.23471 26.1304 3.46003L24.5344 1.86667C22.9318 0.26665 20.3262 0.26665 18.7249 1.86667L8.92489 11.6508C8.22775 12.3468 7.82977 13.2735 7.8044 14.2589ZM9.77028 14.3082C9.78363 13.8295 9.97595 13.3775 10.3165 13.0388L17.9183 5.44806L20.4157 7.9441C20.608 8.13477 20.8591 8.23077 21.1115 8.23077C21.3626 8.23077 21.615 8.13477 21.8073 7.9441C22.1906 7.55876 22.1906 6.93875 21.8073 6.55474L19.3085 4.06004L20.1152 3.25469C20.9499 2.42135 22.3081 2.42135 23.1441 3.25469L24.7401 4.84939C25.5748 5.68273 25.5748 7.03875 24.7401 7.87343L14.8947 17.7029C14.5421 18.0549 14.0746 18.2469 13.5778 18.2469H9.67278L9.77028 14.3082ZM1.65154 14.5907C2.19376 14.5907 2.63448 14.1507 2.63448 13.6094V8.58397C2.63448 4.99725 4.82339 2.67989 8.21159 2.67989H13.1143C13.6578 2.67989 14.0986 2.24121 14.0986 1.69854C14.0986 1.1572 13.6578 0.717191 13.1143 0.717191H8.21159C3.69888 0.717191 0.667259 3.87857 0.667259 8.58397V13.6094C0.667259 14.1507 1.10798 14.5907 1.65154 14.5907ZM26.345 13.2131C25.8014 13.2131 25.362 13.6518 25.362 14.1945V19.4665C25.362 23.0533 23.1718 25.3693 19.7822 25.3693H8.21133C4.82312 25.3693 2.63554 23.0533 2.63554 19.4665C2.63554 18.9252 2.19482 18.4852 1.65127 18.4852C1.10905 18.4852 0.666992 18.9252 0.666992 19.4665C0.666992 24.1719 3.69862 27.3333 8.21133 27.3333H19.7822C24.2963 27.3333 27.3279 24.1719 27.3279 19.4665V14.1945C27.3279 13.6518 26.8872 13.2131 26.345 13.2131Z" fill="#200E32"/>
</svg>
