<svg width="21" height="20" viewBox="0 0 21 20" fill="none" xmlns="http://www.w3.org/2000/svg">
<path d="M0.75 10C0.75 4.47715 5.22715 0 10.75 0C16.2728 0 20.75 4.47715 20.75 10C20.75 15.5228 16.2728 20 10.75 20C5.22715 20 0.75 15.5228 0.75 10Z" fill="black"/>
<circle cx="10.75" cy="9.99999" r="3.33333" fill="white"/>
<path d="M10.75 19C5.77944 19 1.75 14.9706 1.75 10H-0.25C-0.25 16.0751 4.67487 21 10.75 21V19ZM19.75 10C19.75 14.9706 15.7206 19 10.75 19V21C16.8251 21 21.75 16.0751 21.75 10H19.75ZM10.75 1C15.7206 1 19.75 5.02944 19.75 10H21.75C21.75 3.92487 16.8251 -1 10.75 -1V1ZM10.75 -1C4.67487 -1 -0.25 3.92487 -0.25 10H1.75C1.75 5.02944 5.77944 1 10.75 1V-1Z" fill="url(#paint0_linear_580_7857)"/>
<defs>
<linearGradient id="paint0_linear_580_7857" x1="10.75" y1="0" x2="10.75" y2="20" gradientUnits="userSpaceOnUse">
<stop stop-color="#00DBFF"/>
<stop offset="1" stop-color="#10A5F5"/>
</linearGradient>
</defs>
</svg>
