<svg width="31" height="30" viewBox="0 0 31 30" fill="none" xmlns="http://www.w3.org/2000/svg">
<rect x="0.5" width="30" height="30" rx="15" fill="#884AF6" fill-opacity="0.08"/>
<path d="M15.7927 19.156C15.2247 19.156 14.6907 19.044 14.1907 18.82C13.6907 18.592 13.2507 18.278 12.8707 17.878C12.4947 17.478 12.1987 17.016 11.9827 16.492C11.7707 15.964 11.6647 15.4 11.6647 14.8C11.6647 14.196 11.7707 13.632 11.9827 13.108C12.1987 12.58 12.4947 12.118 12.8707 11.722C13.2507 11.322 13.6907 11.01 14.1907 10.786C14.6907 10.558 15.2247 10.444 15.7927 10.444C16.4727 10.444 17.0987 10.602 17.6707 10.918C18.2427 11.23 18.7167 11.648 19.0927 12.172L17.6167 12.97C17.3927 12.706 17.1227 12.496 16.8067 12.34C16.4907 12.18 16.1527 12.1 15.7927 12.1C15.4527 12.1 15.1327 12.17 14.8327 12.31C14.5327 12.45 14.2687 12.644 14.0407 12.892C13.8167 13.14 13.6407 13.426 13.5127 13.75C13.3847 14.074 13.3207 14.424 13.3207 14.8C13.3207 15.172 13.3847 15.522 13.5127 15.85C13.6407 16.174 13.8167 16.46 14.0407 16.708C14.2687 16.952 14.5327 17.146 14.8327 17.29C15.1327 17.43 15.4527 17.5 15.7927 17.5C16.1567 17.5 16.4947 17.42 16.8067 17.26C17.1227 17.1 17.3927 16.888 17.6167 16.624L19.0927 17.428C18.7167 17.948 18.2427 18.366 17.6707 18.682C17.0987 18.998 16.4727 19.156 15.7927 19.156Z" fill="#884AF6"/>
</svg>
