<svg width="31" height="30" viewBox="0 0 31 30" fill="none" xmlns="http://www.w3.org/2000/svg">
<rect x="0.5" width="30" height="30" rx="15" fill="#FFF6D8"/>
<path d="M7.72 19V10.6H10.702C11.134 10.6 11.524 10.688 11.872 10.864C12.224 11.04 12.502 11.294 12.706 11.626C12.914 11.954 13.018 12.348 13.018 12.808C13.018 13.032 12.982 13.252 12.91 13.468C12.838 13.684 12.736 13.874 12.604 14.038C12.472 14.202 12.312 14.318 12.124 14.386C12.38 14.45 12.592 14.566 12.76 14.734C12.932 14.898 13.068 15.09 13.168 15.31C13.268 15.53 13.338 15.758 13.378 15.994C13.422 16.23 13.444 16.454 13.444 16.666C13.444 17.114 13.336 17.514 13.12 17.866C12.904 18.218 12.614 18.496 12.25 18.7C11.89 18.9 11.492 19 11.056 19H7.72ZM8.968 17.92H10.936C11.192 17.92 11.424 17.856 11.632 17.728C11.844 17.6 12.012 17.424 12.136 17.2C12.26 16.972 12.322 16.716 12.322 16.432C12.322 16.184 12.26 15.95 12.136 15.73C12.012 15.506 11.844 15.326 11.632 15.19C11.424 15.054 11.192 14.986 10.936 14.986H8.968V17.92ZM8.968 13.924H10.57C10.898 13.924 11.18 13.824 11.416 13.624C11.652 13.424 11.77 13.15 11.77 12.802C11.77 12.43 11.652 12.152 11.416 11.968C11.18 11.78 10.898 11.686 10.57 11.686H8.968V13.924ZM16.9018 18.4V16.024H14.5258V14.776H16.9018V12.4H18.1498V14.776H20.5258V16.024H18.1498V18.4H16.9018Z" fill="#F1A614"/>
</svg>
