<svg width="31" height="30" viewBox="0 0 31 30" fill="none" xmlns="http://www.w3.org/2000/svg">
<rect x="0.5" width="30" height="30" rx="15" fill="#FFF6D8"/>
<path d="M12.72 19V10.6H15.702C16.134 10.6 16.524 10.688 16.872 10.864C17.224 11.04 17.502 11.294 17.706 11.626C17.914 11.954 18.018 12.348 18.018 12.808C18.018 13.032 17.982 13.252 17.91 13.468C17.838 13.684 17.736 13.874 17.604 14.038C17.472 14.202 17.312 14.318 17.124 14.386C17.38 14.45 17.592 14.566 17.76 14.734C17.932 14.898 18.068 15.09 18.168 15.31C18.268 15.53 18.338 15.758 18.378 15.994C18.422 16.23 18.444 16.454 18.444 16.666C18.444 17.114 18.336 17.514 18.12 17.866C17.904 18.218 17.614 18.496 17.25 18.7C16.89 18.9 16.492 19 16.056 19H12.72ZM13.968 17.92H15.936C16.192 17.92 16.424 17.856 16.632 17.728C16.844 17.6 17.012 17.424 17.136 17.2C17.26 16.972 17.322 16.716 17.322 16.432C17.322 16.184 17.26 15.95 17.136 15.73C17.012 15.506 16.844 15.326 16.632 15.19C16.424 15.054 16.192 14.986 15.936 14.986H13.968V17.92ZM13.968 13.924H15.57C15.898 13.924 16.18 13.824 16.416 13.624C16.652 13.424 16.77 13.15 16.77 12.802C16.77 12.43 16.652 12.152 16.416 11.968C16.18 11.78 15.898 11.686 15.57 11.686H13.968V13.924Z" fill="#F1A614"/>
</svg>
