<svg width="34" height="34" viewBox="0 0 34 34" fill="none" xmlns="http://www.w3.org/2000/svg">
<path d="M17.0073 0.333929C16.5775 0.337393 16.166 0.509168 15.8596 0.812791L0.962386 15.8271C-0.875993 17.388 1.74901 20.0276 3.29654 18.1743L3.78794 17.6791V32.0063C3.79158 32.9217 4.52764 33.663 5.43672 33.6666H28.6166C29.5257 33.663 30.2618 32.9217 30.2654 32.0063V17.6823L30.7536 18.1737C32.3056 19.8863 34.7906 17.4012 33.1007 15.8265L18.1938 0.812214C17.8778 0.499143 17.4504 0.326615 17.0073 0.333544L17.0073 0.333929ZM17.0332 4.34476L26.9517 14.3422V30.3332H23.6412V22.0025C23.6447 21.082 22.9065 20.3327 21.9924 20.329H12.0577C11.1436 20.3327 10.4054 21.082 10.4089 22.0025V30.3332H7.09843V14.3455L17.0332 4.34476ZM13.7194 23.6628H20.3436V30.3332H13.7194L13.7194 23.6628Z" fill="#FF5247"/>
</svg>
