<svg width="40" height="40" viewBox="0 0 40 40" fill="none" xmlns="http://www.w3.org/2000/svg">
<path d="M24.9761 3.33378C24.5434 3.33729 24.1289 3.5089 23.8204 3.81245L17.1531 10.4831C16.9991 10.6387 16.8773 10.8232 16.7946 11.0259C16.712 11.2287 16.6701 11.4458 16.6713 11.6647V18.3321C16.6722 18.7724 16.8473 19.1944 17.1584 19.5061C17.4695 19.8178 17.8913 19.9938 18.3316 19.9955H31.6728C32.1131 19.9938 32.5349 19.8178 32.846 19.5061C33.157 19.1944 33.3322 18.7724 33.3331 18.3321V11.6647C33.3343 11.4458 33.2924 11.2287 33.2097 11.0259C33.1271 10.8232 33.0052 10.6387 32.8513 10.4831L26.1839 3.81245C26.0249 3.65587 25.8361 3.5329 25.6286 3.45066C25.4211 3.36843 25.1993 3.32867 24.9761 3.33378ZM25.0022 7.35749L29.9961 12.3514V16.6585H26.6625V13.338H23.3419V16.6585H20.0082V12.3514L25.0022 7.35749ZM4.9937 19.9953C4.55165 19.9971 4.12839 20.1744 3.81703 20.4882C3.50567 20.802 3.3317 21.2267 3.33339 21.6687V35.0063C3.33515 35.4461 3.51064 35.8674 3.82163 36.1784C4.13262 36.4894 4.5539 36.6649 4.9937 36.6667H11.6643C12.1064 36.6684 12.531 36.4944 12.8448 36.183C13.1586 35.8717 13.3359 35.4484 13.3376 35.0063V33.9029L22.4564 36.5919C22.789 36.6942 23.1453 36.6897 23.4753 36.5792L33.1345 33.2456C33.2105 33.2185 33.2845 33.1858 33.3559 33.148C35.5696 32.0015 36.6667 29.7796 36.6667 27.7081C36.6667 26.6723 36.3937 25.6166 35.6933 24.7553C34.993 23.8939 33.8303 23.3293 32.5941 23.3293H22.9089H13.3376V21.6691C13.3385 21.4492 13.2958 21.2312 13.212 21.0278C13.1282 20.8244 13.005 20.6395 12.8494 20.484C12.6939 20.3284 12.5091 20.2052 12.3057 20.1214C12.1023 20.0376 11.8843 19.9949 11.6643 19.9957L4.9937 19.9953ZM6.6703 23.3289H10.004V25.0023V31.6695V33.3331H6.67033L6.6703 23.3289ZM13.3376 26.6627H22.9089H32.594C32.9671 26.6627 33.0073 26.7299 33.1117 26.8578C33.216 26.9863 33.3331 27.2851 33.3331 27.7077C33.3331 28.5481 32.8256 29.6445 31.8323 30.1687L22.8991 33.2452L13.3376 30.4161L13.3376 26.6627Z" fill="#7BCC32"/>
</svg>
