<svg width="48" height="48" viewBox="0 0 48 48" fill="none" xmlns="http://www.w3.org/2000/svg">
<path d="M0 8C0 3.58172 3.58172 0 8 0H40C44.4183 0 48 3.58172 48 8V40C48 44.4183 44.4183 48 40 48H8C3.58172 48 0 44.4183 0 40V8Z" fill="url(#paint0_linear_111_18126)"/>
<path d="M28.0468 21.6733L22.3402 18.82C18.5068 16.9 16.9335 18.4733 18.8535 22.3067L19.4335 23.4667C19.6002 23.8067 19.6002 24.2 19.4335 24.54L18.8535 25.6933C16.9335 29.5267 18.5002 31.1 22.3402 29.18L28.0468 26.3267C30.6068 25.0467 30.6068 22.9533 28.0468 21.6733ZM25.8935 24.5H22.2935C22.0202 24.5 21.7935 24.2733 21.7935 24C21.7935 23.7267 22.0202 23.5 22.2935 23.5H25.8935C26.1668 23.5 26.3935 23.7267 26.3935 24C26.3935 24.2733 26.1668 24.5 25.8935 24.5Z" fill="white"/>
<defs>
<linearGradient id="paint0_linear_111_18126" x1="41.6147" y1="1.44837e-06" x2="10.8304" y2="24.6029" gradientUnits="userSpaceOnUse">
<stop stop-color="#00DBFF"/>
<stop offset="1" stop-color="#10A5F5"/>
</linearGradient>
</defs>
</svg>
