<svg width="16" height="16" viewBox="0 0 16 16" fill="none" xmlns="http://www.w3.org/2000/svg">
<path d="M6.09427 14.3904C4.97724 14.0578 3.98294 13.4404 3.19563 12.6223C3.48934 12.2742 3.66634 11.8244 3.66634 11.3333C3.66634 10.2288 2.77091 9.33333 1.66634 9.33333C1.59952 9.33333 1.53347 9.3366 1.46834 9.343C1.3796 8.9092 1.33301 8.46003 1.33301 8C1.33301 7.30313 1.43993 6.63123 1.63827 5.9998C1.64761 5.99993 1.65697 6 1.66634 6C2.77091 6 3.66634 5.10457 3.66634 4C3.66634 3.6829 3.59254 3.38303 3.46121 3.11666C4.23217 2.39979 5.17317 1.8633 6.21704 1.57434C6.54781 2.22269 7.22191 2.66667 7.99967 2.66667C8.77744 2.66667 9.45154 2.22269 9.78231 1.57434C10.8262 1.8633 11.7672 2.39979 12.5381 3.11666C12.4068 3.38303 12.333 3.6829 12.333 4C12.333 5.10457 13.2284 6 14.333 6C14.3424 6 14.3517 5.99993 14.3611 5.9998C14.5594 6.63123 14.6663 7.30313 14.6663 8C14.6663 8.46003 14.6197 8.9092 14.531 9.343C14.4659 9.3366 14.3998 9.33333 14.333 9.33333C13.2284 9.33333 12.333 10.2288 12.333 11.3333C12.333 11.8244 12.51 12.2742 12.8037 12.6223C12.0164 13.4404 11.0221 14.0578 9.90507 14.3904C9.64727 13.5839 8.89167 13 7.99967 13C7.10767 13 6.35207 13.5839 6.09427 14.3904Z" stroke="#192252" stroke-width="1.5" stroke-linejoin="round"/>
<path d="M8.00033 10.3333C9.28899 10.3333 10.3337 9.28867 10.3337 8C10.3337 6.71134 9.28899 5.66667 8.00033 5.66667C6.71166 5.66667 5.66699 6.71134 5.66699 8C5.66699 9.28867 6.71166 10.3333 8.00033 10.3333Z" stroke="#192252" stroke-width="1.5" stroke-linejoin="round"/>
</svg>
