<svg width="159" height="159" viewBox="0 0 279 279" fill="none" xmlns="http://www.w3.org/2000/svg">
<path fill-rule="evenodd" clip-rule="evenodd" d="M137.641 35.9624C136.391 36.9232 135.301 37.7889 135.216 37.884C135.132 37.9792 133.955 38.9279 132.603 39.9929C131.249 41.058 129.639 42.3345 129.022 42.83C128.406 43.3255 126.676 44.6957 125.178 45.8741C123.681 47.0524 122.315 48.128 122.146 48.264C121.977 48.4014 121.22 48.9936 120.463 49.5813C119.706 50.1689 118.928 50.7868 118.733 50.956C118.384 51.2612 112.879 55.6225 98.928 66.646C94.9533 69.7867 91.4939 72.5256 91.2401 72.731C90.9863 72.938 90.1599 73.5891 89.4031 74.1783C88.6462 74.7675 87.8712 75.3883 87.6809 75.5575C87.492 75.7267 85.5705 77.2495 83.4132 78.94C81.2574 80.6319 77.6711 83.469 75.4458 85.2441C73.2191 87.0206 70.1403 89.4619 68.6024 90.6689C67.063 91.876 65.5433 93.0755 65.223 93.3368C64.9027 93.5967 63.5325 94.6813 62.1805 95.7464C60.8269 96.8114 59.6501 97.7556 59.5655 97.8447C59.4809 97.9338 58.789 98.4898 58.0291 99.0789C57.2677 99.6681 56.4369 100.319 56.1831 100.525C55.9293 100.73 54.5303 101.84 53.074 102.99C51.6177 104.14 49.9001 105.495 49.2596 106.002C48.619 106.51 46.5585 108.139 44.6822 109.624C42.8044 111.109 38.5201 114.499 35.1618 117.157C31.8036 119.818 28.4816 122.445 27.7821 122.995C20.9735 128.349 20.7514 128.574 21.5113 129.347C21.7228 129.563 22.9328 130.899 24.2018 132.316C25.4693 133.733 27.338 135.798 28.3532 136.904C29.3684 138.011 31.3051 140.158 32.6586 141.673C36.6438 146.138 38.1756 147.812 38.4717 148.027C38.6258 148.137 39.5942 147.539 40.6245 146.696C42.7364 144.968 42.886 144.848 44.8045 143.362C45.5659 142.773 46.2578 142.215 46.3424 142.124C46.427 142.035 48.2263 140.602 50.3412 138.938C52.4547 137.277 54.6694 135.533 55.2615 135.064C60.1093 131.219 61.3013 130.266 61.5974 129.994C61.7847 129.821 63.0129 128.852 64.3272 127.836C65.6415 126.821 67.4256 125.424 68.2927 124.73C69.7611 123.555 75.3642 119.114 86.5056 110.294C89.0617 108.271 92.2568 105.753 93.6058 104.697C94.9563 103.641 96.3492 102.534 96.6997 102.238C97.0502 101.94 99.0971 100.313 101.25 98.6212C103.401 96.9307 105.672 95.1315 106.296 94.6239C108.596 92.7537 111.825 90.1931 119.378 84.2485C121.07 82.9176 122.996 81.3858 123.659 80.8449C124.323 80.3056 125.845 79.1152 127.043 78.2012C128.24 77.2873 129.773 76.0697 130.45 75.4941C131.125 74.92 131.817 74.352 131.986 74.2327C132.645 73.7659 135.07 71.8745 135.216 71.7144C135.301 71.6207 135.993 71.0663 136.754 70.4801C137.514 69.8955 138.321 69.2398 138.546 69.0253C139.934 67.6959 139.287 67.3319 148.471 74.63C150.603 76.325 154.801 79.6485 157.799 82.0157C160.798 84.383 165.86 88.3969 169.05 90.9333C172.237 93.4713 175.916 96.3763 177.222 97.3915C178.529 98.4067 179.75 99.3765 179.933 99.5488C180.117 99.721 180.89 100.339 181.652 100.925C182.413 101.51 183.105 102.064 183.19 102.155C183.354 102.334 184.749 103.437 191.184 108.483C193.468 110.273 195.82 112.125 196.413 112.6C197.005 113.072 198.25 114.069 199.18 114.814C200.111 115.559 202.117 117.129 203.638 118.304C205.161 119.478 206.475 120.513 206.56 120.605C206.644 120.697 207.648 121.52 208.79 122.436C211.548 124.647 211.604 124.607 205.791 124.607H200.718V147.672V170.735H182.727C172.834 170.735 164.634 170.735 164.507 170.735C164.38 170.735 164.208 160.392 164.123 147.749L163.969 124.761L151.13 124.681L138.29 124.6V129.524C138.29 134.758 138.133 135.228 136.778 134.012C135.153 132.556 125.008 127.99 121.292 127.043C109.64 124.073 98.5971 123.984 88.9348 126.783C85.2819 127.841 84.5598 128.064 84.0144 128.303C83.676 128.451 82.2923 129.021 80.9387 129.571C66.5736 135.396 54.2433 148 48.19 163.047C47.8154 163.978 47.3954 165.016 47.2549 165.353C46.921 166.166 46.14 168.805 45.8907 169.966C45.782 170.474 45.4874 171.788 45.2366 172.888C43.7048 179.591 43.5038 190.196 44.7955 196.106C50.1086 220.407 65.3001 237.209 88.0117 243.906C88.9121 244.171 91.3579 244.733 95.0848 245.529C98.085 246.17 111.962 246.054 115.073 245.362C119.328 244.415 120.28 244.187 121.07 243.922C121.493 243.782 122.668 243.425 123.684 243.131C124.699 242.834 125.667 242.495 125.836 242.374C126.006 242.253 126.49 242.055 126.913 241.933C142.193 237.502 158.509 219.028 163.386 200.641C163.466 200.339 167.471 200.257 182.103 200.257H200.718V223.167V246.078H213.633H226.549V191.492C226.549 156.601 226.657 136.908 226.845 136.908C227.009 136.908 229.258 138.599 231.843 140.665C234.428 142.732 236.682 144.531 236.851 144.665C239.928 147.096 241.132 147.978 241.371 147.978C241.733 147.978 241.155 148.595 248.833 140.017C249.347 139.443 249.905 138.821 250.074 138.633C250.244 138.446 251.559 136.985 252.995 135.39C254.434 133.793 255.817 132.261 256.071 131.985C259.446 128.305 259.401 128.593 256.902 126.688C255.854 125.888 254.58 124.892 254.073 124.477C252.699 123.348 247.17 118.978 243.155 115.843C241.211 114.326 239.549 113.007 239.464 112.914C239.38 112.819 237.858 111.613 236.082 110.232C234.307 108.853 231.942 106.99 230.829 106.095C229.716 105.197 225.569 101.904 221.612 98.7753C217.657 95.6467 212.409 91.4877 209.951 89.5344C205.72 86.1716 200.636 82.1472 195.49 78.0864C194.221 77.0864 192.906 76.0379 192.566 75.7585C192.228 75.479 191.329 74.769 190.568 74.1783C189.258 73.1631 179.815 65.6867 172.118 59.5715C170.173 58.026 167.271 55.7328 165.67 54.4744C164.07 53.216 161.629 51.2868 160.245 50.1871C158.863 49.0888 157.266 47.8243 156.698 47.3772C155.552 46.4768 149.565 41.7348 144.134 37.4263C142.19 35.8824 140.443 34.5288 140.256 34.417C140.067 34.3037 138.892 35.0001 137.641 35.9624ZM112.411 152.722C118.997 154.582 126.157 158.774 129.151 162.526C129.581 163.066 130.238 163.854 130.61 164.277C136.334 170.791 139.62 183.276 137.731 191.338C137.215 193.545 136.462 196.252 136.151 197.027C136.015 197.366 135.651 198.266 135.342 199.028C133.098 204.539 128.093 210.266 122.146 214.125C120.698 215.065 116.887 216.863 116.343 216.863C116.135 216.863 115.834 216.979 115.672 217.123C115.326 217.429 112.125 218.254 109.559 218.7C104.892 219.508 96.7435 218.682 92.932 217.012C92.4244 216.79 91.1902 216.248 90.1901 215.807C81.052 211.785 74.2282 202.952 71.5271 191.646C71.0089 189.474 70.9953 180.094 71.512 179.577C71.7069 179.383 71.867 178.839 71.867 178.367C71.867 176.762 73.6466 172.097 75.6014 168.583C79.2014 162.111 86.0418 156.443 93.4457 153.799C95.3899 153.104 96.6272 152.781 99.2361 152.282C101.369 151.874 110.488 152.18 112.411 152.722ZM90.0104 176.271V181.806H95.5455H101.081V176.271V170.735H95.5455H90.0104V176.271ZM108.154 176.271V181.806H113.689H119.226V176.271V170.735H113.689H108.154V176.271ZM90.0104 194.568V200.257H95.5455H101.081V194.568V188.879H95.5455H90.0104V194.568ZM108.154 194.568V200.257H113.689H119.226V194.568V188.879H113.689H108.154V194.568ZM162.585 224.167C160.481 227.377 156.753 231.84 153.645 234.869C149.609 238.801 149.71 238.709 147.516 240.392C146.418 241.236 145.448 242.005 145.363 242.102C145.279 242.198 143.859 243.12 142.208 244.15C140.555 245.181 139.345 246.07 139.516 246.126C139.686 246.184 145.292 246.193 151.974 246.147L164.123 246.063V234.077C164.123 227.484 164.082 222.091 164.034 222.091C163.986 222.091 163.333 223.025 162.585 224.167Z" fill="white"/>
<path fill-rule="evenodd" clip-rule="evenodd" d="M149.669 41.679C149.669 41.7636 150.224 42.2712 150.899 42.8075C151.576 43.3438 152.13 43.7124 152.13 43.6278C152.13 43.5432 151.576 43.0356 150.899 42.4993C150.224 41.9646 149.669 41.5944 149.669 41.679ZM152.532 43.9436C152.792 44.362 155.204 46.3093 155.204 46.0993C155.204 46.0207 154.553 45.4225 153.759 44.7714C152.962 44.1188 152.411 43.7472 152.532 43.9436ZM123.223 47.1583C122.631 47.678 122.425 47.962 122.765 47.7898C123.327 47.5058 124.72 46.1733 124.424 46.202C124.355 46.2096 123.815 46.6401 123.223 47.1583ZM120.147 49.6101C119.076 50.5498 119.076 50.5513 120.061 49.8957C120.607 49.5331 121.134 49.1041 121.233 48.9439C121.53 48.4635 121.283 48.6146 120.147 49.6101ZM158.588 48.7415C158.588 48.8201 159.238 49.4168 160.034 50.0694C160.83 50.7205 161.381 51.0936 161.259 50.8972C161.001 50.4788 158.588 48.5315 158.588 48.7415ZM165.968 54.5954C165.968 54.68 166.521 55.1876 167.198 55.7224C167.874 56.2587 168.429 56.6288 168.429 56.5442C168.429 56.4596 167.874 55.952 167.198 55.4157C166.521 54.8794 165.968 54.5108 165.968 54.5954ZM109.538 58.0639L108.308 59.1637L109.615 58.1863C110.74 57.3449 111.145 56.94 110.844 56.9581C110.802 56.9596 110.215 57.4582 109.538 58.0639ZM106.77 60.2288C105.844 61.0551 105.775 61.1699 106.491 60.6925C107.341 60.1245 108.409 59.0882 108.115 59.1169C108.053 59.1244 107.447 59.623 106.77 60.2288ZM139.06 68.6388C138.552 68.9756 138.276 69.2476 138.445 69.2445C138.753 69.24 140.425 68.042 140.137 68.033C140.052 68.0299 139.567 68.3034 139.06 68.6388ZM140.443 68.4333C140.443 68.5179 140.998 69.0255 141.675 69.5618C142.35 70.0966 142.904 70.4667 142.904 70.3821C142.904 70.2975 142.35 69.7899 141.675 69.2536C140.998 68.7188 140.443 68.3487 140.443 68.4333ZM143.211 70.5755C143.211 70.654 143.862 71.2507 144.658 71.9034C145.453 72.5545 146.006 72.9276 145.883 72.7312C145.625 72.3127 143.211 70.3655 143.211 70.5755ZM130.698 75.2737L129.834 76.0638L130.834 75.3689C131.384 74.9867 131.834 74.6301 131.834 74.5773C131.834 74.3356 131.493 74.5425 130.698 75.2737ZM152.13 77.6651C152.13 77.7437 153.049 78.5292 154.169 79.4115C155.292 80.2937 156.117 80.8632 156.002 80.6774C155.754 80.2771 152.13 77.4566 152.13 77.6651ZM126.287 78.8087L125.222 79.7544L126.374 78.9265C127.394 78.1954 127.725 77.8645 127.439 77.8645C127.391 77.8645 126.871 78.289 126.287 78.8087ZM156.436 81.0415C156.436 81.1261 156.988 81.6337 157.665 82.17C158.342 82.7063 158.895 83.0749 158.895 82.9903C158.895 82.9057 158.342 82.3981 157.665 81.8618C156.988 81.327 156.436 80.9569 156.436 81.0415ZM201.333 82.5794C201.333 82.664 201.886 83.1716 202.563 83.7079C203.24 84.2426 203.793 84.6128 203.793 84.5282C203.793 84.4436 203.24 83.936 202.563 83.3997C201.886 82.8634 201.333 82.4948 201.333 82.5794ZM119.072 84.51L117.842 85.6113L119.149 84.6339C120.273 83.7925 120.679 83.3861 120.378 83.4042C120.336 83.4072 119.748 83.9043 119.072 84.51ZM74.174 86.0479L72.9428 87.1477L74.2511 86.1703C75.375 85.3288 75.7814 84.924 75.4808 84.9421C75.4385 84.9451 74.8493 85.4421 74.174 86.0479ZM115.996 86.9694L114.766 88.0707L116.073 87.0933C117.198 86.2519 117.603 85.847 117.303 85.8651C117.26 85.8666 116.673 86.3652 115.996 86.9694ZM162.585 85.9407C162.585 86.0086 163.173 86.5313 163.892 87.1039C164.611 87.6749 165.004 87.8985 164.765 87.6009C164.315 87.0419 162.585 85.7246 162.585 85.9407ZM112.437 89.7567L111.69 90.577L112.527 89.9863C112.987 89.6615 113.367 89.2929 113.372 89.166C113.388 88.7868 113.219 88.8941 112.437 89.7567ZM103.977 96.4913L102.773 97.5896L104.08 96.594C105.275 95.6831 105.565 95.393 105.284 95.393C105.228 95.393 104.64 95.887 103.977 96.4913ZM175.597 96.2209C175.855 96.6393 178.269 98.5866 178.269 98.3766C178.269 98.2996 177.618 97.7014 176.822 97.0503C176.026 96.3976 175.475 96.0245 175.597 96.2209ZM220.706 97.9552C220.706 98.0397 221.261 98.5473 221.936 99.0836C222.613 99.6184 223.167 99.9885 223.167 99.9039C223.167 99.8193 222.613 99.3117 221.936 98.7755C221.261 98.2407 220.706 97.8706 220.706 97.9552ZM90.7795 106.959L89.5498 108.06L90.8566 107.083C91.982 106.241 92.3869 105.835 92.0863 105.853C92.044 105.856 91.4563 106.353 90.7795 106.959ZM232.488 107.293C232.746 107.71 235.16 109.658 235.16 109.448C235.16 109.37 234.509 108.772 233.713 108.121C232.919 107.468 232.366 107.096 232.488 107.293ZM45.8819 108.497L44.6522 109.597L45.9589 108.619C47.0829 107.778 47.4893 107.373 47.1886 107.391C47.1463 107.394 46.5587 107.891 45.8819 108.497ZM42.9602 110.794L41.5764 112.05L43.0373 110.911C44.3183 109.912 44.6975 109.536 44.421 109.539C44.3787 109.541 43.7216 110.106 42.9602 110.794ZM197.951 113.946C197.951 114.03 198.504 114.538 199.18 115.074C199.857 115.611 200.41 115.979 200.41 115.895C200.41 115.81 199.857 115.302 199.18 114.766C198.504 114.231 197.951 113.861 197.951 113.946ZM201.025 116.407C201.025 116.491 201.579 116.999 202.255 117.535C202.931 118.07 203.486 118.44 203.486 118.355C203.486 118.271 202.931 117.763 202.255 117.227C201.579 116.691 201.025 116.322 201.025 116.407ZM32.8129 118.806L31.4276 120.06L32.7314 119.082C33.8644 118.232 34.591 117.514 34.2904 117.544C34.239 117.549 33.5728 118.117 32.8129 118.806ZM29.8913 121.117C28.9652 121.945 28.8957 122.06 29.6103 121.581C30.4608 121.013 31.5304 119.976 31.2358 120.007C31.1723 120.013 30.568 120.513 29.8913 121.117ZM71.7131 122.04C70.7871 122.866 70.7176 122.981 71.4336 122.504C72.2826 121.936 73.3522 120.899 73.0576 120.928C72.9957 120.936 72.3899 121.434 71.7131 122.04ZM206.868 121.019C206.868 121.103 207.421 121.611 208.098 122.147C208.775 122.684 209.328 123.052 209.328 122.968C209.328 122.883 208.775 122.375 208.098 121.839C207.421 121.304 206.868 120.934 206.868 121.019ZM100.548 124.829C101.014 124.898 101.706 124.897 102.085 124.824C102.463 124.75 102.081 124.693 101.235 124.696C100.389 124.697 100.081 124.758 100.548 124.829ZM107.462 124.824C107.843 124.898 108.465 124.898 108.846 124.824C109.227 124.752 108.915 124.691 108.154 124.691C107.393 124.691 107.081 124.752 107.462 124.824ZM137.922 129.529C137.871 132.234 137.934 134.449 138.061 134.449C138.188 134.449 138.291 132.234 138.291 129.527C138.291 123.161 138.04 123.161 137.922 129.529ZM23.7397 126.025L22.51 127.127L23.8168 126.148C24.9422 125.308 25.3486 124.901 25.048 124.919C25.0057 124.922 24.4165 125.419 23.7397 126.025ZM95.3916 125.223C94.5638 125.433 94.5487 125.457 95.2391 125.463C95.6621 125.466 96.3539 125.357 96.7754 125.223C97.8102 124.891 96.6938 124.891 95.3916 125.223ZM112.459 125.223C112.882 125.357 113.574 125.466 113.997 125.463C114.688 125.457 114.673 125.433 113.843 125.223C112.542 124.891 111.426 124.891 112.459 125.223ZM200.41 147.646C200.41 165.543 200.329 170.409 200.026 170.532C199.797 170.624 199.859 170.696 200.179 170.711C200.688 170.734 200.718 169.448 200.718 147.824C200.718 135.224 200.649 124.915 200.564 124.915C200.48 124.915 200.41 135.144 200.41 147.646ZM88.166 126.759C87.5315 126.963 87.5059 127.01 88.0119 127.033C88.3503 127.046 88.8337 126.924 89.0875 126.759C89.6268 126.412 89.2522 126.412 88.166 126.759ZM21.4344 127.835C21.0386 128.258 20.7728 128.654 20.8438 128.717C20.9148 128.781 21.2939 128.435 21.6882 127.95C22.569 126.864 22.4134 126.794 21.4344 127.835ZM21.7411 129.932C21.7411 129.985 22.1913 130.433 22.7412 130.93L23.7397 131.834L22.8379 130.835C21.9949 129.903 21.7411 129.693 21.7411 129.932ZM257.127 130.835L256.225 131.834L257.224 130.93C258.156 130.089 258.365 129.835 258.127 129.835C258.074 129.835 257.624 130.285 257.127 130.835ZM254.209 134.064L253.15 135.216L254.302 134.157C254.937 133.574 255.456 133.056 255.456 133.003C255.456 132.769 255.195 132.989 254.209 134.064ZM251.598 136.985L250.382 138.292L251.689 137.076C252.408 136.408 252.996 135.819 252.996 135.769C252.996 135.537 252.728 135.769 251.598 136.985ZM28.66 137.523C29.3217 138.2 29.9305 138.753 30.0151 138.753C30.0997 138.753 29.6284 138.2 28.9682 137.523C28.3081 136.846 27.6977 136.293 27.6131 136.293C27.5285 136.293 27.9999 136.846 28.66 137.523ZM226.55 137.235C226.55 137.413 226.698 137.467 226.879 137.355C227.062 137.244 227.58 137.478 228.033 137.875L228.856 138.6L228.11 137.754C227.358 136.901 226.55 136.632 226.55 137.235ZM31.121 140.291C31.7811 140.967 32.3914 141.52 32.476 141.52C32.5606 141.52 32.0893 140.967 31.4276 140.291C30.7675 139.614 30.1587 139.061 30.0741 139.061C29.9895 139.061 30.4608 139.614 31.121 140.291ZM61.7124 142.366L58.7983 145.365L61.7955 142.449C64.5812 139.742 64.9347 139.368 64.7111 139.368C64.6658 139.368 63.3167 140.718 61.7124 142.366ZM245.906 143.289L244.847 144.442L246 143.383C246.634 142.8 247.152 142.28 247.152 142.229C247.152 141.995 246.892 142.215 245.906 143.289ZM34.0623 143.543C34.6424 144.234 35.1802 144.747 35.2572 144.687C35.3328 144.625 34.8569 144.061 34.1997 143.433L33.0048 142.289L34.0623 143.543ZM243.602 145.903L242.386 147.21L243.693 145.995C244.412 145.326 245.001 144.738 245.001 144.687C245.001 144.454 244.732 144.688 243.602 145.903ZM237.005 144.989C237.005 145.048 237.455 145.425 238.004 145.827C238.623 146.281 238.837 146.355 238.567 146.022C238.158 145.518 237.005 144.755 237.005 144.989ZM36.6561 146.441C37.3163 147.117 37.9266 147.672 38.0112 147.672C38.0958 147.672 37.6245 147.117 36.9643 146.441C36.3026 145.765 35.6938 145.211 35.6092 145.211C35.5246 145.211 35.9959 145.765 36.6561 146.441ZM55.8766 148.902C55.3403 149.578 54.9717 150.131 55.0563 150.131C55.1409 150.131 55.6485 149.578 56.1833 148.902C56.7196 148.225 57.0882 147.672 57.0036 147.672C56.919 147.672 56.4114 148.225 55.8766 148.902ZM97.6984 152.595C97.3736 152.808 97.5565 152.84 98.3133 152.701C99.6397 152.458 99.8905 152.282 98.9025 152.289C98.4946 152.292 97.9522 152.429 97.6984 152.595ZM109.411 152.396C109.48 152.456 110.162 152.588 110.922 152.689C111.846 152.811 112.101 152.781 111.69 152.6C111.103 152.34 109.143 152.163 109.411 152.396ZM122.3 156.988C122.3 157.05 122.957 157.55 123.761 158.099C124.867 158.855 124.998 158.902 124.299 158.29C123.371 157.476 122.3 156.778 122.3 156.988ZM89.8429 170.816C89.7583 171.038 89.7266 173.635 89.7719 176.589L89.8565 181.96H95.5457H101.235V176.271V170.581L95.6167 170.498C91.2116 170.432 89.9637 170.501 89.8429 170.816ZM107.986 170.816C107.902 171.038 107.87 173.635 107.917 176.589L108.001 181.96H113.689H119.378V176.271V170.581L113.76 170.498C109.355 170.432 108.107 170.501 107.986 170.816ZM101.081 176.271V181.806H95.5457H90.0106V176.271V170.736H95.5457H101.081V176.271ZM119.226 176.271V181.806H113.689H108.154V176.271V170.736H113.689H119.226V176.271ZM72.0591 176.923C71.8022 178.206 72.0515 178.454 72.328 177.194C72.4458 176.662 72.476 176.162 72.399 176.085C72.3204 176.006 72.1678 176.384 72.0591 176.923ZM43.9543 179.653C43.9543 180.245 44.0177 180.487 44.0947 180.191C44.1718 179.895 44.1718 179.411 44.0947 179.115C44.0177 178.819 43.9543 179.061 43.9543 179.653ZM71.3717 179.785C71.2795 180.026 71.2554 180.544 71.3173 180.937C71.4019 181.463 71.4744 181.347 71.5877 180.499C71.7494 179.306 71.6633 179.023 71.3717 179.785ZM137.754 181.345C137.757 182.022 137.821 182.262 137.893 181.88C137.967 181.496 137.964 180.943 137.887 180.649C137.81 180.356 137.75 180.668 137.754 181.345ZM138.094 185.496C138.094 187.102 138.147 187.761 138.209 186.957C138.272 186.154 138.272 184.839 138.209 184.036C138.147 183.232 138.094 183.889 138.094 185.496ZM71.0484 185.496C71.0484 186.764 71.1028 187.284 71.1693 186.649C71.2342 186.015 71.2342 184.977 71.1693 184.342C71.1028 183.709 71.0484 184.227 71.0484 185.496ZM43.6597 185.496C43.6597 186.258 43.7186 186.569 43.7926 186.188C43.8651 185.808 43.8651 185.185 43.7926 184.805C43.7186 184.424 43.6597 184.735 43.6597 185.496ZM137.754 189.648C137.757 190.325 137.821 190.565 137.893 190.183C137.967 189.8 137.964 189.246 137.887 188.951C137.81 188.658 137.75 188.971 137.754 189.648ZM89.8474 194.722L89.8565 200.411H95.5457H101.235L101.246 194.722L101.256 189.033L101.161 194.645L101.067 200.257H95.5457H90.0242L89.9305 194.645L89.8368 189.033L89.8474 194.722ZM107.976 194.568C107.976 197.781 108.021 199.055 108.077 197.396C108.131 195.739 108.131 193.109 108.075 191.554C108.019 189.998 107.974 191.355 107.976 194.568ZM119.294 194.484L119.226 200.242L113.766 200.334L108.308 200.427L113.777 200.495C117.995 200.549 119.279 200.475 119.396 200.17C119.48 199.952 119.507 197.289 119.455 194.249L119.363 188.725L119.294 194.484ZM71.2735 190.134C71.2856 190.544 71.42 191.154 71.5741 191.492C71.7675 191.921 71.7962 191.736 71.6648 190.878C71.4472 189.45 71.2418 189.06 71.2735 190.134ZM43.9603 191.186C43.9633 191.862 44.0268 192.103 44.1008 191.72C44.1733 191.337 44.1718 190.784 44.0947 190.489C44.0177 190.196 43.9573 190.509 43.9603 191.186ZM137.097 192.929C137.078 193.21 136.981 193.695 136.884 194.005C136.716 194.538 136.726 194.539 137.058 194.02C137.251 193.719 137.348 193.234 137.271 192.944C137.146 192.468 137.129 192.467 137.097 192.929ZM72.0545 193.953C72.3083 195.083 72.4836 195.329 72.4775 194.542C72.4745 194.218 72.3325 193.745 72.1603 193.491C71.9322 193.154 71.9035 193.28 72.0545 193.953ZM45.4634 199.949C45.4634 200.203 45.5828 200.688 45.7278 201.026C45.894 201.413 45.9922 201.47 45.9922 201.179C45.9922 200.927 45.8728 200.442 45.7278 200.103C45.5616 199.715 45.4634 199.659 45.4634 199.949ZM200.41 223.244L200.564 246.231L213.479 246.237L226.395 246.241L213.556 246.157L200.718 246.07V223.164C200.718 210.565 200.614 200.257 200.487 200.257C200.36 200.257 200.325 210.601 200.41 223.244ZM130.139 206.945C129.313 207.918 128.955 208.438 129.346 208.099C130.088 207.456 131.974 205.178 131.764 205.178C131.698 205.178 130.967 205.974 130.139 206.945ZM47.7491 207.33C47.8624 207.753 48.0829 208.306 48.2401 208.56C48.438 208.88 48.4621 208.787 48.3201 208.252C48.2068 207.83 47.9847 207.276 47.8291 207.022C47.6312 206.702 47.6071 206.796 47.7491 207.33ZM126.432 210.79L125.53 211.788L126.528 210.885C127.078 210.39 127.528 209.939 127.528 209.886C127.528 209.649 127.275 209.858 126.432 210.79ZM53.884 219.247C54.4263 220.156 56.1107 222.247 55.6757 221.47C55.1786 220.582 53.6408 218.401 53.5108 218.401C53.4398 218.401 53.6075 218.781 53.884 219.247ZM102.389 218.935C103.53 218.996 105.398 218.996 106.541 218.935C107.681 218.877 106.747 218.828 104.465 218.828C102.181 218.828 101.247 218.877 102.389 218.935ZM57.0519 223.552C57.3843 224.017 57.9734 224.675 58.3617 225.013C58.7514 225.35 58.5294 224.971 57.8692 224.167C56.5473 222.558 56.1092 222.229 57.0519 223.552ZM150.576 225.089L149.515 226.243L150.669 225.182C151.742 224.196 151.964 223.936 151.728 223.936C151.677 223.936 151.159 224.456 150.576 225.089ZM161.066 226.012C160.502 226.815 160.303 227.24 160.622 226.954C161.179 226.457 162.431 224.551 162.2 224.551C162.138 224.551 161.628 225.208 161.066 226.012ZM61.7184 228.702C63.149 230.14 64.3878 231.317 64.4724 231.317C64.557 231.317 63.4572 230.14 62.0266 228.702C60.596 227.265 59.3572 226.089 59.2726 226.089C59.188 226.089 60.2893 227.265 61.7184 228.702ZM147.355 228.625L145.211 230.855L147.439 228.711C149.51 226.719 149.81 226.397 149.585 226.397C149.538 226.397 148.535 227.4 147.355 228.625ZM156.284 231.929C155.799 232.433 155.463 232.897 155.535 232.956C155.608 233.017 156.061 232.603 156.543 232.038C157.63 230.76 157.469 230.692 156.284 231.929ZM67.9802 234.014C68.2234 234.408 70.0227 235.739 70.0227 235.526C70.0227 235.449 69.5136 235 68.8927 234.526C68.2718 234.053 67.8609 233.822 67.9802 234.014ZM126.374 242.09C125.346 242.504 125.537 242.714 126.605 242.341C127.113 242.164 127.528 241.964 127.528 241.896C127.528 241.714 127.154 241.776 126.374 242.09ZM121.993 243.617C121.359 243.82 121.332 243.868 121.839 243.889C122.178 243.904 122.661 243.782 122.915 243.617C123.454 243.27 123.08 243.27 121.993 243.617ZM86.6538 243.727C86.7248 243.788 87.1977 243.931 87.7037 244.045C88.3775 244.196 88.5029 244.167 88.166 243.939C87.7506 243.658 86.3456 243.462 86.6538 243.727ZM118.609 244.54C117.976 244.743 117.949 244.791 118.457 244.812C118.795 244.826 119.279 244.703 119.532 244.54C120.072 244.191 119.697 244.191 118.609 244.54ZM93.112 245.268C93.1815 245.33 93.7933 245.465 94.4701 245.567C95.3267 245.699 95.514 245.672 95.085 245.477C94.4943 245.209 92.8476 245.034 93.112 245.268ZM102.249 246.306C103.652 246.364 105.867 246.364 107.169 246.306C108.473 246.249 107.325 246.202 104.617 246.202C101.912 246.202 100.845 246.249 102.249 246.306ZM146.056 246.308C149.397 246.357 154.863 246.357 158.203 246.308C161.543 246.258 158.81 246.217 152.13 246.217C145.448 246.217 142.715 246.258 146.056 246.308Z" fill="white"/>
<path fill-rule="evenodd" clip-rule="evenodd" d="M137.771 35.2946L136.907 36.0862L137.907 35.3913C138.457 35.009 138.907 34.6525 138.907 34.5997C138.907 34.3579 138.566 34.5649 137.771 35.2946ZM134.578 37.7812L133.833 38.5984L134.831 37.8778C135.871 37.127 136.004 36.9639 135.578 36.9639C135.437 36.9639 134.988 37.3325 134.578 37.7812ZM144.963 37.7071C145.438 38.115 145.88 38.396 145.945 38.3295C146.095 38.1815 144.689 36.988 144.347 36.9745C144.211 36.9684 144.488 37.2977 144.963 37.7071ZM148.109 40.1409C148.893 41.0035 149.06 41.1107 149.045 40.7315C149.039 40.6046 148.659 40.2345 148.199 39.9097L147.362 39.3205L148.109 40.1409ZM127.622 43.2967L126.76 44.0928L127.758 43.4296C128.674 42.8208 128.973 42.499 128.622 42.499C128.547 42.499 128.097 42.8586 127.622 43.2967ZM151.207 42.6108C151.207 42.6954 151.623 43.061 152.13 43.4221C152.638 43.7831 153.052 44.0097 153.052 43.9251C153.052 43.8405 152.638 43.4764 152.13 43.1139C151.623 42.7528 151.207 42.5262 151.207 42.6108ZM122.454 47.2758C121.947 47.6913 121.681 48.0327 121.862 48.0327C122.045 48.0342 122.518 47.6882 122.915 47.2668C123.826 46.2969 123.645 46.2999 122.454 47.2758ZM160.75 50.0963C160.755 50.2307 161.101 50.5903 161.519 50.8939C161.936 51.1976 162.273 51.3366 162.268 51.2006C162.262 51.0661 161.916 50.7081 161.499 50.4045C161.083 50.0993 160.744 49.9618 160.75 50.0963ZM113.537 54.3776C112.984 54.8474 112.87 55.0347 113.254 54.8444C113.818 54.5649 114.875 53.5527 114.573 53.5814C114.51 53.5875 114.044 53.9455 113.537 54.3776ZM165.66 53.9652C165.66 54.0362 166.526 54.7492 167.583 55.5484C168.639 56.349 169.02 56.5666 168.429 56.0333C167.193 54.9199 165.66 53.7748 165.66 53.9652ZM109.254 57.7283C108.928 57.9745 108.719 58.2359 108.792 58.3069C108.864 58.3794 109.249 58.1724 109.65 57.8491C110.491 57.1678 110.138 57.059 109.254 57.7283ZM106.178 60.1892C105.852 60.4354 105.645 60.6953 105.717 60.7678C105.788 60.8388 106.175 60.6333 106.574 60.3085C107.415 59.6272 107.062 59.5199 106.178 60.1892ZM173.392 60.3085C173.79 60.6333 174.177 60.8388 174.248 60.7678C174.407 60.6107 173.305 59.7435 172.931 59.7299C172.784 59.7254 172.993 59.9852 173.392 60.3085ZM103.081 62.6637C101.897 63.6048 100.72 64.5959 100.466 64.8648C100.019 65.3391 102.744 63.2861 104.618 61.7361C106.423 60.2421 105.196 60.9838 103.081 62.6637ZM175.655 61.9703C176.331 62.5806 176.999 63.0852 177.14 63.0912C177.279 63.0988 177.002 62.7891 176.525 62.4039C174.896 61.0941 174.422 60.8584 175.655 61.9703ZM179.499 65.0264C179.499 65.0899 179.915 65.4479 180.421 65.8225C180.928 66.1972 181.344 66.3921 181.344 66.2546C181.344 66.1156 180.928 65.7576 180.421 65.4585C179.915 65.1593 179.499 64.9645 179.499 65.0264ZM138.576 69.4603L137.83 70.2806L138.665 69.6899C139.126 69.3651 139.507 68.9965 139.511 68.8696C139.528 68.4904 139.359 68.5962 138.576 69.4603ZM135.501 71.9197L134.754 72.7415L135.591 72.1508C136.05 71.826 136.431 71.4559 136.437 71.329C136.452 70.9513 136.285 71.0571 135.501 71.9197ZM86.9304 75.4184C86.5105 75.7417 86.305 76.0046 86.4742 76.0031C86.8806 75.9985 88.0045 75.1405 87.8308 74.9667C87.7568 74.8927 87.3519 75.0951 86.9304 75.4184ZM192.107 74.8851C192.107 74.9607 192.615 75.4109 193.236 75.8852C193.857 76.3581 194.268 76.5892 194.15 76.3973C193.907 76.0031 192.107 74.6721 192.107 74.8851ZM84.1674 77.7101C83.5948 78.1331 83.2564 78.4745 83.4166 78.4685C83.7248 78.4564 85.6705 76.9457 85.3805 76.9427C85.2868 76.9427 84.7414 77.2871 84.1674 77.7101ZM152.449 78.3763C152.456 78.5168 153.099 79.103 153.878 79.6755C154.658 80.2496 155.204 80.5714 155.093 80.3901C154.771 79.8704 152.435 78.0908 152.449 78.3763ZM125.352 79.9157L124.607 80.736L125.442 80.1454C125.903 79.8206 126.284 79.452 126.288 79.3251C126.305 78.9459 126.136 79.0531 125.352 79.9157ZM199.181 80.5442C199.181 80.8116 200.41 81.6606 200.564 81.4989C200.616 81.4445 200.326 81.1515 199.919 80.8478C199.513 80.5442 199.181 80.4067 199.181 80.5442ZM122.762 81.9144C119.992 84.126 120.096 84.2831 122.915 82.147C123.676 81.5714 124.356 81.0639 124.427 81.0201C124.498 80.9747 124.498 80.8826 124.427 80.8131C124.356 80.7436 123.607 81.2391 122.762 81.9144ZM155.531 80.8373C155.541 80.9777 156.177 81.5503 156.945 82.1108C157.711 82.6697 158.255 82.9915 158.152 82.8253C157.845 82.3298 155.511 80.5578 155.531 80.8373ZM201.025 81.9642C201.025 82.0488 201.579 82.5564 202.255 83.0927C202.932 83.6275 203.486 83.9976 203.486 83.913C203.486 83.8284 202.932 83.3208 202.255 82.7845C201.579 82.2482 201.025 81.8796 201.025 81.9642ZM118.761 85.1352C117.534 86.2546 117.993 86.0325 119.634 84.7137C120.111 84.33 120.386 84.0142 120.246 84.0142C120.104 84.0142 119.436 84.5188 118.761 85.1352ZM160.332 84.7137C161.96 86.0234 162.435 86.2606 161.202 85.1472C160.525 84.5369 159.857 84.0324 159.717 84.0263C159.578 84.0203 159.854 84.33 160.332 84.7137ZM116.434 86.9888L115.689 87.8091L116.525 87.2184C116.984 86.8936 117.365 86.525 117.371 86.3981C117.386 86.0189 117.218 86.1262 116.434 86.9888ZM72.0804 87.2531C71.606 87.6701 71.3401 88.013 71.4897 88.013C71.6377 88.013 72.0849 87.6671 72.4822 87.2441C73.4007 86.2652 73.1983 86.2697 72.0804 87.2531ZM163.243 87.0628C163.643 87.3876 164.028 87.5931 164.101 87.522C164.258 87.3649 163.157 86.4978 162.782 86.4842C162.637 86.4797 162.844 86.7395 163.243 87.0628ZM208.193 87.6112C208.452 88.0281 210.866 89.9769 210.866 89.7669C210.866 89.6884 210.215 89.0901 209.42 88.439C208.624 87.7864 208.072 87.4148 208.193 87.6112ZM113.358 89.4482L112.614 90.27L113.449 89.6793C113.91 89.3545 114.29 88.9844 114.295 88.8575C114.312 88.4798 114.142 88.5856 113.358 89.4482ZM168.636 91.332C170.298 92.6493 172.142 94.0407 172.733 94.4244L173.81 95.1193L172.917 94.4108C172.428 94.021 170.698 92.6297 169.074 91.3199C167.45 90.0117 166.007 88.9391 165.867 88.9376C165.728 88.9361 166.973 90.0132 168.636 91.332ZM67.9033 90.5072C67.4985 90.835 67.222 91.1568 67.2885 91.2232C67.3534 91.2882 67.7387 91.0737 68.1435 90.7459C68.5484 90.418 68.8248 90.0963 68.7584 90.0298C68.6919 89.9648 68.3067 90.1793 67.9033 90.5072ZM211.174 90.0766C211.174 90.344 212.404 91.193 212.558 91.0314C212.609 90.9785 212.319 90.6854 211.913 90.3818C211.506 90.0766 211.174 89.9407 211.174 90.0766ZM109.846 92.2097C108.92 93.0376 108.851 93.1524 109.565 92.6735C110.416 92.1055 111.485 91.0691 111.191 91.0994C111.127 91.1054 110.523 91.6054 109.846 92.2097ZM64.8276 92.9499C64.4227 93.2868 64.1568 93.6282 64.2369 93.7083C64.317 93.7869 64.7067 93.5074 65.1025 93.0859C65.9666 92.1659 65.8412 92.1055 64.8276 92.9499ZM215.171 93.2249C217.038 94.8957 219.785 96.982 219.773 96.7206C219.765 96.5816 219.247 96.1088 218.619 95.6677C217.992 95.2266 216.717 94.2794 215.786 93.5633C214.855 92.8472 214.579 92.6946 215.171 93.2249ZM107.078 94.3549C106.526 94.8247 106.412 95.012 106.796 94.8217C107.359 94.5422 108.417 93.5301 108.115 93.5588C108.053 93.5648 107.586 93.9228 107.078 94.3549ZM60.8907 96.1843L60.0281 96.9759L61.0267 96.2795C61.5766 95.8973 62.0268 95.5408 62.0268 95.4894C62.0268 95.2462 61.6869 95.4547 60.8907 96.1843ZM103.696 97.1179L102.465 98.2192L103.773 97.2418C104.897 96.4004 105.303 95.994 105.003 96.0121C104.96 96.0151 104.371 96.5121 103.696 97.1179ZM58.9842 97.5636C58.5809 97.9005 58.315 98.2404 58.3936 98.3204C58.4736 98.4005 58.8634 98.1195 59.2607 97.698C60.1233 96.7795 59.9994 96.7191 58.9842 97.5636ZM100.135 99.9036L99.3906 100.725L100.226 100.135C100.687 99.81 101.066 99.4399 101.072 99.313C101.087 98.9353 100.919 99.041 100.135 99.9036ZM178.894 99.313C178.9 99.4399 179.279 99.81 179.74 100.135L180.575 100.725L179.83 99.9036C179.046 99.041 178.878 98.9353 178.894 99.313ZM97.7334 101.713C96.9916 102.297 96.5188 102.774 96.6834 102.774C96.8466 102.774 97.5234 102.295 98.1851 101.71C99.7335 100.342 99.4752 100.345 97.7334 101.713ZM54.3207 101.322C52.5623 102.695 52.1061 103.103 52.2163 103.208C52.2843 103.272 52.9626 102.788 53.724 102.127C55.0081 101.016 55.413 100.469 54.3207 101.322ZM226.087 101.997C226.764 102.581 227.435 103.062 227.578 103.069C227.72 103.076 227.258 102.596 226.55 102.005C225.841 101.413 225.17 100.931 225.06 100.932C224.948 100.935 225.412 101.414 226.087 101.997ZM181.959 101.762C181.959 102.031 183.188 102.88 183.342 102.718C183.394 102.664 183.104 102.371 182.697 102.067C182.291 101.763 181.959 101.626 181.959 101.762ZM95.0851 103.877L94.1621 104.67L95.1622 104.008C95.712 103.644 96.1607 103.286 96.1607 103.214C96.1607 102.984 96.0308 103.064 95.0851 103.877ZM50.9126 104.02C50.2253 104.62 50.2222 104.637 50.8613 104.327C51.2329 104.147 51.6211 103.862 51.7254 103.694C52.0275 103.204 51.6967 103.337 50.9126 104.02ZM228.088 103.46C228.088 103.54 228.917 104.257 229.932 105.055C230.947 105.851 231.772 106.392 231.766 106.253C231.759 106.116 231.183 105.587 230.487 105.079C229.79 104.572 228.964 103.967 228.653 103.735C228.341 103.504 228.088 103.378 228.088 103.46ZM186.683 105.471C186.926 105.865 188.725 107.196 188.725 106.983C188.725 106.906 188.216 106.457 187.595 105.983C186.974 105.51 186.563 105.279 186.683 105.471ZM92.0094 106.348C91.4565 106.818 91.3432 107.005 91.7269 106.815C92.2919 106.536 93.3478 105.523 93.0472 105.552C92.9838 105.558 92.517 105.916 92.0094 106.348ZM45.7053 108.232L44.959 109.078L45.882 108.309C46.3896 107.886 46.8625 107.505 46.932 107.463C47.003 107.421 46.9229 107.386 46.7552 107.386C46.5875 107.386 46.1147 107.767 45.7053 108.232ZM233.408 107.595C233.531 107.794 234.212 108.416 234.922 108.978C235.632 109.54 236.112 109.836 235.99 109.639C235.868 109.439 235.185 108.817 234.475 108.255C233.765 107.693 233.284 107.395 233.408 107.595ZM42.6869 110.478C42.2821 110.815 42.0162 111.157 42.0962 111.237C42.1748 111.317 42.5646 111.036 42.9619 110.614C43.8245 109.696 43.7006 109.634 42.6869 110.478ZM194.875 111.997C196.111 113.11 197.643 114.254 197.643 114.063C197.643 113.992 196.777 113.281 195.721 112.48C194.664 111.681 194.283 111.463 194.875 111.997ZM83.4 113.081C82.7232 113.664 82.2821 114.145 82.421 114.146C82.5585 114.149 83.1809 113.669 83.8048 113.078C85.2566 111.701 84.9998 111.704 83.4 113.081ZM38.9978 113.399C38.2561 113.982 37.7832 114.459 37.9479 114.459C38.111 114.459 38.7878 113.98 39.4495 113.396C40.998 112.028 40.7381 112.03 38.9978 113.399ZM240.542 113.349C241.218 113.955 241.898 114.452 242.054 114.455C242.208 114.458 242.277 114.417 242.208 114.364C242.137 114.313 241.456 113.816 240.696 113.26L239.312 112.247L240.542 113.349ZM243.463 115.668C244.056 116.195 244.954 116.911 245.462 117.258C246.258 117.804 246.237 117.757 245.308 116.922C244.716 116.388 243.817 115.672 243.309 115.329C242.51 114.791 242.531 114.837 243.463 115.668ZM80.016 115.87L79.0945 116.662L80.0931 116.002C80.643 115.637 81.0931 115.279 81.0931 115.207C81.0931 114.977 80.9632 115.057 80.016 115.87ZM77.886 117.387C77.5612 117.633 77.3527 117.894 77.4252 117.965C77.4977 118.038 77.8829 117.831 78.2817 117.508C79.1232 116.826 78.7697 116.718 77.886 117.387ZM247.13 118.558C247.914 119.422 248.081 119.527 248.066 119.148C248.06 119.021 247.68 118.653 247.22 118.328L246.385 117.737L247.13 118.558ZM32.3735 118.617C32.0472 118.864 31.8402 119.124 31.9127 119.195C31.9852 119.268 32.3704 119.062 32.7693 118.737C33.6107 118.056 33.2572 117.949 32.3735 118.617ZM74.919 119.893L74.1742 120.713L75.0096 120.123C75.4688 119.799 75.8495 119.429 75.8556 119.302C75.8707 118.923 75.703 119.03 74.919 119.893ZM204.11 119.302C204.116 119.429 204.497 119.799 204.956 120.123L205.791 120.713L205.047 119.893C204.262 119.03 204.095 118.923 204.11 119.302ZM71.4066 122.655C70.4806 123.481 70.4111 123.596 71.1256 123.118C71.9761 122.55 73.0442 121.514 72.7511 121.543C72.6877 121.55 72.0819 122.05 71.4066 122.655ZM207.456 121.937C207.929 122.534 209.636 123.818 209.636 123.578C209.636 123.496 209.048 122.97 208.329 122.41C207.61 121.849 207.217 121.636 207.456 121.937ZM252.535 122.86C253.212 123.47 253.88 123.973 254.018 123.981C254.159 123.987 253.883 123.677 253.404 123.292C251.777 121.984 251.301 121.747 252.535 122.86ZM68.3309 125.114C67.4048 125.942 67.3353 126.057 68.0499 125.578C68.9004 125.01 69.97 123.973 69.6754 124.004C69.6119 124.01 69.0076 124.51 68.3309 125.114ZM97.5445 124.606C96.0837 124.807 96.0686 124.819 97.2379 124.836C97.9146 124.845 99.229 124.748 100.16 124.62C101.824 124.39 101.829 124.386 100.466 124.392C99.7048 124.393 98.3905 124.492 97.5445 124.606ZM109.077 124.62C110.008 124.748 111.322 124.85 111.999 124.844C113.186 124.833 113.176 124.824 111.691 124.593C110.845 124.461 109.53 124.36 108.769 124.369L107.385 124.386L109.077 124.62ZM200.308 124.505C200.196 124.617 200.102 134.926 200.102 147.412V170.114L182.19 170.197L164.276 170.279L182.339 170.353L200.403 170.427L200.483 147.363C200.528 134.678 200.552 124.3 200.539 124.3C200.524 124.3 200.421 124.392 200.308 124.505ZM255.552 125.128C255.81 125.546 258.224 127.493 258.224 127.283C258.224 127.205 257.573 126.608 256.777 125.955C255.982 125.304 255.431 124.931 255.552 125.128ZM92.0094 125.529C91.7843 125.894 92.0864 125.894 92.9324 125.529C93.5246 125.274 93.5231 125.265 92.8735 125.244C92.5033 125.232 92.1136 125.36 92.0094 125.529ZM115.561 125.333C115.924 125.646 117.413 125.832 117.233 125.542C117.125 125.366 116.676 125.223 116.235 125.223C115.794 125.223 115.49 125.271 115.561 125.333ZM22.4513 126.628L21.5872 127.419L22.5872 126.724C23.1371 126.342 23.5873 125.986 23.5873 125.933C23.5873 125.691 23.2459 125.898 22.4513 126.628ZM89.3959 126.144C88.7629 126.348 88.7357 126.395 89.2418 126.416C89.5802 126.431 90.0651 126.309 90.3189 126.144C90.8567 125.797 90.4836 125.797 89.3959 126.144ZM118.918 126.108C119.172 126.25 119.863 126.454 120.456 126.558C121.104 126.673 121.348 126.646 121.07 126.489C120.817 126.347 120.125 126.143 119.533 126.039C118.884 125.924 118.64 125.951 118.918 126.108ZM258.927 128.104C259.132 128.546 259.404 128.909 259.531 128.91C259.951 128.915 259.77 128.401 259.158 127.847C258.567 127.312 258.563 127.318 258.927 128.104ZM62.1204 129.989C61.918 130.208 61.572 130.451 61.3515 130.53C61.1309 130.608 61.0221 130.752 61.1083 130.849C61.1959 130.944 61.6083 130.765 62.0268 130.45C62.4437 130.136 62.7186 129.812 62.6371 129.734C62.5555 129.654 62.3228 129.768 62.1204 129.989ZM22.6764 131.314C22.696 131.634 25.1161 134.251 25.2611 134.107C25.3291 134.038 24.7732 133.334 24.0254 132.541C23.2761 131.749 22.6703 131.196 22.6764 131.314ZM59.1368 132.315C58.4766 132.812 58.0672 133.217 58.2259 133.217C58.3845 133.217 58.9933 132.808 59.5779 132.308C60.9406 131.143 60.6898 131.148 59.1368 132.315ZM255.029 133.615C254.215 134.705 254.117 134.918 254.721 134.284C256.26 132.667 256.791 131.988 256.504 132.001C256.35 132.007 255.686 132.734 255.029 133.615ZM135.062 132.519C135.662 133.09 137.782 134.252 137.557 133.887C137.43 133.683 136.748 133.226 136.041 132.871C135.334 132.518 134.893 132.359 135.062 132.519ZM56.6457 134.332C56.0928 134.804 55.9795 134.989 56.3632 134.799C56.9267 134.52 57.9841 133.507 57.682 133.536C57.6186 133.542 57.1518 133.9 56.6457 134.332ZM27.4456 136.583C29.6104 139.112 30.967 140.57 30.958 140.36C30.9534 140.237 29.9503 139.091 28.7282 137.813C27.5075 136.535 26.9305 135.98 27.4456 136.583ZM252.213 136.677L250.997 137.984L252.304 136.769C253.023 136.1 253.611 135.512 253.611 135.462C253.611 135.23 253.343 135.462 252.213 136.677ZM227.007 191.954C227.007 221.975 227.044 234.257 227.087 219.246C227.131 204.235 227.131 179.672 227.087 164.661C227.044 149.651 227.007 161.932 227.007 191.954ZM249.98 139.151C249.441 139.71 248.998 140.263 248.998 140.382C248.998 140.599 249.568 140.059 250.66 138.808C251.567 137.772 251.082 138.017 249.98 139.151ZM49.76 139.71C49.3551 140.038 49.0787 140.36 49.1436 140.425C49.2101 140.491 49.5953 140.277 50.0002 139.949C50.405 139.621 50.6815 139.299 50.615 139.233C50.5486 139.168 50.1633 139.382 49.76 139.71ZM230 139.849C230.459 140.328 230.908 140.647 230.996 140.559C231.083 140.472 230.707 140.08 230.159 139.691L229.163 138.981L230 139.849ZM63.2353 140.328C62.6552 140.857 62.4588 141.147 62.7987 140.972C63.4045 140.662 64.7248 139.367 64.4363 139.367C64.3562 139.367 63.8154 139.801 63.2353 140.328ZM231.47 141.003C231.47 141.142 234.484 143.498 235.611 144.239C236.567 144.868 234.259 142.895 232.777 141.818C232.058 141.295 231.47 140.928 231.47 141.003ZM46.6933 142.162C46.2944 142.485 46.086 142.747 46.2325 142.741C46.6072 142.727 47.7085 141.861 47.5513 141.704C47.4788 141.632 47.0921 141.839 46.6933 142.162ZM59.5281 143.905C58.7017 144.833 58.2319 145.519 58.4223 145.519C58.4887 145.519 59.0401 144.964 59.6474 144.288C60.2547 143.612 60.646 143.058 60.5176 143.058C60.3892 143.058 59.9435 143.44 59.5281 143.905ZM35.4266 145.519C36.0867 146.196 36.6971 146.749 36.7817 146.749C36.8663 146.749 36.3949 146.196 35.7332 145.519C35.0731 144.842 34.4628 144.288 34.3782 144.288C34.2951 144.288 34.7664 144.842 35.4266 145.519ZM237.212 145.602C238.839 146.912 239.315 147.149 238.081 146.035C237.405 145.425 236.736 144.921 236.597 144.915C236.457 144.909 236.733 145.218 237.212 145.602ZM41.7307 146.171C40.6581 147.111 40.6581 147.111 41.6446 146.455C42.1884 146.093 42.7156 145.665 42.8153 145.504C43.1129 145.023 42.8667 145.176 41.7307 146.171ZM56.9206 147.132C55.5746 148.687 55.1743 149.208 55.3299 149.208C55.4205 149.208 56.0052 148.586 56.6291 147.824C57.7832 146.415 58.0129 145.874 56.9206 147.132ZM239.773 147.687C240.839 148.41 241.447 148.62 240.696 148.005C240.273 147.659 239.788 147.375 239.619 147.375C239.449 147.374 239.519 147.514 239.773 147.687ZM54.1168 150.823C53.5155 151.601 53.3101 152.078 53.6742 151.853C54.0382 151.628 54.7679 150.439 54.5413 150.439C54.4718 150.439 54.2799 150.611 54.1168 150.823ZM101.85 152.269C101.092 152.395 102.093 152.482 104.465 152.492C107.272 152.504 107.935 152.444 106.924 152.266C105.305 151.98 103.571 151.982 101.85 152.269ZM97.4524 152.894C96.8949 153.027 96.3511 153.222 96.2453 153.328C95.9855 153.587 98.04 153.189 98.6216 152.865C99.1715 152.56 98.8271 152.569 97.4524 152.894ZM110.615 152.865C110.869 153.009 111.63 153.213 112.305 153.315C113.082 153.435 113.309 153.409 112.922 153.248C112.021 152.873 110.056 152.547 110.615 152.865ZM122.608 157.636C122.608 157.721 123.231 158.218 123.992 158.742C124.754 159.266 125.376 159.624 125.376 159.54C125.376 159.455 124.754 158.958 123.992 158.434C123.231 157.911 122.608 157.551 122.608 157.636ZM84.6296 158.922L83.7066 159.715L84.7067 159.053C85.2566 158.691 85.7053 158.332 85.7053 158.26C85.7053 158.029 85.5753 158.109 84.6296 158.922ZM128.133 162.278C131.245 165.632 131.47 165.85 130.373 164.431C129.849 163.754 128.618 162.44 127.636 161.509C126.125 160.077 126.201 160.195 128.133 162.278ZM80.0024 163.124L78.7863 164.431L80.0931 163.215C81.3092 162.085 81.5418 161.816 81.3092 161.816C81.2593 161.816 80.6702 162.405 80.0024 163.124ZM77.0958 166.736C76.7333 167.244 76.5067 167.659 76.5913 167.659C76.6759 167.659 77.0415 167.244 77.4025 166.736C77.7636 166.23 77.9902 165.815 77.9056 165.815C77.821 165.815 77.4569 166.23 77.0958 166.736ZM89.6013 170.324C89.3173 170.608 89.3415 182.043 89.627 182.219C89.7539 182.298 89.8173 179.68 89.7675 176.402L89.6784 170.441L95.6108 170.35L101.543 170.259L95.6743 170.19C92.4475 170.151 89.7131 170.213 89.6013 170.324ZM107.745 170.324C107.461 170.608 107.485 182.043 107.77 182.219C107.897 182.298 107.961 179.671 107.911 176.382L107.822 170.401L113.803 170.492C117.091 170.54 119.718 170.477 119.64 170.35C119.463 170.066 108.029 170.04 107.745 170.324ZM44.9817 171.219C44.8684 171.669 44.8442 172.107 44.9288 172.192C45.0134 172.276 45.175 171.977 45.2883 171.525C45.4016 171.075 45.4258 170.637 45.3412 170.552C45.2566 170.468 45.095 170.767 44.9817 171.219ZM44.3819 173.976C44.2762 174.251 44.2052 174.775 44.2218 175.142C44.2414 175.563 44.3457 175.414 44.5058 174.734C44.7747 173.592 44.7022 173.143 44.3819 173.976ZM136.34 176.27C136.445 176.863 136.647 177.554 136.791 177.808C136.948 178.086 136.975 177.84 136.86 177.193C136.754 176.601 136.552 175.909 136.41 175.656C136.253 175.378 136.226 175.622 136.34 176.27ZM71.9051 179.192C71.8795 179.53 71.7873 180.153 71.7012 180.576L71.5426 181.345L71.8719 180.589C72.0532 180.176 72.1453 179.552 72.0758 179.206C71.955 178.592 71.9505 178.592 71.9051 179.192ZM137.114 179.499C137.108 179.837 137.223 180.392 137.369 180.73C137.706 181.512 137.706 180.704 137.369 179.653C137.171 179.035 137.122 179.005 137.114 179.499ZM43.4649 181.114C43.2142 182.63 43.255 188.046 43.5314 189.802C43.6568 190.602 43.7444 188.823 43.7384 185.573C43.7278 179.382 43.7353 179.485 43.4649 181.114ZM71.3507 185.496C71.3507 186.596 71.4066 187.045 71.4746 186.495C71.5426 185.946 71.5426 185.046 71.4746 184.496C71.4066 183.946 71.3507 184.396 71.3507 185.496ZM89.5832 188.75C89.4805 189.018 89.4261 191.82 89.4623 194.977L89.5288 200.718L89.6935 194.722L89.8566 188.724L95.7 188.561L101.543 188.397L95.6562 188.33C90.5319 188.273 89.7448 188.327 89.5832 188.75ZM110 188.474C114.892 188.696 119.771 188.705 119.64 188.495C119.561 188.368 116.91 188.291 113.748 188.324C110.588 188.357 108.9 188.425 110 188.474ZM107.683 194.722L107.693 200.718L113.514 200.802C116.715 200.848 119.442 200.778 119.572 200.648C119.703 200.517 117.122 200.45 113.836 200.5L107.861 200.589L107.766 194.657L107.672 188.724L107.683 194.722ZM137.232 190.587C137.117 191.204 137.084 191.77 137.158 191.846C137.233 191.921 137.39 191.477 137.505 190.861C137.622 190.243 137.655 189.676 137.579 189.602C137.504 189.527 137.348 189.969 137.232 190.587ZM71.7616 190.877C71.8644 191.554 72.0003 192.166 72.0622 192.235C72.2949 192.5 72.1197 190.853 71.8523 190.262C71.6589 189.833 71.6317 190.021 71.7616 190.877ZM44.2263 195.952C44.2112 196.375 44.3336 196.928 44.4983 197.181C44.8774 197.769 44.8774 197.138 44.4983 195.952L44.252 195.183L44.2263 195.952ZM44.9937 199.488C45.246 200.618 45.4228 200.864 45.4152 200.077C45.4137 199.753 45.2702 199.28 45.0995 199.027C44.8714 198.69 44.8427 198.814 44.9937 199.488ZM92.872 200.793C94.5292 200.849 97.1593 200.849 98.7138 200.793C100.27 200.737 98.9132 200.692 95.7 200.692C92.4867 200.692 91.2132 200.739 92.872 200.793ZM200.253 223.475L200.256 246.539L213.479 246.543L226.704 246.549L213.559 246.463L200.415 246.378L200.332 223.395L200.25 200.411L200.253 223.475ZM79.5553 207.484C79.9526 207.906 80.3287 208.252 80.3922 208.252C80.6475 208.252 79.38 206.733 79.1172 206.724C78.9616 206.718 79.1579 207.061 79.5553 207.484ZM129.219 207.566C129.05 207.69 128.708 208.067 128.461 208.406C128.127 208.86 128.227 208.826 128.844 208.276C129.597 207.605 129.826 207.321 129.604 207.335C129.562 207.338 129.388 207.44 129.219 207.566ZM82.415 210.187C83.8381 211.569 87.5513 214.3 87.5513 213.964C87.5513 213.88 86.7552 213.266 85.7823 212.599C84.8094 211.933 83.6688 211.075 83.2459 210.693C81.5116 209.123 81.001 208.812 82.415 210.187ZM95.2392 217.441C95.493 217.583 96.1849 217.787 96.7756 217.891C97.4237 218.006 97.6684 217.979 97.392 217.822C97.1382 217.68 96.4463 217.476 95.8541 217.372C95.206 217.257 94.9613 217.284 95.2392 217.441ZM112.768 217.477L111.999 217.724L112.768 217.749C113.191 217.764 113.744 217.642 113.997 217.477C114.585 217.098 113.952 217.098 112.768 217.477ZM99.5447 218.4C99.9661 218.536 100.59 218.651 100.928 218.656L101.543 218.665L100.928 218.4C100.59 218.255 99.9661 218.141 99.5447 218.145L98.7757 218.154L99.5447 218.4ZM108.462 218.405C108.137 218.618 108.32 218.648 109.077 218.509C110.404 218.266 110.654 218.091 109.666 218.098C109.258 218.1 108.716 218.239 108.462 218.405ZM55.7846 222.543C56.0882 222.96 56.4659 223.306 56.6215 223.312C56.7786 223.316 56.5807 222.975 56.1834 222.552C55.2619 221.57 55.0746 221.565 55.7846 222.543ZM58.5371 225.909C59.019 226.486 59.6036 227.042 59.8378 227.144C60.0719 227.247 59.7955 226.786 59.2229 226.12C58.6504 225.455 58.0657 224.898 57.9222 224.884C57.7787 224.871 58.0552 225.33 58.5371 225.909ZM147.512 228.773C145.738 230.589 144.823 231.592 145.477 231.003C147.436 229.238 151.115 225.473 150.881 225.473C150.801 225.473 149.284 226.958 147.512 228.773ZM157.051 230.546C156.655 230.968 156.389 231.365 156.46 231.429C156.531 231.491 156.91 231.146 157.304 230.661C158.185 229.575 158.029 229.505 157.051 230.546ZM63.2746 230.604C63.2927 230.859 66.9471 233.935 66.9471 233.693C66.9471 233.621 66.1162 232.84 65.1025 231.956C64.0873 231.074 63.264 230.465 63.2746 230.604ZM153.213 234.661L150.758 237.313L153.443 234.705C154.919 233.272 156.127 232.062 156.127 232.015C156.127 231.651 155.322 232.382 153.213 234.661ZM68.1768 234.624C68.1768 234.761 68.5922 235.119 69.0998 235.418C69.6074 235.719 70.0228 235.912 70.0228 235.85C70.0228 235.788 69.6074 235.43 69.0998 235.056C68.5922 234.68 68.1768 234.486 68.1768 234.624ZM148.748 238.697C148.325 239.027 148.13 239.301 148.316 239.305C148.5 239.308 148.902 239.035 149.209 238.697C149.909 237.922 149.737 237.922 148.748 238.697ZM146.748 240.416L145.826 241.207L146.825 240.546C147.375 240.183 147.825 239.825 147.825 239.753C147.825 239.521 147.695 239.601 146.748 240.416ZM77.4025 240.388C77.8255 240.63 78.3104 240.828 78.4796 240.828C78.6473 240.828 78.4404 240.63 78.0174 240.388C77.5944 240.147 77.111 239.949 76.9418 239.949C76.7726 239.949 76.9795 240.147 77.4025 240.388ZM120.916 244.232C120.53 244.398 120.472 244.496 120.762 244.496C121.016 244.496 121.501 244.377 121.839 244.232C122.226 244.066 122.284 243.967 121.993 243.967C121.74 243.967 121.255 244.087 120.916 244.232ZM138.764 245.847L138.279 246.539L151.106 246.619C158.159 246.662 164.037 246.594 164.166 246.464C164.294 246.336 158.664 246.268 151.653 246.315C139.273 246.395 138.029 246.312 139.445 245.487C139.741 245.315 139.818 245.168 139.616 245.164C139.413 245.159 139.031 245.466 138.764 245.847ZM94.8585 245.987C95.2407 246.061 95.7936 246.058 96.0882 245.981C96.3813 245.904 96.0686 245.844 95.3918 245.847C94.7165 245.851 94.4748 245.913 94.8585 245.987ZM113.309 245.987C113.692 246.061 114.245 246.058 114.54 245.981C114.833 245.904 114.52 245.844 113.843 245.847C113.167 245.851 112.926 245.913 113.309 245.987ZM103.457 246.606C104.004 246.674 104.973 246.676 105.61 246.61C106.249 246.543 105.802 246.487 104.618 246.486C103.435 246.484 102.912 246.538 103.457 246.606Z" fill="white"/>
</svg>
