<svg width="16" height="14" viewBox="0 0 16 14" fill="none" xmlns="http://www.w3.org/2000/svg">
<path fill-rule="evenodd" clip-rule="evenodd" d="M8.47641 1.29389L10.0204 4.39989C10.0977 4.55655 10.2471 4.66589 10.4204 4.69122L13.8771 5.19055C14.0171 5.20922 14.1431 5.28255 14.2291 5.39455C14.3904 5.60455 14.3657 5.90189 14.1724 6.08255L11.6671 8.50522C11.5397 8.62522 11.4831 8.80122 11.5164 8.97255L12.1164 12.3912C12.1584 12.6746 11.9651 12.9399 11.6817 12.9859C11.5644 13.0039 11.4444 12.9852 11.3377 12.9326L8.25908 11.3186C8.10441 11.2346 7.91908 11.2346 7.76441 11.3186L4.66308 12.9412C4.40374 13.0732 4.08641 12.9752 3.94508 12.7212C3.89108 12.6186 3.87241 12.5019 3.89108 12.3879L4.49108 8.96922C4.52108 8.79855 4.46441 8.62322 4.34041 8.50255L1.82174 6.08055C1.61641 5.87655 1.61508 5.54455 1.81974 5.33922C1.82041 5.33855 1.82108 5.33722 1.82174 5.33655C1.90641 5.25989 2.01041 5.20855 2.12308 5.18855L5.58041 4.68922C5.75308 4.66189 5.90174 4.55389 5.98041 4.39722L7.52308 1.29389C7.58508 1.16789 7.69508 1.07122 7.82841 1.02722C7.96241 0.982553 8.10908 0.99322 8.23508 1.05655C8.33841 1.10789 8.42308 1.19122 8.47641 1.29389Z" stroke="#192252" stroke-width="1.5" stroke-linecap="round" stroke-linejoin="round"/>
</svg>
