<svg width="14" height="14" viewBox="0 0 14 14" fill="none" xmlns="http://www.w3.org/2000/svg">
<path d="M7.00016 13.6667C3.31816 13.6667 0.333496 10.682 0.333496 7C0.333496 3.318 3.31816 0.333328 7.00016 0.333328C10.6822 0.333328 13.6668 3.318 13.6668 7C13.6668 10.682 10.6822 13.6667 7.00016 13.6667ZM7.00016 12.3333C8.41465 12.3333 9.77121 11.7714 10.7714 10.7712C11.7716 9.77104 12.3335 8.41448 12.3335 7C12.3335 5.58551 11.7716 4.22895 10.7714 3.22876C9.77121 2.22856 8.41465 1.66666 7.00016 1.66666C5.58567 1.66666 4.22912 2.22856 3.22893 3.22876C2.22873 4.22895 1.66683 5.58551 1.66683 7C1.66683 8.41448 2.22873 9.77104 3.22893 10.7712C4.22912 11.7714 5.58567 12.3333 7.00016 12.3333ZM6.3355 9.66666L3.50683 6.838L4.4495 5.89533L6.3355 7.78133L10.1062 4.00999L11.0495 4.95266L6.3355 9.66666Z" fill="white"/>
</svg>
