<svg width="16" height="14" viewBox="0 0 16 14" fill="none" xmlns="http://www.w3.org/2000/svg">
<path d="M9.23275 1.83353V3.44687" stroke="#192252" stroke-width="1.5" stroke-linecap="round" stroke-linejoin="round"/>
<path d="M9.23275 10.8401V12.1894" stroke="#192252" stroke-width="1.5" stroke-linecap="round" stroke-linejoin="round"/>
<path d="M9.23275 8.54973V5.33573" stroke="#192252" stroke-width="1.5" stroke-linecap="round" stroke-linejoin="round"/>
<path fill-rule="evenodd" clip-rule="evenodd" d="M12.4678 12.3333C13.6825 12.3333 14.6663 11.3617 14.6663 10.1621V8.43376C13.8626 8.43376 13.2152 7.79447 13.2152 7.00068C13.2152 6.2069 13.8626 5.56693 14.6663 5.56693L14.6656 3.8379C14.6656 2.6383 13.6811 1.66666 12.4671 1.66666H3.53228C2.31827 1.66666 1.3337 2.6383 1.3337 3.8379L1.33301 5.62323C2.13679 5.62323 2.78413 6.2069 2.78413 7.00068C2.78413 7.79447 2.13679 8.43376 1.33301 8.43376V10.1621C1.33301 11.3617 2.31688 12.3333 3.53159 12.3333H12.4678Z" stroke="#192252" stroke-width="1.5" stroke-linecap="round" stroke-linejoin="round"/>
</svg>
