<svg width="16" height="16" viewBox="0 0 16 16" fill="none" xmlns="http://www.w3.org/2000/svg">
<path d="M4.99984 4.66667C5.73622 4.66667 6.33317 4.06971 6.33317 3.33333C6.33317 2.59695 5.73622 2 4.99984 2C4.26346 2 3.6665 2.59695 3.6665 3.33333C3.6665 4.06971 4.26346 4.66667 4.99984 4.66667Z" stroke="#C5D0E6" stroke-width="1.5" stroke-linecap="round" stroke-linejoin="round"/>
<path d="M10.9998 4.66667C11.7362 4.66667 12.3332 4.06971 12.3332 3.33333C12.3332 2.59695 11.7362 2 10.9998 2C10.2635 2 9.6665 2.59695 9.6665 3.33333C9.6665 4.06971 10.2635 4.66667 10.9998 4.66667Z" stroke="#C5D0E6" stroke-width="1.5" stroke-linecap="round" stroke-linejoin="round"/>
<path d="M3.3335 6.66667H6.66683L6.00016 14H4.00016L3.3335 6.66667Z" stroke="#C5D0E6" stroke-width="1.5" stroke-linecap="round" stroke-linejoin="round"/>
<path d="M9.33317 6.66667H12.6665L13.3332 10.3333H12.3332L11.9998 14H9.99984L9.6665 10.3333H8.6665L9.33317 6.66667Z" stroke="#C5D0E6" stroke-width="1.5" stroke-linecap="round" stroke-linejoin="round"/>
</svg>
