<svg width="327" height="152" viewBox="0 0 327 152" fill="none" xmlns="http://www.w3.org/2000/svg">
<rect width="327" height="152" rx="8" fill="#E9FBFF"/>
<path d="M163.5 64.586L167.743 68.828L166.328 70.243L164.5 68.415V74H162.5V68.413L160.672 70.243L159.257 68.828L163.5 64.586ZM163.5 54C165.217 54.0001 166.874 54.6311 168.156 55.7731C169.438 56.9151 170.256 58.4885 170.454 60.194C171.698 60.5333 172.784 61.2991 173.521 62.3575C174.258 63.416 174.599 64.6997 174.486 65.9844C174.372 67.2691 173.811 68.473 172.9 69.3858C171.988 70.2986 170.786 70.8622 169.501 70.978V68.964C169.961 68.8983 170.404 68.7416 170.803 68.503C171.202 68.2644 171.549 67.9487 171.825 67.5744C172.1 67.2001 172.298 66.7746 172.408 66.3228C172.517 65.8711 172.536 65.402 172.462 64.9431C172.388 64.4841 172.223 64.0445 171.978 63.6498C171.732 63.2552 171.41 62.9134 171.031 62.6445C170.652 62.3755 170.223 62.1848 169.77 62.0834C169.316 61.982 168.847 61.972 168.389 62.054C168.546 61.3249 168.537 60.57 168.364 59.8446C168.191 59.1191 167.858 58.4416 167.39 57.8615C166.921 57.2815 166.328 56.8136 165.655 56.4922C164.983 56.1708 164.246 56.004 163.501 56.004C162.755 56.004 162.018 56.1708 161.346 56.4922C160.673 56.8136 160.08 57.2815 159.611 57.8615C159.143 58.4416 158.81 59.1191 158.637 59.8446C158.464 60.57 158.455 61.3249 158.612 62.054C157.7 61.8827 156.757 62.0808 155.99 62.6048C155.224 63.1287 154.697 63.9357 154.526 64.848C154.355 65.7603 154.553 66.7034 155.077 67.4697C155.601 68.2359 156.408 68.7627 157.32 68.934L157.5 68.964V70.978C156.215 70.8623 155.012 70.2989 154.101 69.3862C153.19 68.4735 152.628 67.2696 152.515 65.9848C152.401 64.7001 152.742 63.4163 153.479 62.3578C154.216 61.2993 155.302 60.5334 156.546 60.194C156.744 58.4884 157.561 56.9149 158.844 55.7729C160.126 54.6308 161.783 53.9999 163.5 54Z" fill="url(#paint0_linear_111_17814)"/>
<path d="M120.433 86.3636H122.195V94.017C122.195 94.8314 122.003 95.553 121.621 96.1818C121.238 96.8068 120.7 97.2992 120.007 97.6591C119.314 98.0152 118.501 98.1932 117.57 98.1932C116.642 98.1932 115.831 98.0152 115.138 97.6591C114.445 97.2992 113.907 96.8068 113.524 96.1818C113.142 95.553 112.95 94.8314 112.95 94.017V86.3636H114.706V93.875C114.706 94.4015 114.821 94.8693 115.053 95.2784C115.287 95.6875 115.619 96.0095 116.047 96.2443C116.475 96.4754 116.982 96.5909 117.57 96.5909C118.161 96.5909 118.67 96.4754 119.098 96.2443C119.53 96.0095 119.859 95.6875 120.087 95.2784C120.318 94.8693 120.433 94.4015 120.433 93.875V86.3636ZM124.611 101.273V89.2727H126.27V90.6875H126.412C126.51 90.5057 126.652 90.2955 126.838 90.0568C127.024 89.8182 127.281 89.6098 127.611 89.4318C127.94 89.25 128.376 89.1591 128.918 89.1591C129.622 89.1591 130.251 89.3371 130.804 89.6932C131.357 90.0492 131.791 90.5625 132.105 91.233C132.423 91.9034 132.582 92.7102 132.582 93.6534C132.582 94.5966 132.425 95.4053 132.111 96.0795C131.796 96.75 131.365 97.267 130.815 97.6307C130.266 97.9905 129.639 98.1705 128.935 98.1705C128.404 98.1705 127.971 98.0814 127.634 97.9034C127.3 97.7254 127.039 97.517 126.849 97.2784C126.66 97.0398 126.514 96.8277 126.412 96.642H126.31V101.273H124.611ZM126.276 93.6364C126.276 94.25 126.365 94.7879 126.543 95.25C126.721 95.7121 126.978 96.0739 127.315 96.3352C127.652 96.5928 128.065 96.7216 128.554 96.7216C129.062 96.7216 129.486 96.5871 129.827 96.3182C130.168 96.0455 130.425 95.6761 130.599 95.2102C130.777 94.7443 130.866 94.2197 130.866 93.6364C130.866 93.0606 130.779 92.5436 130.605 92.0852C130.435 91.6269 130.177 91.2652 129.832 91C129.491 90.7348 129.065 90.6023 128.554 90.6023C128.062 90.6023 127.645 90.7292 127.304 90.983C126.967 91.2367 126.711 91.5909 126.537 92.0455C126.363 92.5 126.276 93.0303 126.276 93.6364ZM136.185 86.3636V98H134.486V86.3636H136.185ZM142.146 98.1761C141.328 98.1761 140.614 97.9886 140.004 97.6136C139.394 97.2386 138.921 96.714 138.584 96.0398C138.247 95.3655 138.078 94.5777 138.078 93.6761C138.078 92.7708 138.247 91.9792 138.584 91.3011C138.921 90.6231 139.394 90.0966 140.004 89.7216C140.614 89.3466 141.328 89.1591 142.146 89.1591C142.964 89.1591 143.679 89.3466 144.288 89.7216C144.898 90.0966 145.372 90.6231 145.709 91.3011C146.046 91.9792 146.214 92.7708 146.214 93.6761C146.214 94.5777 146.046 95.3655 145.709 96.0398C145.372 96.714 144.898 97.2386 144.288 97.6136C143.679 97.9886 142.964 98.1761 142.146 98.1761ZM142.152 96.75C142.682 96.75 143.122 96.6098 143.47 96.3295C143.819 96.0492 144.076 95.6761 144.243 95.2102C144.413 94.7443 144.499 94.2311 144.499 93.6705C144.499 93.1136 144.413 92.6023 144.243 92.1364C144.076 91.6667 143.819 91.2898 143.47 91.0057C143.122 90.7216 142.682 90.5795 142.152 90.5795C141.618 90.5795 141.175 90.7216 140.822 91.0057C140.474 91.2898 140.214 91.6667 140.044 92.1364C139.877 92.6023 139.794 93.1136 139.794 93.6705C139.794 94.2311 139.877 94.7443 140.044 95.2102C140.214 95.6761 140.474 96.0492 140.822 96.3295C141.175 96.6098 141.618 96.75 142.152 96.75ZM150.651 98.1932C150.098 98.1932 149.598 98.0909 149.151 97.8864C148.704 97.678 148.349 97.3769 148.088 96.983C147.83 96.589 147.702 96.1061 147.702 95.5341C147.702 95.0417 147.796 94.6364 147.986 94.3182C148.175 94 148.431 93.7481 148.753 93.5625C149.075 93.3769 149.435 93.2367 149.832 93.142C150.23 93.0473 150.635 92.9754 151.048 92.9261C151.571 92.8655 151.995 92.8163 152.321 92.7784C152.647 92.7367 152.884 92.6705 153.031 92.5795C153.179 92.4886 153.253 92.3409 153.253 92.1364V92.0966C153.253 91.6004 153.113 91.2159 152.832 90.9432C152.556 90.6705 152.143 90.5341 151.594 90.5341C151.022 90.5341 150.571 90.661 150.241 90.9148C149.916 91.1648 149.69 91.4432 149.565 91.75L147.969 91.3864C148.158 90.8561 148.435 90.428 148.798 90.1023C149.166 89.7727 149.588 89.5341 150.065 89.3864C150.543 89.2348 151.045 89.1591 151.571 89.1591C151.92 89.1591 152.289 89.2008 152.679 89.2841C153.073 89.3636 153.44 89.5114 153.781 89.7273C154.126 89.9432 154.408 90.2519 154.628 90.6534C154.848 91.0511 154.957 91.5682 154.957 92.2045V98H153.298V96.8068H153.23C153.12 97.0265 152.955 97.2424 152.736 97.4545C152.516 97.6667 152.234 97.8428 151.889 97.983C151.545 98.1231 151.132 98.1932 150.651 98.1932ZM151.02 96.8295C151.49 96.8295 151.891 96.7367 152.224 96.5511C152.562 96.3655 152.817 96.1231 152.991 95.8239C153.17 95.5208 153.259 95.197 153.259 94.8523V93.7273C153.198 93.7879 153.08 93.8447 152.906 93.8977C152.736 93.947 152.541 93.9905 152.321 94.0284C152.101 94.0625 151.887 94.0947 151.679 94.125C151.471 94.1515 151.296 94.1742 151.156 94.1932C150.827 94.2348 150.526 94.3049 150.253 94.4034C149.984 94.5019 149.768 94.6439 149.605 94.8295C149.446 95.0114 149.366 95.2538 149.366 95.5568C149.366 95.9773 149.522 96.2955 149.832 96.5114C150.143 96.7235 150.539 96.8295 151.02 96.8295ZM160.487 98.1705C159.783 98.1705 159.154 97.9905 158.601 97.6307C158.052 97.267 157.62 96.75 157.305 96.0795C156.995 95.4053 156.839 94.5966 156.839 93.6534C156.839 92.7102 156.997 91.9034 157.311 91.233C157.629 90.5625 158.065 90.0492 158.618 89.6932C159.171 89.3371 159.798 89.1591 160.499 89.1591C161.04 89.1591 161.476 89.25 161.805 89.4318C162.139 89.6098 162.396 89.8182 162.578 90.0568C162.764 90.2955 162.908 90.5057 163.01 90.6875H163.112V86.3636H164.811V98H163.152V96.642H163.01C162.908 96.8277 162.76 97.0398 162.567 97.2784C162.377 97.517 162.116 97.7254 161.783 97.9034C161.449 98.0814 161.018 98.1705 160.487 98.1705ZM160.862 96.7216C161.351 96.7216 161.764 96.5928 162.101 96.3352C162.442 96.0739 162.699 95.7121 162.874 95.25C163.052 94.7879 163.141 94.25 163.141 93.6364C163.141 93.0303 163.054 92.5 162.879 92.0455C162.705 91.5909 162.449 91.2367 162.112 90.983C161.775 90.7292 161.358 90.6023 160.862 90.6023C160.351 90.6023 159.925 90.7348 159.584 91C159.243 91.2652 158.985 91.6269 158.811 92.0852C158.641 92.5436 158.555 93.0606 158.555 93.6364C158.555 94.2197 158.643 94.7443 158.817 95.2102C158.991 95.6761 159.249 96.0455 159.589 96.3182C159.934 96.5871 160.358 96.7216 160.862 96.7216ZM171.607 98V86.3636H175.754C176.66 86.3636 177.41 86.5284 178.004 86.858C178.599 87.1875 179.044 87.6383 179.339 88.2102C179.635 88.7784 179.783 89.4186 179.783 90.1307C179.783 90.8466 179.633 91.4905 179.334 92.0625C179.038 92.6307 178.591 93.0814 177.993 93.4148C177.398 93.7443 176.65 93.9091 175.749 93.9091H172.896V92.4205H175.589C176.161 92.4205 176.625 92.322 176.982 92.125C177.338 91.9242 177.599 91.6515 177.766 91.3068C177.932 90.9621 178.016 90.5701 178.016 90.1307C178.016 89.6913 177.932 89.3011 177.766 88.9602C177.599 88.6193 177.336 88.3523 176.976 88.1591C176.62 87.9659 176.15 87.8693 175.567 87.8693H173.362V98H171.607ZM183.403 92.8182V98H181.705V86.3636H183.381V90.6932H183.489C183.693 90.2235 184.006 89.8504 184.426 89.5739C184.847 89.2973 185.396 89.1591 186.074 89.1591C186.672 89.1591 187.195 89.2822 187.642 89.5284C188.093 89.7746 188.441 90.142 188.688 90.6307C188.938 91.1155 189.062 91.7216 189.062 92.4489V98H187.364V92.6534C187.364 92.0133 187.199 91.517 186.869 91.1648C186.54 90.8087 186.081 90.6307 185.494 90.6307C185.093 90.6307 184.733 90.7159 184.415 90.8864C184.1 91.0568 183.852 91.3068 183.67 91.6364C183.492 91.9621 183.403 92.3561 183.403 92.8182ZM195.006 98.1761C194.188 98.1761 193.473 97.9886 192.864 97.6136C192.254 97.2386 191.78 96.714 191.443 96.0398C191.106 95.3655 190.938 94.5777 190.938 93.6761C190.938 92.7708 191.106 91.9792 191.443 91.3011C191.78 90.6231 192.254 90.0966 192.864 89.7216C193.473 89.3466 194.188 89.1591 195.006 89.1591C195.824 89.1591 196.538 89.3466 197.148 89.7216C197.758 90.0966 198.231 90.6231 198.568 91.3011C198.905 91.9792 199.074 92.7708 199.074 93.6761C199.074 94.5777 198.905 95.3655 198.568 96.0398C198.231 96.714 197.758 97.2386 197.148 97.6136C196.538 97.9886 195.824 98.1761 195.006 98.1761ZM195.011 96.75C195.542 96.75 195.981 96.6098 196.33 96.3295C196.678 96.0492 196.936 95.6761 197.102 95.2102C197.273 94.7443 197.358 94.2311 197.358 93.6705C197.358 93.1136 197.273 92.6023 197.102 92.1364C196.936 91.6667 196.678 91.2898 196.33 91.0057C195.981 90.7216 195.542 90.5795 195.011 90.5795C194.477 90.5795 194.034 90.7216 193.682 91.0057C193.333 91.2898 193.074 91.6667 192.903 92.1364C192.737 92.6023 192.653 93.1136 192.653 93.6705C192.653 94.2311 192.737 94.7443 192.903 95.2102C193.074 95.6761 193.333 96.0492 193.682 96.3295C194.034 96.6098 194.477 96.75 195.011 96.75ZM205.044 89.2727V90.6364H200.277V89.2727H205.044ZM201.555 87.1818H203.254V95.4375C203.254 95.767 203.304 96.0152 203.402 96.1818C203.5 96.3447 203.627 96.4564 203.783 96.517C203.942 96.5739 204.114 96.6023 204.3 96.6023C204.436 96.6023 204.555 96.5928 204.658 96.5739C204.76 96.5549 204.839 96.5398 204.896 96.5284L205.203 97.9318C205.105 97.9697 204.964 98.0076 204.783 98.0455C204.601 98.0871 204.374 98.1098 204.101 98.1136C203.654 98.1212 203.237 98.0417 202.851 97.875C202.464 97.7083 202.152 97.4508 201.913 97.1023C201.675 96.7538 201.555 96.3163 201.555 95.7898V87.1818ZM210.506 98.1761C209.688 98.1761 208.973 97.9886 208.364 97.6136C207.754 97.2386 207.28 96.714 206.943 96.0398C206.606 95.3655 206.438 94.5777 206.438 93.6761C206.438 92.7708 206.606 91.9792 206.943 91.3011C207.28 90.6231 207.754 90.0966 208.364 89.7216C208.973 89.3466 209.688 89.1591 210.506 89.1591C211.324 89.1591 212.038 89.3466 212.648 89.7216C213.258 90.0966 213.731 90.6231 214.068 91.3011C214.405 91.9792 214.574 92.7708 214.574 93.6761C214.574 94.5777 214.405 95.3655 214.068 96.0398C213.731 96.714 213.258 97.2386 212.648 97.6136C212.038 97.9886 211.324 98.1761 210.506 98.1761ZM210.511 96.75C211.042 96.75 211.481 96.6098 211.83 96.3295C212.178 96.0492 212.436 95.6761 212.602 95.2102C212.773 94.7443 212.858 94.2311 212.858 93.6705C212.858 93.1136 212.773 92.6023 212.602 92.1364C212.436 91.6667 212.178 91.2898 211.83 91.0057C211.481 90.7216 211.042 90.5795 210.511 90.5795C209.977 90.5795 209.534 90.7216 209.182 91.0057C208.833 91.2898 208.574 91.6667 208.403 92.1364C208.237 92.6023 208.153 93.1136 208.153 93.6705C208.153 94.2311 208.237 94.7443 208.403 95.2102C208.574 95.6761 208.833 96.0492 209.182 96.3295C209.534 96.6098 209.977 96.75 210.511 96.75Z" fill="url(#paint1_linear_111_17814)"/>
<defs>
<linearGradient id="paint0_linear_111_17814" x1="163.5" y1="54" x2="163.5" y2="74" gradientUnits="userSpaceOnUse">
<stop stop-color="#00DBFF"/>
<stop offset="1" stop-color="#10A5F5"/>
</linearGradient>
<linearGradient id="paint1_linear_111_17814" x1="201.665" y1="84" x2="197.76" y2="104.289" gradientUnits="userSpaceOnUse">
<stop stop-color="#00DBFF"/>
<stop offset="1" stop-color="#10A5F5"/>
</linearGradient>
</defs>
</svg>
