<svg width="32" height="32" viewBox="0 0 32 32" fill="none" xmlns="http://www.w3.org/2000/svg">
<path fill-rule="evenodd" clip-rule="evenodd" d="M12.075 11H15.9364C17.5511 11 18.6784 12.1127 18.6784 13.7073V18.2927C18.6784 19.8873 17.5511 21 15.9364 21H12.075C10.4604 21 9.33301 19.8873 9.33301 18.2927V13.7073C9.33301 12.1127 10.4604 11 12.075 11ZM21.305 12.586C21.5977 12.4371 21.941 12.4527 22.2203 12.6286C22.4997 12.8039 22.6663 13.1085 22.6663 13.4415V18.5589C22.6663 18.8926 22.4997 19.1965 22.2203 19.3718C22.0677 19.4672 21.897 19.5159 21.725 19.5159C21.5817 19.5159 21.4383 19.4821 21.3043 19.4137L20.317 18.9156C19.9516 18.7302 19.725 18.3579 19.725 17.9444V14.0554C19.725 13.6412 19.9516 13.2689 20.317 13.0848L21.305 12.586Z" fill="#192252"/>
<path d="M4 1H28V-1H4V1ZM31 4V28H33V4H31ZM28 31H4V33H28V31ZM1 28V4H-1V28H1ZM4 31C2.34315 31 1 29.6569 1 28H-1C-1 30.7614 1.23858 33 4 33V31ZM31 28C31 29.6569 29.6569 31 28 31V33C30.7614 33 33 30.7614 33 28H31ZM28 1C29.6569 1 31 2.34315 31 4H33C33 1.23858 30.7614 -1 28 -1V1ZM4 -1C1.23858 -1 -1 1.23858 -1 4H1C1 2.34315 2.34315 1 4 1V-1Z" fill="#DBE8FD"/>
</svg>
