<svg width="20" height="20" viewBox="0 0 20 20" fill="none" xmlns="http://www.w3.org/2000/svg">
<g clip-path="url(#clip0_307_8325)">
<path d="M19.9939 0H0.00585932C0.00262331 0 0 0.00262333 0 0.00585938V19.9941C0 19.9974 0.00262331 20 0.00585932 20H19.9939C19.9972 20 19.9998 19.9974 19.9998 19.9941V0.00585938C19.9998 0.00262333 19.9972 0 19.9939 0Z" fill="#5F01D1"/>
<path d="M7.92965 15.7812H5.5078L6.48435 13.4766L3.78906 7.03125H6.24998L7.69527 10.7422L9.14057 7.03125H11.5624L7.92965 15.7812ZM13.828 10H11.1327L13.5546 4.21875H16.2499" fill="white"/>
<path d="M11.8359 13.5156C12.6557 13.5156 13.3203 12.851 13.3203 12.0312C13.3203 11.2115 12.6557 10.5469 11.8359 10.5469C11.0161 10.5469 10.3516 11.2115 10.3516 12.0312C10.3516 12.851 11.0161 13.5156 11.8359 13.5156Z" fill="white"/>
</g>
<defs>
<clipPath id="clip0_307_8325">
<rect width="19.9998" height="20" fill="white"/>
</clipPath>
</defs>
</svg>
